<svg width="554" height="79" viewBox="0 0 554 79" fill="none" xmlns="http://www.w3.org/2000/svg">
<g clip-path="url(#clip0_13_29)">
<path fill-rule="evenodd" clip-rule="evenodd" d="M41.4649 17.8662L31.1291 0L20.9149 17.8662L31.1291 35.8538L41.4649 17.8662Z" fill="#BCBCBC"/>
<path fill-rule="evenodd" clip-rule="evenodd" d="M0 53.72H20.7932L31.1291 35.8539H10.8222L0 53.72Z" fill="#BCBCBC"/>
<path fill-rule="evenodd" clip-rule="evenodd" d="M51.8007 35.8539H31.1291L41.7081 53.72H62.2581L51.8007 35.8539Z" fill="#BCBCBC"/>
<path fill-rule="evenodd" clip-rule="evenodd" d="M12.0382 57.9738H9.97102L8.63344 61.62L7.05267 57.8523H5.2287V66.4815H6.80947V60.8908L8.63344 65.0231L10.3358 60.8908V66.4815H12.0382V57.9738ZM14.8349 66.4815V57.9738H13.1326V66.4815H14.8349ZM15.4429 59.1892H17.1453V66.4815H18.8477V59.1892H20.4284V57.9738H15.4429V59.1892ZM41.2217 57.9738H39.6409V66.4815H41.2217V57.9738ZM54.3543 57.8523H52.6519V61.2554H49.6119V57.9738H48.0312V66.4815H49.6119V62.5923H52.6519V66.4815H54.3543V57.8523ZM57.151 57.9738H55.5702V66.4815H57.151V57.9738ZM25.4139 58.9462C25.1784 58.5867 24.8517 58.2962 24.4672 58.104C24.0828 57.9119 23.6542 57.825 23.2252 57.8523C22.7881 57.7894 22.342 57.8467 21.935 58.018C21.528 58.1893 21.1753 58.4681 20.9148 58.8246C20.6211 59.2452 20.4845 59.7555 20.529 60.2664C20.5734 60.7774 20.7961 61.2564 21.158 61.62L22.0092 62.2277C22.7388 62.4708 22.982 62.8354 23.59 63.0785C23.7617 63.1075 23.9174 63.1969 24.0289 63.3307C24.1404 63.4644 24.2004 63.6336 24.198 63.8077C24.4412 64.5369 24.198 64.9015 23.59 65.0231C23.3366 65.1005 23.0668 65.1074 22.8098 65.0432C22.5527 64.9789 22.318 64.8459 22.1308 64.6585C21.9942 64.3508 21.9119 64.0219 21.8876 63.6862H20.3068C20.2767 64.145 20.3602 64.6042 20.55 65.0231C20.6794 65.4075 20.9029 65.7534 21.2003 66.0294C21.4976 66.3054 21.8593 66.5026 22.2524 66.6031C23.1501 66.7365 24.0647 66.5188 24.806 65.9954C25.2087 65.7492 25.521 65.3796 25.6963 64.9415C25.8716 64.5034 25.9005 64.0205 25.7787 63.5646C25.5224 62.8713 25.0545 62.276 24.4412 61.8631C23.9088 61.6667 23.415 61.3788 22.982 61.0123C22.2524 60.7692 22.1308 60.5262 22.1308 60.04C22.1308 59.5538 22.2524 59.1892 22.982 59.1892C23.7116 59.1892 24.0764 59.5538 24.198 60.5262H25.6571C25.7076 59.9875 25.6241 59.4447 25.4139 58.9462ZM32.1018 63.6862V57.8523H30.5211V63.8077C30.5402 63.988 30.5188 64.1702 30.4583 64.3411C30.3979 64.512 30.2999 64.6673 30.1717 64.7954C30.0435 64.9236 29.8882 65.0215 29.7172 65.0819C29.5462 65.1423 29.3638 65.1638 29.1835 65.1446C28.3323 65.1446 28.0891 64.6585 28.0891 63.8077V57.8523H26.5083V63.6862C26.3867 65.6308 27.2379 66.6031 29.1835 66.6031C31.1291 66.6031 32.1018 65.7523 32.1018 63.6862ZM35.8714 57.9738H33.1962V66.6031H36.601C37.4521 66.6031 38.0601 66.36 38.3033 65.6308C38.6377 65.272 38.8336 64.806 38.8559 64.3162C38.8781 63.8263 38.7254 63.3445 38.4249 62.9569C38.3033 62.5923 38.0601 62.3492 37.4521 62.1062C37.7158 61.9692 37.9488 61.7801 38.1369 61.5502C38.3251 61.3204 38.4644 61.0546 38.5465 60.7692C38.7343 60.4774 38.8012 60.1241 38.7331 59.7839C38.665 59.4438 38.4673 59.1433 38.1817 58.9462C37.9161 58.601 37.5582 58.3381 37.1494 58.1875C36.7406 58.037 36.2975 58.005 35.8714 58.0954V57.9738ZM34.777 59.1892H35.8714C36.4794 59.1892 36.8442 59.5538 36.8442 60.2831C36.8442 61.0123 36.7226 61.1338 36.2362 61.2554H35.385V62.4708H35.993C36.8442 62.7138 37.2089 63.0785 37.2089 63.8077C37.2089 64.5369 36.8442 64.9015 35.993 64.9015H34.777V59.1892ZM13.011 70.1277V78.7569H14.5917V73.2877L16.4157 77.1769L18.1181 73.2877V78.7569H19.8204V70.1277H17.8749L16.4157 74.0169L14.8349 70.1277H13.011ZM31.4938 71.4646V70.1277H26.3867V71.4646H28.0891V78.6354H29.7915V71.4646H31.4938ZM39.8841 71.5862H40.7353C41.7081 71.5862 42.1945 71.9508 42.1945 72.8015C42.1945 73.6523 41.5865 74.26 40.4921 74.26L42.5593 78.6354H44.3832L42.4377 75.1108H42.6809C43.1146 74.8861 43.466 74.5299 43.6845 74.0931C43.903 73.6564 43.9773 73.1616 43.8968 72.68C43.7752 70.9785 42.6809 70.1277 40.6137 70.2492H38.3033V78.7569H39.8841V71.5862Z" fill="#BCBCBC"/>
<path fill-rule="evenodd" clip-rule="evenodd" d="M20.9148 71.7077C20.5099 72.3762 20.2566 73.1253 20.1725 73.9022C20.0885 74.6792 20.1758 75.4651 20.4284 76.2046C20.5712 76.9336 20.9664 77.589 21.5446 78.0558C22.1227 78.5225 22.8469 78.7708 23.59 78.7569C24.2932 78.7934 24.9844 78.5634 25.5254 78.1128C26.0664 77.6622 26.4174 77.0241 26.5083 76.3262C26.8732 75.6284 27.0536 74.849 27.0323 74.0619C27.0111 73.2748 26.7888 72.5063 26.3867 71.8292C26.1494 71.3098 25.7705 70.8676 25.2933 70.5536C24.8162 70.2395 24.2601 70.0662 23.6889 70.0535C23.1177 70.0408 22.5545 70.1892 22.0638 70.4818C21.5732 70.7744 21.175 71.1993 20.9148 71.7077ZM22.1308 76.0831C21.8915 75.5691 21.7676 75.0092 21.7676 74.4423C21.7676 73.8755 21.8915 73.3155 22.1308 72.8015C22.1447 72.6139 22.198 72.4313 22.2874 72.2657C22.3767 72.1001 22.5 71.9552 22.6492 71.8404C22.7984 71.7257 22.9702 71.6438 23.1532 71.6C23.3363 71.5561 23.5266 71.5514 23.7116 71.5862C24.4412 71.5862 24.9276 71.9508 25.0491 72.9231C25.2776 73.5072 25.3847 74.1318 25.3638 74.7587C25.3429 75.3855 25.1945 76.0016 24.9276 76.5692C24.8162 76.8389 24.6322 77.0726 24.3961 77.2442C24.16 77.4158 23.881 77.5187 23.59 77.5415C22.8604 77.5415 22.374 77.0554 22.1308 76.0831ZM31.129 76.3262C31.6154 78.0277 32.5882 78.8785 34.169 78.7569C34.8675 78.8123 35.5637 78.6248 36.1398 78.2262C36.7159 77.8275 37.1365 77.2422 37.3305 76.5692C37.6488 75.8116 37.7923 74.9921 37.7502 74.1715C37.7081 73.3509 37.4815 72.5503 37.0873 71.8292C36.3578 70.6138 35.5066 70.0062 34.5338 70.1277C33.9486 70.0948 33.3658 70.2251 32.8505 70.5041C32.3352 70.7832 31.9076 71.1998 31.6154 71.7077C31.2153 72.4006 30.9653 73.1697 30.8815 73.9653C30.7977 74.7609 30.882 75.5652 31.129 76.3262ZM32.8314 72.8015C32.891 72.4685 33.0747 72.1705 33.3455 71.9675C33.6163 71.7645 33.954 71.6717 34.2906 71.7077C35.0202 71.5862 35.6282 72.0723 35.8714 73.1662C36.254 74.2764 36.2106 75.4891 35.7498 76.5692C35.6087 76.8668 35.3842 77.1171 35.1036 77.2897C34.823 77.4623 34.4984 77.5497 34.169 77.5415C33.8388 77.4759 33.5354 77.3138 33.2973 77.0759C33.0592 76.8379 32.8971 76.5347 32.8314 76.2046C32.5897 75.6699 32.4647 75.0899 32.4647 74.5031C32.4647 73.9163 32.5897 73.3363 32.8314 72.8015ZM47.0584 59.0677C46.8576 58.6762 46.537 58.359 46.1433 58.1623C45.7496 57.9655 45.3034 57.8995 44.8696 57.9739C44.4312 57.8799 43.9746 57.9228 43.5614 58.0967C43.1482 58.2706 42.7984 58.5671 42.5592 58.9462C42.2588 59.3338 42.106 59.8156 42.1283 60.3054C42.1506 60.7953 42.3464 61.2612 42.6808 61.62C42.9039 61.926 43.1954 62.1757 43.532 62.3492L45.1128 63.0785C45.5992 63.3215 45.8424 63.5646 45.8424 63.9292C45.8786 64.057 45.8883 64.1908 45.8708 64.3225C45.8533 64.4541 45.809 64.5808 45.7406 64.6947C45.6723 64.8086 45.5813 64.9072 45.4733 64.9846C45.3653 65.062 45.2426 65.1165 45.1128 65.1446C44.867 65.2143 44.6055 65.2048 44.3654 65.1176C44.1253 65.0303 43.9188 64.8697 43.7752 64.6585C43.5562 64.4273 43.4268 64.1257 43.4104 63.8077H41.8297C41.8947 64.2277 42.0175 64.6367 42.1945 65.0231C42.2872 65.4266 42.499 65.793 42.8026 66.0747C43.1061 66.3564 43.4873 66.5405 43.8968 66.6031C44.3311 66.7248 44.7877 66.7442 45.2307 66.6599C45.6738 66.5755 46.0913 66.3897 46.4504 66.1169C46.8296 65.8779 47.1263 65.5283 47.3003 65.1153C47.4743 64.7023 47.5172 64.2459 47.4232 63.8077C47.3255 63.4318 47.1433 63.0832 46.8904 62.7883C46.6376 62.4934 46.3207 62.2601 45.964 62.1062L44.6264 61.2554C43.8968 60.8908 43.7752 60.5262 43.7752 60.1615C43.7752 59.7969 43.8968 59.3108 44.6264 59.1892C45.356 59.0677 45.7208 59.5539 45.8424 60.6477H47.3016C47.3631 60.1088 47.2791 59.5632 47.0584 59.0677ZM44.748 71.1C44.4209 71.5304 44.2648 72.0665 44.3097 72.6051C44.3546 73.1437 44.5973 73.6466 44.9912 74.0169L45.7208 74.5031L47.3016 75.3538C47.6664 75.4754 48.0312 75.84 48.0312 76.0831C48.0879 76.2261 48.1138 76.3796 48.1072 76.5333C48.1005 76.6871 48.0615 76.8377 47.9926 76.9754C47.9238 77.113 47.8266 77.2346 47.7076 77.3322C47.5885 77.4297 47.4501 77.5011 47.3016 77.5415C46.6936 77.5415 46.3288 77.5415 45.964 76.9338C45.8414 76.8043 45.7459 76.6515 45.6833 76.4845C45.6206 76.3176 45.592 76.1397 45.5992 75.9615H44.0184C44.0593 76.4535 44.1406 76.9413 44.2616 77.42C44.4352 77.7633 44.6749 78.0689 44.9671 78.3192C45.2592 78.5695 45.598 78.7595 45.964 78.8785C46.846 79.0603 47.7642 78.8855 48.5175 78.3923C48.9289 78.1499 49.2551 77.786 49.4511 77.3507C49.647 76.9154 49.7032 76.4301 49.6119 75.9615C49.3498 75.2352 48.8308 74.63 48.1527 74.26L46.6936 73.4092C45.964 73.1662 45.8424 72.8015 45.8424 72.4369C45.8424 72.0723 45.964 71.5862 46.6936 71.5862C47.4232 71.5862 48.0312 71.8292 48.0312 72.8015H49.3687C49.4503 72.5571 49.4707 72.2963 49.4284 72.0421C49.386 71.7879 49.282 71.5479 49.1255 71.3431C48.9367 70.9614 48.6405 70.6431 48.2733 70.4272C47.9061 70.2113 47.4839 70.1072 47.0584 70.1277C46.62 70.0337 46.1633 70.0766 45.7501 70.2505C45.3369 70.4244 44.9871 70.7209 44.748 71.1Z" fill="#BCBCBC"/>
<path fill-rule="evenodd" clip-rule="evenodd" d="M247.573 46.4277H248.911L249.762 48.7369L250.005 49.3446C250.003 49.1747 250.045 49.0071 250.127 48.8585L251.1 46.4277H252.437V50.3169H251.586V47.2785C251.586 47.4 251.464 47.4 251.464 47.5215L250.37 50.3169H249.519L248.425 47.5215V47.2785C248.546 47.4 248.546 47.4 248.546 47.5215V50.3169H247.695V46.4277H247.573ZM255.964 47.0354C256.318 47.0354 256.659 47.1762 256.909 47.427C257.16 47.6777 257.301 48.0177 257.301 48.3723C257.301 48.7269 257.16 49.0669 256.909 49.3177C256.659 49.5684 256.318 49.7092 255.964 49.7092C255.771 49.7343 255.576 49.7013 255.403 49.6147C255.23 49.5281 255.086 49.3917 254.991 49.2231C254.806 48.9801 254.719 48.6764 254.748 48.3723C254.731 48.2028 254.749 48.0316 254.803 47.8698C254.856 47.708 254.943 47.5593 255.058 47.4332C255.172 47.3071 255.312 47.2066 255.468 47.138C255.624 47.0695 255.793 47.0345 255.964 47.0354ZM255.842 46.3062C255.566 46.2883 255.289 46.3295 255.03 46.427C254.771 46.5245 254.536 46.6761 254.341 46.8717C254.145 47.0672 253.993 47.3022 253.896 47.561C253.798 47.8197 253.757 48.0963 253.775 48.3723C253.774 48.6542 253.832 48.9332 253.943 49.1921C254.054 49.4511 254.218 49.6845 254.423 49.878C254.628 50.0715 254.87 50.2211 255.135 50.3175C255.4 50.4139 255.682 50.455 255.964 50.4385C256.255 50.4729 256.55 50.4451 256.83 50.3569C257.109 50.2686 257.367 50.1219 257.585 49.9264C257.804 49.731 257.978 49.4914 258.097 49.2234C258.216 48.9555 258.276 48.6654 258.274 48.3723C258.287 48.1283 258.25 47.8841 258.167 47.6545C258.083 47.4248 257.954 47.2143 257.788 47.0354C257.549 46.7622 257.246 46.5526 256.907 46.4253C256.567 46.298 256.201 46.2571 255.842 46.3062ZM259.125 46.4277H262.773V47.1569H261.435V50.3169H260.463V47.1569H259.125V46.4277ZM266.056 47.0354C266.227 47.0345 266.395 47.0695 266.551 47.138C266.707 47.2066 266.847 47.3071 266.962 47.4332C267.077 47.5593 267.164 47.708 267.217 47.8698C267.27 48.0316 267.289 48.2028 267.272 48.3723C267.289 48.5418 267.27 48.713 267.217 48.8748C267.164 49.0366 267.077 49.1854 266.962 49.3114C266.847 49.4375 266.707 49.538 266.551 49.6066C266.395 49.6751 266.227 49.7101 266.056 49.7092C265.849 49.7188 265.642 49.6798 265.452 49.5954C265.262 49.511 265.094 49.3835 264.962 49.2231C264.829 48.9567 264.747 48.6684 264.719 48.3723C264.699 48.192 264.721 48.0098 264.781 47.8389C264.842 47.668 264.94 47.5128 265.068 47.3846C265.196 47.2564 265.352 47.1585 265.523 47.0981C265.693 47.0377 265.876 47.0162 266.056 47.0354ZM265.935 46.3062C265.653 46.2896 265.371 46.3307 265.106 46.4271C264.841 46.5235 264.599 46.6731 264.394 46.8666C264.189 47.0602 264.025 47.2936 263.914 47.5525C263.803 47.8115 263.745 48.0904 263.746 48.3723C263.744 48.6654 263.804 48.9555 263.923 49.2234C264.042 49.4914 264.216 49.731 264.435 49.9264C264.653 50.1219 264.911 50.2686 265.19 50.3569C265.47 50.4451 265.765 50.4729 266.056 50.4385C266.342 50.4752 266.632 50.448 266.906 50.359C267.18 50.2699 267.431 50.1212 267.64 49.9235C267.85 49.7258 268.012 49.4841 268.117 49.2159C268.222 48.9476 268.265 48.6595 268.245 48.3723C268.269 48.0732 268.224 47.7725 268.113 47.4938C268.001 47.2151 267.827 46.966 267.603 46.7659C267.379 46.5657 267.112 46.4201 266.823 46.3404C266.533 46.2606 266.229 46.2489 265.935 46.3062ZM270.677 47.1569H272.136C272.501 47.1569 272.622 47.1569 272.622 47.2785C272.666 47.3278 272.7 47.3856 272.721 47.4483C272.742 47.5109 272.75 47.5772 272.744 47.6431C272.744 48.0077 272.379 48.0077 272.136 48.0077H270.677V47.1569ZM269.826 50.3169H270.677V48.7369H271.771L272.744 50.3169H273.838L272.744 48.7369L273.23 48.4939C273.377 48.3828 273.489 48.2325 273.554 48.0604C273.618 47.8884 273.633 47.7015 273.595 47.5215C273.595 47.2586 273.51 47.0027 273.352 46.7923C273.109 46.4277 272.744 46.4277 272.258 46.4277H269.826V50.3169ZM282.35 48.98C282.35 49.2231 282.229 49.4662 281.864 49.8308C281.636 50.0412 281.367 50.2035 281.075 50.3079C280.782 50.4124 280.472 50.4567 280.162 50.4385C279.876 50.4752 279.586 50.448 279.312 50.359C279.038 50.2699 278.787 50.1212 278.578 49.9235C278.368 49.7258 278.205 49.4841 278.101 49.2159C277.996 48.9476 277.952 48.6595 277.973 48.3723C277.971 48.0793 278.031 47.7891 278.15 47.5212C278.269 47.2532 278.443 47.0136 278.662 46.8182C278.88 46.6228 279.138 46.476 279.417 46.3878C279.697 46.2995 279.992 46.2717 280.283 46.3062C280.706 46.3002 281.122 46.4104 281.487 46.6248C281.851 46.8391 282.15 47.1493 282.35 47.5215H281.378C281.246 47.3511 281.081 47.2093 280.893 47.1048C280.705 47.0003 280.497 46.9353 280.283 46.9138C279.928 46.9138 279.588 47.0547 279.337 47.3054C279.086 47.5561 278.946 47.8962 278.946 48.2508C278.946 48.6053 279.086 48.9454 279.337 49.1961C279.588 49.4468 279.928 49.5877 280.283 49.5877C280.52 49.6011 280.755 49.5373 280.952 49.4057C281.15 49.2742 281.299 49.0821 281.378 48.8585L282.35 48.98ZM285.877 47.0354C286.099 47.046 286.315 47.1119 286.506 47.2271C286.696 47.3424 286.855 47.5033 286.967 47.6953C287.08 47.8873 287.142 48.1043 287.15 48.3266C287.157 48.549 287.109 48.7697 287.009 48.9687C286.91 49.1677 286.762 49.3387 286.58 49.4662C286.397 49.5938 286.186 49.6738 285.965 49.6991C285.744 49.7243 285.52 49.694 285.313 49.6109C285.107 49.5278 284.924 49.3945 284.782 49.2231C284.65 48.9567 284.567 48.6684 284.539 48.3723C284.539 48.0177 284.68 47.6777 284.931 47.427C285.182 47.1762 285.522 47.0354 285.877 47.0354ZM285.755 46.3062C285.479 46.2883 285.202 46.3295 284.943 46.427C284.684 46.5245 284.449 46.6761 284.254 46.8717C284.058 47.0672 283.906 47.3022 283.809 47.561C283.711 47.8197 283.67 48.0963 283.688 48.3723C283.668 48.6595 283.711 48.9476 283.816 49.2159C283.92 49.4841 284.083 49.7258 284.293 49.9235C284.502 50.1212 284.753 50.2699 285.027 50.359C285.301 50.448 285.591 50.4752 285.877 50.4385C286.168 50.4729 286.463 50.4451 286.743 50.3569C287.022 50.2686 287.28 50.1219 287.498 49.9264C287.717 49.731 287.891 49.4914 288.01 49.2234C288.129 48.9555 288.189 48.6654 288.187 48.3723C288.155 47.8896 287.986 47.4259 287.701 47.0354C287.462 46.7622 287.16 46.5526 286.82 46.4253C286.48 46.298 286.114 46.2571 285.755 46.3062ZM289.525 46.4277H290.862L291.835 48.7369C291.798 48.9476 291.841 49.1645 291.957 49.3446C291.957 49.2231 292.078 49.1015 292.2 48.8585L293.051 46.4277H294.389V50.3169H293.537V47.2785C293.537 47.4 293.537 47.4 293.416 47.5215L292.321 50.3169H291.47L290.497 47.5215C290.376 47.4 290.376 47.4 290.376 47.2785V50.3169H289.525V46.4277ZM297.185 47.1569H298.766C298.888 47.2785 298.888 47.4 298.888 47.6431C298.888 47.8862 298.523 48.1292 298.28 48.1292H297.185V47.1569ZM296.212 50.3169H297.185V48.8585H298.401C298.629 48.9019 298.865 48.8791 299.08 48.793C299.296 48.7068 299.482 48.5609 299.617 48.3723C299.705 48.2737 299.772 48.1581 299.814 48.0327C299.856 47.9074 299.872 47.7748 299.86 47.6431C299.86 47.4 299.739 47.1569 299.739 46.9138C299.595 46.7354 299.407 46.597 299.194 46.5118C298.981 46.4267 298.75 46.3977 298.523 46.4277H296.212V50.3169ZM303.265 48.8585H302.049L302.536 47.6431H302.657V47.4C302.657 47.5215 302.779 47.5215 302.779 47.6431L303.265 48.8585ZM300.468 50.3169H301.441L301.684 49.5877H303.63L303.995 50.3169H304.968L303.265 46.4277H302.171L300.468 50.3169ZM306.305 46.4277H307.156L308.98 48.6154L309.467 49.2231V46.4277H310.318V50.3169H309.345L307.643 48.1292L307.156 47.5215V50.3169H306.305V46.4277ZM311.655 46.4277H312.75L313.723 47.8862C313.844 48.0077 313.844 48.0077 313.844 48.1292C313.844 48.2508 313.966 48.0077 313.966 47.8862L314.939 46.4277H316.033L314.331 48.8585V50.3169H313.479V48.8585L311.655 46.4277ZM294.753 32.4508C293.781 30.5062 294.145 30.7492 292.2 30.6277H289.889C288.065 30.6277 288.309 30.5062 287.701 31.8431L283.201 41.9308H283.08C282.837 42.4169 283.08 42.4169 283.445 42.4169H286.241L286.728 42.1738L287.579 40.1077H294.632L295.483 42.1738C295.483 42.4169 295.726 42.4169 295.848 42.4169H298.766C299.252 42.4169 299.374 42.5385 299.131 42.1738C298.888 41.8092 295.24 33.5446 294.753 32.3292V32.4508ZM288.673 37.6769C289.525 35.6108 290.497 33.5446 290.497 33.4231C290.497 33.3015 290.619 33.3015 290.741 33.3015H291.47C291.592 33.3015 291.713 33.3015 291.713 33.5446L293.416 37.6769H288.673ZM250.735 30.5062H247.817C247.573 30.5062 247.573 30.6277 247.573 30.8708V42.0523C247.573 42.4169 247.573 42.4169 247.938 42.4169H250.613C250.978 42.4169 251.1 42.4169 251.1 42.0523V30.8708C251.1 30.8229 251.09 30.7755 251.072 30.7312C251.054 30.687 251.027 30.6468 250.993 30.613C250.959 30.5791 250.919 30.5522 250.874 30.5339C250.83 30.5156 250.783 30.5062 250.735 30.5062ZM244.898 30.6277H242.466C242.369 30.6277 242.277 30.6661 242.208 30.7345C242.14 30.8029 242.101 30.8956 242.101 30.9923V39.9862L236.751 31.6C236.022 30.5062 235.778 30.6277 233.711 30.6277H230.914C230.818 30.6277 230.725 30.6661 230.656 30.7345C230.588 30.8029 230.55 30.8956 230.55 30.9923V42.1738C230.55 42.5385 230.671 42.5385 230.914 42.5385H233.346C233.711 42.5385 233.711 42.5385 233.711 42.1738V33.4231L238.94 41.5662C239.548 42.5385 239.791 42.5385 241.615 42.5385H244.898C245.141 42.5385 245.263 42.5385 245.263 42.1738V30.9923C245.263 30.8956 245.225 30.8029 245.156 30.7345C245.088 30.6661 244.995 30.6277 244.898 30.6277ZM315.182 30.6277H312.871C312.507 30.6277 312.507 30.7492 312.507 30.9923V39.9862L307.156 31.6C306.427 30.5062 306.062 30.6277 303.995 30.6277H301.32C300.955 30.6277 300.955 30.7492 300.955 30.9923V42.1738C300.955 42.5385 300.955 42.5385 301.32 42.5385H303.63C303.995 42.5385 303.995 42.5385 303.995 42.1738V33.4231L309.345 41.5662C309.953 42.5385 310.075 42.5385 312.02 42.5385H315.182C315.547 42.5385 315.547 42.5385 315.547 42.1738V30.9923C315.547 30.7492 315.547 30.6277 315.182 30.6277ZM262.773 35.2462L257.544 34.76C257.18 34.6385 256.936 34.3954 256.936 34.1523V33.6662C257.058 33.3015 257.18 33.18 257.544 33.18H266.056C266.299 33.18 266.421 33.18 266.421 32.8154V30.8708C266.421 30.6277 266.299 30.6277 266.056 30.6277H257.423C255.234 30.6277 253.896 31.3569 253.532 33.0585V35.3677C253.653 36.34 254.261 37.4338 256.936 37.6769L262.895 38.1631C263.381 38.2846 263.381 38.5277 263.381 38.7708V39.5C263.381 39.8646 263.259 39.9862 262.895 39.9862H253.896C253.653 39.9862 253.532 39.9862 253.532 40.3508V42.1738C253.532 42.5385 253.653 42.5385 253.896 42.5385H262.773C264.962 42.5385 266.421 42.1738 266.786 40.3508C266.881 39.9118 266.922 39.4628 266.907 39.0138V37.7985C266.421 35.7323 264.84 35.3677 262.773 35.2462ZM277.973 35.2462L272.744 34.76C272.605 34.7316 272.48 34.6552 272.391 34.5442C272.302 34.4331 272.255 34.2945 272.258 34.1523V33.6662C272.258 33.3015 272.379 33.18 272.866 33.18H281.256C281.499 33.18 281.621 33.18 281.621 32.8154V30.8708C281.621 30.6277 281.499 30.6277 281.256 30.6277H272.622C270.434 30.6277 269.218 31.3569 268.853 33.0585C268.752 33.4553 268.711 33.8649 268.731 34.2738C268.712 34.6426 268.753 35.0121 268.853 35.3677C268.975 36.34 269.583 37.4338 272.136 37.6769L278.094 38.1631C278.236 38.211 278.364 38.2908 278.469 38.3961C278.575 38.5015 278.654 38.6297 278.702 38.7708V39.5C278.581 39.8646 278.459 39.9862 278.094 39.9862H269.218C268.853 39.9862 268.853 39.9862 268.853 40.3508V42.1738C268.853 42.5385 268.853 42.5385 269.218 42.5385H277.973C280.283 42.5385 281.621 42.1738 281.986 40.3508C282.081 39.9118 282.122 39.4628 282.107 39.0138V37.7985C281.621 35.7323 280.162 35.3677 277.973 35.2462Z" fill="#BCBCBC"/>
<path d="M151.754 8.62923C134.366 8.62923 120.26 17.8661 120.26 29.1692C120.26 40.4723 134.366 49.7092 151.754 49.7092C169.143 49.7092 183.37 40.4723 183.37 29.1692C183.37 17.8661 169.264 8.62923 151.754 8.62923ZM151.754 11.06C161.968 11.06 170.237 13.9769 170.237 17.7446C170.237 21.5123 165.616 22.7277 159.05 23.8215C157.956 16.6508 155.159 11.5461 151.754 11.5461C148.349 11.5461 145.553 16.6508 144.458 23.8215C137.892 22.7277 133.393 20.4185 133.393 17.7446C133.393 15.0708 141.662 11.06 151.754 11.06ZM156.132 24.1861H147.377C148.106 19.5677 149.809 16.4077 151.754 16.4077C153.7 16.4077 155.402 19.5677 156.132 24.1861ZM149.809 47.6431C135.582 46.9138 124.516 38.5277 124.516 28.44C124.544 24.9646 125.792 21.6093 128.043 18.96C128.286 23.5785 134.852 27.5892 144.093 29.0477V29.8985C144.093 38.4061 146.525 45.5769 149.809 47.6431ZM151.754 41.2015C149.201 41.2015 147.133 35.9754 147.012 29.4123C150.169 29.6553 153.34 29.6553 156.496 29.4123C156.375 35.9754 154.308 41.2015 151.754 41.2015ZM153.821 47.6431H153.7C157.104 45.5769 159.536 38.4061 159.536 29.8985V29.0477C168.656 27.5892 175.344 23.5785 175.466 18.96H175.587C177.795 21.6345 179.037 24.9738 179.114 28.44C179.114 38.5277 167.927 46.9138 153.821 47.6431Z" fill="#BCBCBC"/>
<path fill-rule="evenodd" clip-rule="evenodd" d="M159.415 55.9077C157.383 55.9077 155.435 56.7144 153.998 58.1504C152.561 59.5863 151.754 61.5339 151.754 63.5646C151.754 65.5954 152.561 67.5429 153.998 68.9789C155.435 70.4148 157.383 71.2215 159.415 71.2215C161.447 71.2215 163.395 70.4148 164.832 68.9789C166.268 67.5429 167.075 65.5954 167.075 63.5646C167.075 62.5591 166.877 61.5634 166.492 60.6344C166.107 59.7055 165.543 58.8614 164.832 58.1504C164.12 57.4393 163.276 56.8753 162.346 56.4905C161.417 56.1057 160.421 55.9077 159.415 55.9077ZM159.415 68.4262C158.813 68.3956 158.223 68.2445 157.68 67.9817C157.138 67.7188 156.654 67.3497 156.257 66.8962C155.86 66.4428 155.558 65.9142 155.369 65.3418C155.181 64.7695 155.109 64.1651 155.159 63.5646C155.109 62.9641 155.181 62.3597 155.369 61.7874C155.558 61.2151 155.86 60.6865 156.257 60.233C156.654 59.7795 157.138 59.4104 157.68 59.1476C158.223 58.8848 158.813 58.7336 159.415 58.7031C160.705 58.7031 161.942 59.2153 162.854 60.127C163.766 61.0387 164.279 62.2753 164.279 63.5646C164.279 64.854 163.766 66.0905 162.854 67.0022C161.942 67.914 160.705 68.4262 159.415 68.4262Z" fill="#BCBCBC"/>
<path fill-rule="evenodd" clip-rule="evenodd" d="M180.208 56.5154H168.048V59.1892H172.547V70.9785H175.709V59.1892H180.208V56.5154Z" fill="#BCBCBC"/>
<path fill-rule="evenodd" clip-rule="evenodd" d="M189.085 56.5154H185.072L179.114 70.9785H182.883L184.221 67.6969H190.058L191.273 70.9785H195.043L189.085 56.5154ZM187.139 65.2662H185.072L187.139 59.9185L189.206 65.2662H187.139Z" fill="#BCBCBC"/>
<path fill-rule="evenodd" clip-rule="evenodd" d="M108.465 59.1892H112.964V70.9785H116.248V59.1892H120.747V56.5154H108.465V59.1892Z" fill="#BCBCBC"/>
<path fill-rule="evenodd" clip-rule="evenodd" d="M129.259 55.9077C127.227 55.9077 125.278 56.7144 123.842 58.1504C122.405 59.5863 121.598 61.5339 121.598 63.5646C121.598 65.5954 122.405 67.5429 123.842 68.9789C125.278 70.4148 127.227 71.2215 129.259 71.2215C131.29 71.2215 133.239 70.4148 134.675 68.9789C136.112 67.5429 136.919 65.5954 136.919 63.5646C136.888 61.5436 136.071 59.6142 134.641 58.185C133.211 56.7558 131.281 55.939 129.259 55.9077ZM129.259 68.4262C128.28 68.5494 127.287 68.3723 126.411 67.9184C125.536 67.4645 124.819 66.7553 124.356 65.8848C123.893 65.0143 123.706 64.0237 123.819 63.0444C123.932 62.0651 124.341 61.1433 124.99 60.4014C125.64 59.6595 126.5 59.1324 127.456 58.8902C128.412 58.648 129.419 58.702 130.344 59.0452C131.268 59.3883 132.067 60.0043 132.633 60.8115C133.199 61.6186 133.507 62.5788 133.514 63.5646C133.582 64.7702 133.174 65.9541 132.378 66.8628C131.583 67.7715 130.463 68.3327 129.259 68.4262Z" fill="#BCBCBC"/>
<path fill-rule="evenodd" clip-rule="evenodd" d="M144.337 62.5923L140.81 56.5154H137.041L142.634 65.3877V70.9785H144.337H145.917V65.3877L151.511 56.5154H147.741L144.337 62.5923Z" fill="#BCBCBC"/>
<path fill-rule="evenodd" clip-rule="evenodd" d="M515.332 54.9354C536.611 54.9354 554 48.3723 554 40.2292C554 32.0862 536.611 25.6446 515.332 25.6446C494.052 25.6446 476.664 32.2077 476.664 40.2292C476.664 48.2508 493.931 54.9354 515.332 54.9354Z" fill="#BCBCBC"/>
<path fill-rule="evenodd" clip-rule="evenodd" d="M515.332 53.3554C494.782 53.3554 478.123 47.5215 478.123 40.2292C478.123 32.9369 494.782 27.1031 515.332 27.1031C535.882 27.1031 552.541 33.0585 552.541 40.2292C552.541 47.4 535.882 53.3554 515.332 53.3554Z" fill="white"/>
<path fill-rule="evenodd" clip-rule="evenodd" d="M515.332 52.3831C535.152 52.3831 551.325 46.9138 551.325 40.2292C551.325 33.5446 535.152 28.1969 515.332 28.1969C495.511 28.1969 479.339 33.6662 479.339 40.2292C479.339 46.7923 495.39 52.3831 515.332 52.3831Z" fill="#BCBCBC"/>
<path fill-rule="evenodd" clip-rule="evenodd" d="M524.695 42.66C526.397 41.08 527.37 39.3785 529.802 39.5C530.286 39.5148 530.752 39.69 531.126 39.9979C531.5 40.3059 531.762 40.7292 531.869 41.2015L535.152 35.7323H537.098L531.748 45.2123C531.529 45.4434 531.399 45.7451 531.383 46.0631C531.504 46.5492 532.112 46.4277 531.869 46.4277C531.626 46.4277 534.909 44.24 535.396 43.7538C535.882 43.2677 535.639 43.3892 535.76 43.3892C535.882 43.3892 536.004 43.5108 536.004 43.7538C535.923 43.9783 535.799 44.1848 535.639 44.3615C534.666 45.6985 532.964 47.5215 531.14 47.6431C529.316 47.7646 529.802 47.2785 529.68 46.5492C528.708 47.1941 527.564 47.5328 526.397 47.5215C525.971 47.5427 525.55 47.4233 525.198 47.1818C524.847 46.9402 524.584 46.5898 524.452 46.1846C524.308 45.905 524.224 45.5991 524.203 45.2856C524.182 44.9721 524.225 44.6577 524.33 44.3615C523.604 44.6791 522.808 44.8047 522.02 44.7261C521.047 44.7261 520.439 44.24 520.074 43.0246L517.642 47.5215H515.453L518.129 42.9031C518.448 42.4149 518.694 41.8826 518.858 41.3231C518.858 40.9585 518.737 40.7154 518.372 40.7154C517.806 40.834 517.294 41.1325 516.913 41.5661C516.002 42.4952 515.188 43.5131 514.481 44.6046C513.508 46.0631 511.806 47.6431 509.982 47.6431C509.346 47.6883 508.714 47.5051 508.201 47.1262C507.689 46.7474 507.328 46.198 507.185 45.5769C507.185 45.5769 507.063 45.9415 505.969 46.5492C504.874 47.1569 505.604 46.7923 505.482 46.6708C505.366 46.6203 505.268 46.5346 505.202 46.4256C505.137 46.3166 505.107 46.1898 505.118 46.0631L505.847 45.5769C506.82 44.9692 506.942 44.3615 506.942 44.3615C507.22 43.7691 507.545 43.2001 507.914 42.66C508.22 41.7877 508.775 41.0239 509.509 40.4625C510.244 39.901 511.126 39.5665 512.049 39.5C512.414 39.5 512.535 39.7431 512.535 39.8646C512.57 39.8769 512.602 39.897 512.628 39.9234C512.654 39.9499 512.674 39.9819 512.685 40.0171C512.697 40.0523 512.701 40.0897 512.696 40.1265C512.691 40.1633 512.677 40.1984 512.657 40.2292C511.387 40.4342 510.25 41.1334 509.495 42.1738C509.109 42.8156 508.822 43.5123 508.644 44.24C508.522 45.4554 509.009 46.1846 509.86 46.3061C510.711 46.4277 512.535 45.5769 513.386 43.8754C513.688 43.2272 513.854 42.5239 513.873 41.8092C513.848 41.2667 513.633 40.7503 513.265 40.3508C513.265 39.8646 513.508 39.6215 513.873 39.6215C514.238 39.6215 514.116 39.6215 514.116 39.7431C514.402 40.0289 514.625 40.371 514.771 40.7476C514.918 41.1242 514.985 41.5271 514.967 41.9308C514.985 42.18 514.943 42.4299 514.845 42.66C515.752 41.3519 516.909 40.2365 518.25 39.3785H518.858C519.091 39.3349 519.331 39.3488 519.558 39.4189C519.784 39.489 519.99 39.6132 520.158 39.7808C520.326 39.9484 520.45 40.1543 520.52 40.3806C520.59 40.607 520.604 40.847 520.561 41.08C521.533 39.8646 522.263 39.5 523.114 39.5C523.29 39.5 523.464 39.5346 523.626 39.6018C523.788 39.6689 523.936 39.7674 524.06 39.8916C524.184 40.0157 524.283 40.1631 524.35 40.3253C524.417 40.4875 524.452 40.6613 524.452 40.8369C524.428 41.1959 524.283 41.5361 524.04 41.8013C523.796 42.0665 523.47 42.2408 523.114 42.2954C522.385 42.2954 522.02 41.9308 521.777 41.2015C521.546 41.319 521.348 41.4912 521.199 41.7032C521.051 41.9151 520.957 42.1602 520.925 42.4169C520.885 42.6062 520.891 42.8024 520.942 42.9891C520.993 43.1758 521.088 43.3476 521.219 43.4903C521.349 43.633 521.512 43.7423 521.694 43.8093C521.876 43.8763 522.071 43.8989 522.263 43.8754C522.725 43.8898 523.184 43.7988 523.605 43.6092C524.027 43.4197 524.399 43.1366 524.695 42.7815V42.66ZM526.276 31.9646C526.276 32.6938 523.479 34.2738 521.047 34.2738C518.615 34.2738 513.508 32.4508 511.806 32.0861C510.14 31.6142 508.427 31.3288 506.698 31.2354C501.956 31.2354 499.767 33.3015 499.889 35.2461C500.011 37.1908 500.497 36.4615 501.47 36.34C502.034 36.2405 502.569 36.0136 503.032 35.6766C503.496 35.3397 503.876 34.9015 504.145 34.3954H504.51C504.753 34.5169 504.631 34.6385 504.631 34.6385C504.402 35.6194 503.865 36.5017 503.1 37.1573C502.335 37.8129 501.38 38.2078 500.375 38.2846C499.72 38.2228 499.113 37.9101 498.682 37.4118C498.252 36.9135 498.031 36.2682 498.065 35.6108C498.065 33.18 500.619 30.7492 506.82 30.7492C508.127 30.7056 509.435 30.8281 510.711 31.1138C513.766 31.6502 516.853 31.975 519.953 32.0861C521.332 32.1655 522.715 32.1248 524.087 31.9646L525.668 31.7215C526.276 31.7215 526.276 31.8431 526.276 32.0861V31.9646Z" fill="white"/>
<path fill-rule="evenodd" clip-rule="evenodd" d="M529.924 40.5939C529.072 40.4723 527.978 41.3231 527.005 42.4169C526.559 43.0854 526.23 43.8253 526.032 44.6046C525.977 44.8594 525.982 45.1234 526.045 45.3763C526.108 45.6292 526.229 45.8642 526.397 46.0631C526.519 46.1846 527.613 46.6708 529.072 45.0908C529.747 44.4513 530.321 43.7137 530.775 42.9031H530.532C531.14 41.8092 531.018 40.7154 529.924 40.5939Z" fill="#BCBCBC"/>
<path fill-rule="evenodd" clip-rule="evenodd" d="M511.684 37.6769C511.684 37.92 512.049 38.1631 512.414 38.1631C512.778 38.1631 512.292 38.6492 512.17 38.5277C511.968 38.5263 511.77 38.4687 511.598 38.3615C511.426 38.2542 511.288 38.1013 511.198 37.92L507.185 38.4062C502.199 46.4277 500.74 47.7646 497.7 47.7646C497.159 47.7988 496.616 47.7194 496.107 47.5316C495.598 47.3438 495.134 47.0517 494.745 46.674C494.355 46.2963 494.049 45.8414 493.846 45.3385C493.643 44.8356 493.548 44.2958 493.566 43.7538C493.607 42.7834 493.98 41.8562 494.621 41.1266C495.263 40.3969 496.135 39.9087 497.092 39.7431C497.335 39.7431 497.457 39.8646 497.457 39.9862C497.457 40.1077 497.335 40.2292 497.092 40.3508C496.594 40.6454 496.17 41.0508 495.854 41.5356C495.537 42.0204 495.337 42.5715 495.268 43.1462C495.255 43.6195 495.405 44.0829 495.693 44.4591C495.98 44.8352 496.389 45.1011 496.849 45.2123H497.579C500.011 45.2123 502.686 42.5385 505.726 38.2846C504.672 38.3965 503.644 38.6841 502.686 39.1354C502.442 39.3785 502.321 39.2569 502.199 39.0138L502.443 38.7708C503.172 37.7985 505.604 37.6769 506.212 37.5554C508.401 34.1523 511.319 31.9646 511.927 31.9646C512.535 31.9646 512.17 32.0862 512.17 32.3292C512.17 32.5723 511.806 32.6938 511.806 32.8154C510.075 33.9994 508.657 35.5839 507.671 37.4338L510.954 37.0692C510.888 36.8727 510.847 36.6685 510.833 36.4615C510.954 35.3677 511.562 34.76 512.292 34.8815C512.509 34.9073 512.711 35.0052 512.865 35.1595C513.019 35.3138 513.117 35.5156 513.143 35.7323C513.079 36.2545 512.818 36.7327 512.414 37.0692L511.684 37.5554V37.6769Z" fill="white"/>
<path fill-rule="evenodd" clip-rule="evenodd" d="M511.562 37.1908C511.562 37.1908 511.806 37.1908 512.17 36.7046C512.363 36.4571 512.489 36.1641 512.535 35.8538C512.535 35.7323 512.413 35.4892 512.292 35.4892C512.12 35.5414 511.963 35.6353 511.836 35.7625C511.708 35.8897 511.615 36.0463 511.562 36.2185C511.44 36.5311 511.44 36.8781 511.562 37.1908Z" fill="#BCBCBC"/>
<path d="M413.311 60.7692H403.705V62.5923H405.529V68.1831H403.705V70.1277H413.311C415.865 70.1277 418.175 69.0338 418.175 65.2661C418.175 61.4985 415.622 60.7692 413.311 60.7692ZM411.974 68.1831H409.298V62.5923H411.974C412.31 62.6227 412.636 62.7194 412.934 62.8767C413.233 63.034 413.497 63.2488 413.712 63.5087C413.927 63.7686 414.088 64.0684 414.186 64.391C414.284 64.7135 414.318 65.0522 414.284 65.3877C414.284 67.0892 413.433 68.1831 411.974 68.1831Z" fill="#BCBCBC"/>
<path d="M378.291 60.4046C376.589 60.4046 370.995 60.7692 370.995 65.3877C370.995 70.0062 376.467 70.3708 378.291 70.3708C380.115 70.3708 385.465 70.1277 385.465 65.3877C385.465 60.6477 379.993 60.4046 378.291 60.4046ZM378.291 68.5477C377.867 68.5848 377.439 68.5286 377.039 68.3829C376.638 68.2372 376.274 68.0056 375.973 67.7044C375.672 67.4033 375.44 67.0398 375.294 66.6395C375.149 66.2393 375.092 65.812 375.129 65.3877C375.089 64.968 375.144 64.5445 375.29 64.149C375.437 63.7535 375.671 63.3963 375.975 63.104C376.279 62.8117 376.645 62.592 377.046 62.4613C377.448 62.3306 377.873 62.2923 378.291 62.3492C378.709 62.2923 379.135 62.3306 379.536 62.4613C379.937 62.592 380.303 62.8117 380.607 63.104C380.911 63.3963 381.145 63.7535 381.292 64.149C381.438 64.5445 381.493 64.968 381.453 65.3877C381.49 65.812 381.433 66.2393 381.288 66.6395C381.142 67.0398 380.91 67.4033 380.609 67.7044C380.308 68.0056 379.944 68.2372 379.544 68.3829C379.143 68.5286 378.716 68.5848 378.291 68.5477Z" fill="#BCBCBC"/>
<path d="M362.97 62.5923H364.794V64.5369H359.079V62.5923H360.903V60.7692H353.607V62.5923H355.431V68.1831H353.607V70.1277H360.903V68.1831H359.079V66.36H364.794V68.1831H362.97V70.1277H370.266V68.1831H368.442V62.5923H370.266V60.7692H362.97V62.5923Z" fill="#BCBCBC"/>
<path d="M397.017 62.5923H398.841V67.6969L393.612 60.7692H386.317V62.5923H388.14V68.1831H386.317V70.1277H392.153V68.1831H390.329V63.0785L395.558 70.1277H401.151V62.5923H402.975V60.7692H397.017V62.5923Z" fill="#BCBCBC"/>
<path d="M428.876 60.7692H421.093V62.5923H423.282L420.121 68.1831H418.297V70.1277H424.377V68.1831H422.553L423.282 66.8461H428.146L428.876 68.1831H427.052V70.1277H434.956V68.1831H433.132L428.876 60.7692ZM424.133 65.1446L425.714 62.3492L427.173 65.1446H424.133Z" fill="#BCBCBC"/>
<path d="M394.342 37.0692H392.761C390.572 37.3123 389.843 37.92 389.113 39.2569C388.123 41.5707 387.35 43.9712 386.803 46.4277L382.304 46.1846C381.696 41.3231 380.48 20.7831 380.48 13.8554L383.277 13.6123C383.885 16.8938 385.952 28.1969 387.532 31.7215C387.857 32.414 388.373 32.9993 389.019 33.4084C389.666 33.8175 390.415 34.0335 391.18 34.0308H397.382C398.147 34.0335 398.897 33.8175 399.543 33.4084C400.189 32.9993 400.705 32.414 401.03 31.7215C402.611 28.1969 404.678 16.8938 405.286 13.6123L408.083 13.8554C408.083 20.7831 406.867 41.3231 406.259 46.1846L401.759 46.4277C401.213 43.9712 400.439 41.5707 399.449 39.2569C398.719 37.92 397.99 37.3123 395.801 37.0692H394.342Z" fill="#BCBCBC"/>
<path d="M394.342 51.8969C390.086 51.8969 380.358 51.5323 377.197 51.0461C375.658 50.7701 374.223 50.0816 373.045 49.0541C371.867 48.0267 370.991 46.6988 370.509 45.2123C369.536 42.5385 368.806 37.4338 368.442 30.2631C368.075 26.2607 368.075 22.2332 368.442 18.2308C368.928 12.2754 371.603 9.96615 377.318 9.23692C383.033 8.50769 389.721 8.62922 394.342 8.62922C398.963 8.62922 407.353 8.8723 411.244 9.23692C416.959 9.96615 419.634 12.2754 420.121 18.2308C420.487 22.2332 420.487 26.2607 420.121 30.2631C419.756 37.4338 419.026 42.5385 418.054 45.2123C417.572 46.6988 416.695 48.0267 415.517 49.0541C414.339 50.0816 412.904 50.7701 411.366 51.0461C408.204 51.5323 398.476 51.8969 394.342 51.8969ZM410.879 48.3723C411.953 48.1796 412.956 47.7074 413.789 47.0032C414.622 46.299 415.254 45.3878 415.622 44.3615C416.23 42.66 417.081 38.7708 417.567 30.1415C417.812 26.2156 417.812 22.2782 417.567 18.3523C417.202 14.3415 415.257 12.3969 410.879 11.9108C406.502 11.4246 398.841 11.3031 394.342 11.3031C389.843 11.3031 381.331 11.4246 377.683 11.9108C374.035 12.3969 371.36 14.3415 370.995 18.3523C370.751 22.2782 370.751 26.2156 370.995 30.1415C371.482 38.7708 372.333 42.66 372.941 44.3615C373.309 45.3878 373.941 46.299 374.773 47.0032C375.606 47.7074 376.61 48.1796 377.683 48.3723C383.216 48.9672 388.777 49.2512 394.342 49.2231C399.866 49.2482 405.387 48.9642 410.879 48.3723Z" fill="#BCBCBC"/>
</g>
<defs>
<clipPath id="clip0_13_29">
<rect width="554" height="79" fill="white"/>
</clipPath>
</defs>
</svg>
