<svg width="45" height="45" viewBox="0 0 45 45" fill="none" xmlns="http://www.w3.org/2000/svg">
<path d="M33.2 25.4L31 21C30.8111 20.6928 30.5462 20.4394 30.231 20.2642C29.9157 20.0891 29.5606 19.9981 29.2 20H16.8C16.4394 19.9981 16.0843 20.0891 15.769 20.2642C15.4538 20.4394 15.1889 20.6928 15 21L12.8 25.4L10.32 27.704C10.219 27.7977 10.1384 27.9112 10.0833 28.0375C10.0283 28.1639 9.99989 28.3002 10 28.438V37C10 37.2652 10.1054 37.5195 10.2929 37.7071C10.4804 37.8946 10.7348 38 11 38H15C15.4 38 16 37.6 16 37.2V36H30V37C30 37.4 30.4 38 30.8 38H35C35.2652 38 35.5196 37.8946 35.7071 37.7071C35.8946 37.5195 36 37.2652 36 37V28.438C36.0001 28.3002 35.9717 28.1639 35.9167 28.0375C35.8616 27.9112 35.781 27.7977 35.68 27.704L33.2 25.4ZM17 22H29L31 26H15L17 22ZM18 31.2C18 31.6 17.4 32 17 32H12.8C12.4 32 12 31.4 12 31V28.8C12.2 28.2 12.6 27.8 13.2 28L17.2 28.8C17.6 28.8 18 29.4 18 29.8V31.2ZM34 31C34 31.4 33.6 32 33.2 32H29C28.6 32 28 31.6 28 31.2V29.8C28 29.4 28.4 28.8 28.8 28.8L32.8 28C33.4 27.8 33.8 28.2 34 28.8V31ZM36 12V14C35.9952 14.5348 35.7783 15.0459 35.3969 15.421C35.0155 15.796 34.5009 16.0042 33.966 16H18.696C18.1601 16.7006 17.4516 17.2502 16.6398 17.595C15.828 17.9399 14.9405 18.0682 14.0643 17.9674C13.188 17.8667 12.3528 17.5403 11.6405 17.0201C10.9281 16.5 10.3629 15.8039 10 15H15V11H10C10.3629 10.196 10.9281 9.49995 11.6405 8.97982C12.3528 8.45969 13.188 8.13329 14.0643 8.03252C14.9405 7.93176 15.828 8.06007 16.6398 8.40492C17.4516 8.74977 18.1601 9.29936 18.696 9.99998H33.966C34.5009 9.99571 35.0155 10.204 35.3969 10.579C35.7783 10.954 35.9952 11.4651 36 12Z" fill="#E11B22"/>
<rect x="0.5" y="0.5" width="44" height="44" rx="4.5" stroke="#E11B22"/>
</svg>
