<svg width="45" height="45" viewBox="0 0 45 45" fill="none" xmlns="http://www.w3.org/2000/svg">
<g clip-path="url(#clip0_70_360)">
<path fill-rule="evenodd" clip-rule="evenodd" d="M9.66667 15C9.66667 12.7909 11.4575 11 13.6667 11H32.3333C34.5425 11 36.3333 12.7909 36.3333 15V28.3333H37.6667V29.6667V31C37.6667 33.2092 35.8759 35 33.6667 35H12.3333C10.1242 35 8.33333 33.2092 8.33333 31V29.6667V28.3333H9.66667V15ZM33.6667 15V28.3333H12.3333V15C12.3333 14.2636 12.9303 13.6667 13.6667 13.6667H32.3333C33.0697 13.6667 33.6667 14.2636 33.6667 15ZM12.3333 32.3333C11.597 32.3333 11 31.7364 11 31H35C35 31.7364 34.4031 32.3333 33.6667 32.3333H12.3333ZM14.3333 15C13.9651 15 13.6667 15.2985 13.6667 15.6667V26.3333C13.6667 26.7015 13.9651 27 14.3333 27H31.6667C32.0348 27 32.3333 26.7015 32.3333 26.3333V15.6667C32.3333 15.2985 32.0348 15 31.6667 15H14.3333Z" fill="#E11B22"/>
</g>
<rect x="0.5" y="0.5" width="44" height="44" rx="4.5" stroke="#E11B22"/>
<defs>
<clipPath id="clip0_70_360">
<rect width="32" height="32" fill="white" transform="translate(7 7)"/>
</clipPath>
</defs>
</svg>
