<svg width="45" height="45" viewBox="0 0 45 45" fill="none" xmlns="http://www.w3.org/2000/svg">
<g clip-path="url(#clip0_70_365)">
<g clip-path="url(#clip1_70_365)">
<path d="M25.9925 10.6035V9.97222C25.9925 9.43597 25.77 8.91723 25.3813 8.54722C24.99 8.17473 24.4538 7.98723 23.9113 8.00095C15.2638 8.42475 8.42499 15.2635 8.00253 23.9085C7.97505 24.4523 8.17503 24.9885 8.54751 25.3797C8.91624 25.7685 9.43626 25.9922 9.97251 25.9922H10.6037C11.4625 32.8147 17.2337 37.9997 24.2413 37.9997C31.8275 37.9997 38 31.8272 38 24.2423C38 17.2322 32.815 11.4623 25.9925 10.6035ZM13.0487 23.4923H10.5362C11.13 16.5722 16.5725 11.1297 23.4925 10.5347V13.051C23.1487 13.0859 22.8088 13.1372 22.475 13.2022C21.8087 13.3322 21.1625 13.5184 20.5412 13.756C20.3775 13.8185 20.22 13.8935 20.0587 13.9634C19.9137 14.026 19.765 14.0834 19.6225 14.1522C16.0475 15.881 13.4813 19.3685 13.0487 23.4923ZM24.25 31.7498C20.1137 31.7498 16.75 28.386 16.75 24.2498C16.75 20.1135 20.1137 16.7498 24.25 16.7498C28.3862 16.7498 31.75 20.1135 31.75 24.2498C31.75 28.386 28.3862 31.7498 24.25 31.7498Z" fill="#E11B22"/>
<path d="M24.25 19.2497C21.4925 19.2497 19.25 21.4922 19.25 24.2497C19.25 27.0072 21.4925 29.2497 24.25 29.2497C27.0075 29.2497 29.25 27.0072 29.25 24.2497C29.25 21.4922 27.0075 19.2497 24.25 19.2497ZM24.25 20.4997C24.94 20.4997 25.5 21.0597 25.5 21.7497C25.5 22.4397 24.94 22.9997 24.25 22.9997C23.56 22.9997 23 22.4397 23 21.7497C23 21.0597 23.56 20.4997 24.25 20.4997ZM21.75 25.4997C21.06 25.4997 20.5 24.9397 20.5 24.2497C20.5 23.5597 21.06 22.9998 21.75 22.9998C22.44 22.9998 23 23.5597 23 24.2497C23 24.9397 22.44 25.4997 21.75 25.4997ZM24.25 27.9997C23.56 27.9997 23 27.4398 23 26.7498C23 26.0598 23.56 25.4998 24.25 25.4998C24.94 25.4998 25.5 26.0598 25.5 26.7498C25.5 27.4398 24.94 27.9997 24.25 27.9997ZM26.75 25.4997C26.06 25.4997 25.5 24.9397 25.5 24.2497C25.5 23.5597 26.06 22.9998 26.75 22.9998C27.44 22.9998 28 23.5597 28 24.2497C28 24.9397 27.44 25.4997 26.75 25.4997Z" fill="#E11B22"/>
</g>
</g>
<rect x="0.5" y="0.5" width="44" height="44" rx="4.5" stroke="#E11B22"/>
<defs>
<clipPath id="clip0_70_365">
<rect width="30" height="30" fill="white" transform="translate(8 8)"/>
</clipPath>
<clipPath id="clip1_70_365">
<rect width="30" height="30" fill="white" transform="translate(8 8)"/>
</clipPath>
</defs>
</svg>
