<svg width="45" height="45" viewBox="0 0 45 45" fill="none" xmlns="http://www.w3.org/2000/svg">
<g clip-path="url(#clip0_70_374)">
<g clip-path="url(#clip1_70_374)">
<path d="M10.8125 23.984H11.9929C11.9929 23.984 12.1362 23.365 12.3142 22.6014C12.4913 21.8381 13.8948 21.2188 15.4477 21.2188H30.9156C32.469 21.2188 33.8148 21.8381 33.9219 22.6014L34.1153 23.984H35.1875C36.7404 23.984 38 22.7245 38 21.1716V15.922C38 14.6254 37.1179 13.5449 35.9242 13.2191C35.9917 13.4848 36.0313 13.761 36.0313 14.0466V15.1716C36.0313 17.0328 34.5175 18.5464 32.6563 18.5464H13.3435C11.4823 18.5464 9.96871 17.0328 9.96871 15.1716V14.0466C9.96871 13.761 10.0079 13.4848 10.0756 13.2191C8.8819 13.5448 8 14.6254 8 15.922V21.1716C8 22.725 9.25923 23.984 10.8125 23.984Z" fill="#E11B22"/>
<path d="M13.3435 17.422H32.6547C33.8962 17.422 34.9046 16.4129 34.9046 15.172V14.0472C34.9046 13.7113 34.8266 13.3957 34.6937 13.1095H11.3046C11.1722 13.3957 11.0937 13.7112 11.0937 14.0472V15.1721C11.0937 16.4129 12.1033 17.422 13.3435 17.422ZM12.2274 14.1056H33.461C33.6165 14.1056 33.7423 14.2316 33.7423 14.3869C33.7423 14.5421 33.6166 14.6682 33.461 14.6682H12.2274C12.0723 14.6682 11.9461 14.5421 11.9461 14.3869C11.9461 14.2316 12.0717 14.1056 12.2274 14.1056ZM12.2274 15.8635H33.461C33.6165 15.8635 33.7423 15.9895 33.7423 16.1447C33.7423 16.2999 33.6166 16.4259 33.461 16.4259H12.2274C12.0723 16.4259 11.9461 16.2999 11.9461 16.1447C11.9461 15.9894 12.0717 15.8635 12.2274 15.8635Z" fill="#E11B22"/>
<path d="M33.0479 22.9529C32.9656 22.3836 31.6396 21.9219 30.0856 21.9219H16.1181C14.5653 21.9219 13.2215 22.3835 13.1184 22.9529C13.0149 23.5225 12.9311 23.9839 12.9311 23.9839H33.1974L33.0479 22.9529Z" fill="#E11B22"/>
<path d="M14.8122 32.753C14.9184 32.8452 15.0494 32.8903 15.18 32.8903C15.3375 32.8903 15.4944 32.8243 15.6054 32.6965C15.6925 32.5954 17.7214 30.2114 16.183 28.2757C15.3297 27.2012 15.9602 26.5771 16.0975 26.4607C16.3358 26.2664 16.3746 25.9157 16.1824 25.6741C15.9888 25.4313 15.635 25.3912 15.3919 25.5845C14.8026 26.0542 14.0248 27.3671 15.3021 28.9754C16.2598 30.1805 14.7693 31.9427 14.7547 31.9597C14.5523 32.1939 14.5776 32.5492 14.8122 32.753Z" fill="#E11B22"/>
<path d="M19.7338 32.753C19.8401 32.8452 19.9711 32.8903 20.1017 32.8903C20.2594 32.8903 20.4161 32.8243 20.5271 32.6965C20.6142 32.5954 22.6431 30.2114 21.1048 28.2757C20.2515 27.2012 20.882 26.5771 21.0193 26.4607C21.2578 26.2664 21.2965 25.9157 21.1042 25.6741C20.9106 25.4313 20.5569 25.3912 20.3137 25.5845C19.7243 26.0542 18.9466 27.3671 20.2239 28.9754C21.1816 30.1805 19.6911 31.9427 19.6765 31.9597C19.474 32.1939 19.4993 32.5492 19.7338 32.753Z" fill="#E11B22"/>
<path d="M24.6559 32.753C24.7618 32.8452 24.8932 32.8903 25.0234 32.8903C25.181 32.8903 25.3381 32.8243 25.4491 32.6965C25.5358 32.5954 27.565 30.2114 26.0264 28.2757C25.1733 27.2012 25.8038 26.5771 25.9412 26.4607C26.1795 26.2664 26.218 25.9157 26.0258 25.6741C25.8323 25.4313 25.4787 25.3912 25.2353 25.5845C24.6459 26.0542 23.8681 27.3671 25.1458 28.9754C26.1031 30.1805 24.613 31.9427 24.5981 31.9597C24.3955 32.1939 24.4208 32.5492 24.6559 32.753Z" fill="#E11B22"/>
<path d="M29.5775 32.753C29.6836 32.8452 29.8149 32.8903 29.9451 32.8903C30.1027 32.8903 30.2598 32.8243 30.3707 32.6965C30.4574 32.5954 32.4866 30.2114 30.948 28.2757C30.0949 27.2012 30.7255 26.5771 30.8628 26.4607C31.1012 26.2664 31.1397 25.9157 30.9474 25.6741C30.754 25.4313 30.4003 25.3912 30.157 25.5845C29.5675 26.0542 28.7898 27.3671 30.0674 28.9754C31.0248 30.1805 29.5347 31.9427 29.5197 31.9597C29.3172 32.1939 29.3425 32.5492 29.5775 32.753Z" fill="#E11B22"/>
</g>
</g>
<rect x="0.5" y="0.5" width="44" height="44" rx="4.5" stroke="#E11B22"/>
<defs>
<clipPath id="clip0_70_374">
<rect width="30" height="30" fill="white" transform="translate(8 8)"/>
</clipPath>
<clipPath id="clip1_70_374">
<rect width="30" height="30" fill="white" transform="translate(8 8)"/>
</clipPath>
</defs>
</svg>
