<svg width="45" height="45" viewBox="0 0 45 45" fill="none" xmlns="http://www.w3.org/2000/svg">
<g clip-path="url(#clip0_70_387)">
<g clip-path="url(#clip1_70_387)">
<path d="M26.8672 26.0157L22.7187 27.1758L19.8594 24.7852C19.25 24.2579 18.2188 24.129 17.5508 24.4571L11.5508 27.4454C10.8828 27.7852 10.3789 28.6993 10.4375 29.4844L10.6367 33.211L9.57031 34.2891C9.05469 34.8165 8.89063 35.6836 9.17188 36.2227L10.1797 38.2149C10.4609 38.754 11.1406 39 11.7734 38.6719L12.5586 38.2852C11.8906 36.9493 12.4414 35.3204 13.7773 34.6524C15.1133 33.9844 16.7422 34.5352 17.4102 35.8711L23.6797 32.7422C23.0117 31.4063 23.5625 29.7774 24.8984 29.1094C26.2344 28.4415 27.8633 28.9922 28.5312 30.3282L29.0234 30.0938C29.5977 29.8008 29.8437 29.1563 29.5625 28.6172L28.5664 26.6485C28.2148 26.1329 27.4883 25.8399 26.8672 26.0157ZM15.4531 30.8086L11.9023 32.5665L11.75 29.4375C11.75 29.1446 11.9961 28.7579 12.1367 28.6641L13.9531 27.7618L15.4531 30.8086ZM16.6484 30.1875L15.125 27.1641L18.1367 25.6875C18.2891 25.629 18.7812 25.6524 18.9922 25.8282L21.3828 27.8555L16.6484 30.1875Z" fill="#E11B22"/>
<path d="M22.8008 19.3593L23.0703 19.6992C23.8672 18.7968 25.2734 18.7148 26.1641 19.5351C27.0664 20.332 27.1484 21.7382 26.3281 22.6289L30.5469 26.4609C31.3438 25.5585 32.75 25.4765 33.6406 26.2968C34.543 27.0937 34.625 28.5 33.8047 29.3906L34.3438 29.871C34.7773 30.2343 35.3633 30.2109 35.7031 29.8593L36.9219 28.5117C37.2734 28.125 37.3438 27.4335 37.0391 26.9062L36.4648 25.8046L37.4492 22.9218C37.6602 22.3242 37.4609 21.4921 37.0156 21.0937L32.9375 17.4375C32.4922 17.0156 31.6602 16.9218 31.0625 17.1679L28.2969 18.4101L28.1094 14.6718C28.0977 14.5195 27.9688 14.4023 27.8164 14.414C27.6641 14.4257 27.5469 14.5546 27.5586 14.707L27.7227 18.0703L25.3086 16.5703C24.8516 16.289 24.2422 16.3828 23.9023 16.7343L22.7188 18.0585C22.3789 18.4218 22.3906 18.996 22.8008 19.3593ZM33.1836 22.8632L35.0234 20.8125L36.2656 21.914C36.3828 22.0078 36.4648 22.3828 36.4063 22.5937L35.5977 25.0195L33.1836 22.8632ZM27.957 20.5195L29.1758 19.1953L31.5078 18.164C31.7422 18.0585 32.0938 18.1406 32.1992 18.2343L34.2148 20.0625L30.1602 24.5273L27.7813 22.3828C28.0273 21.8085 28.1094 21.1757 27.957 20.5195Z" fill="#E11B22"/>
<path d="M9.38281 19.5351L10.4727 21.4101C10.7656 21.9257 11.4453 22.1132 11.9609 21.8203L12.1484 21.7148L12.6875 22.664C12.8281 22.9101 13.1445 22.9921 13.4258 22.8515L13.8828 22.582C14.1289 22.4414 14.2109 22.125 14.0703 21.8437L13.5312 20.8945L19.3672 17.4961C19.8828 17.2031 20.0703 16.5234 19.7773 16.0078L18.6875 14.1328C18.4648 13.7578 18.0078 13.5351 17.5742 13.6171L15.1719 11.0976C14.7617 10.664 14 10.5586 13.4844 10.8515L9.08984 13.3945C8.57422 13.6875 8.30469 14.4257 8.46875 15L9.44141 18.3164C9.17188 18.6679 9.11328 19.1601 9.38281 19.5351ZM16.5547 16.3359C16.332 15.9609 16.4727 15.4453 16.8477 15.2226C17.2227 15 17.7383 15.1406 17.9609 15.5156C18.1836 15.8906 18.043 16.4062 17.668 16.6289C17.2813 16.8515 16.7656 16.7109 16.5547 16.3359ZM10.3906 17.6953L9.52344 14.7304C9.5 14.625 9.58203 14.4375 9.66406 14.3789L14.0586 11.8242C14.1406 11.7656 14.3516 11.8007 14.4102 11.8828L16.5547 14.1093L10.3906 17.6953ZM10.8711 19.5937C10.6484 19.2187 10.7891 18.7031 11.1641 18.4804C11.5391 18.2578 12.0547 18.3984 12.2773 18.7734C12.5 19.1484 12.3594 19.664 11.9844 19.8867C11.6094 20.1328 11.0938 19.9687 10.8711 19.5937Z" fill="#E11B22"/>
<path d="M24.9336 14.5313L21.8867 11.1211C21.6641 10.875 21.6992 10.4649 21.9453 10.2539L22.9414 9.38676C23.1875 9.16411 23.5977 9.19926 23.8086 9.44536L26.8555 12.8321C27.0781 13.0782 27.043 13.4883 26.7969 13.6993L25.8008 14.5664C25.5547 14.8125 25.1797 14.7774 24.9336 14.5313Z" fill="#E11B22"/>
<path d="M24.6172 35.0391V37.3594C24.6172 38.1328 26.293 38.7539 28.3438 38.7539C30.3945 38.7539 32.0703 38.1328 32.0703 37.3594V35.0273C32.0703 34.2539 30.3945 33.6328 28.3438 33.6328C26.2578 33.6328 24.6172 34.2539 24.6172 35.0391ZM26.2344 35.0391C26.2344 34.6055 27.1953 34.2656 28.3438 34.2656C29.5273 34.2656 30.4531 34.6055 30.4531 35.0391C30.4531 35.4727 29.4922 35.8125 28.3438 35.8125C27.1602 35.8125 26.2344 35.4727 26.2344 35.0391Z" fill="#E11B22"/>
</g>
</g>
<rect x="0.5" y="0.5" width="44" height="44" rx="4.5" stroke="#E11B22"/>
<defs>
<clipPath id="clip0_70_387">
<rect width="30" height="30" fill="white" transform="translate(8 9)"/>
</clipPath>
<clipPath id="clip1_70_387">
<rect width="30" height="30" fill="white" transform="translate(8 9)"/>
</clipPath>
</defs>
</svg>
