<svg width="45" height="45" viewBox="0 0 45 45" fill="none" xmlns="http://www.w3.org/2000/svg">
<g clip-path="url(#clip0_70_396)">
<g clip-path="url(#clip1_70_396)">
<path d="M32.8132 29.5577C30.4852 29.5577 28.5905 31.4521 28.5905 33.7787C28.5905 36.1063 30.4852 37.9993 32.8132 37.9993C35.139 37.9993 37.0342 36.1037 37.0342 33.7787C37.0346 31.4512 35.1412 29.5577 32.8132 29.5577ZM32.8132 36.5669C31.2738 36.5669 30.022 35.3152 30.022 33.7758C30.022 32.2376 31.2738 30.9867 32.8132 30.9867C34.3522 30.9867 35.6022 32.2376 35.6022 33.7758C35.604 35.3156 34.3522 36.5669 32.8132 36.5669Z" fill="#E11B22"/>
<path d="M24.4328 27.4036H29.4381V26.672H32.1C35.9713 26.672 37.9953 23.9181 37.9953 20.5216C37.9953 18.1037 36.964 16.0189 34.9768 15.0141C34.4305 10.9571 32.192 8.00024 29.4385 8.00024H16.5644C13.8079 8.00024 11.5716 10.9562 11.0228 15.0133C9.03512 16.0172 8.00385 18.1037 8.00385 20.5216C8.00385 22.3795 8.61345 24.0427 9.7967 25.169V29.003H14.5674V26.6712H16.5623V27.4015H21.568V36.8054H19.1463V37.7575H26.8524V36.8054H24.4307V27.4036H24.4328ZM27.3302 14.372C27.3302 13.2089 28.2745 12.2641 29.4364 12.2641C30.5987 12.2641 31.5439 13.2089 31.5439 14.372H27.3302ZM29.2801 19.9377C29.2801 20.2018 29.0669 20.415 28.8037 20.415H17.1946C16.9309 20.415 16.7164 20.2018 16.7164 19.9377C16.7164 19.6735 16.9305 19.4599 17.1946 19.4599H28.8041C29.0669 19.4599 29.2801 19.6735 29.2801 19.9377ZM34.8111 20.5216C34.8111 21.6265 33.9155 22.5204 32.8132 22.5204C31.7096 22.5204 30.8131 21.6265 30.8131 20.5216C30.8131 19.4175 31.7096 18.5228 32.8132 18.5228C33.916 18.5228 34.8111 19.4175 34.8111 20.5216ZM13.1859 22.5204C12.0827 22.5204 11.188 21.6265 11.188 20.5216C11.188 19.4175 12.084 18.5228 13.1859 18.5228C14.29 18.5228 15.1856 19.418 15.1856 20.5216C15.1856 21.6265 14.2908 22.5204 13.1859 22.5204ZM13.8996 14.372C13.4287 14.372 12.9864 14.414 12.5695 14.4919C13.1607 11.5821 14.7485 9.43222 16.5636 9.43222H29.4364C31.2489 9.43222 32.8367 11.5821 33.4284 14.4919C33.1317 14.4358 32.8192 14.4058 32.4947 14.3887C32.4947 14.3823 32.4968 14.3767 32.4968 14.3707C32.4968 12.6819 31.1239 11.309 29.4347 11.309C27.7471 11.309 26.3742 12.6827 26.3742 14.3707L13.8996 14.372ZM17.1946 22.1646C16.9309 22.1646 16.7164 21.9518 16.7164 21.6877C16.7164 21.4236 16.9305 21.2108 17.1946 21.2108H28.8041C29.0674 21.2108 29.2806 21.4236 29.2806 21.6877C29.2806 21.9518 29.0674 22.1646 28.8041 22.1646H17.1946Z" fill="#E11B22"/>
</g>
</g>
<rect x="0.5" y="0.5" width="44" height="44" rx="4.5" stroke="#E11B22"/>
<defs>
<clipPath id="clip0_70_396">
<rect width="30" height="30" fill="white" transform="translate(8 8)"/>
</clipPath>
<clipPath id="clip1_70_396">
<rect width="30" height="30" fill="white" transform="translate(8 8)"/>
</clipPath>
</defs>
</svg>
