<svg width="48" height="71" viewBox="0 0 48 71" fill="none" xmlns="http://www.w3.org/2000/svg">
<path d="M2.448 59.036H9.468V59.756H2.448V59.036ZM2.46 57.548H10.128V61.244H2.46V60.452H9.012V58.34H2.46V57.548ZM5.352 57.956H6.444V61.46C6.444 61.892 6.588 61.964 7.332 61.964C7.68 61.964 9.384 61.964 9.84 61.964C10.464 61.964 10.584 61.772 10.644 60.644C10.884 60.812 11.316 60.956 11.616 61.016C11.472 62.468 11.136 62.852 9.924 62.852C9.588 62.852 7.572 62.852 7.248 62.852C5.772 62.852 5.352 62.576 5.352 61.472V57.956ZM1.884 57.548H2.976V61.832H1.884V57.548ZM1.344 52.328H10.608V53.108H1.344V52.328ZM5.4 52.532H6.504V57.152H5.4V52.532ZM0.816 53.756H11.196V56.396H10.056V54.524H1.896V56.396H0.816V53.756ZM1.98 56.432C2.736 56.336 3.78 56.18 4.848 56.024L4.884 56.696C3.972 56.9 3.06 57.092 2.292 57.26L1.98 56.432ZM2.328 55.22L2.64 54.644C3.372 54.764 4.344 55.016 4.86 55.232L4.548 55.88C4.032 55.664 3.072 55.376 2.328 55.22ZM9.24 54.56L9.708 55.184C9.036 55.46 8.088 55.688 7.428 55.82L7.056 55.256C7.704 55.112 8.676 54.776 9.24 54.56ZM6.888 56.6L7.128 55.94C8.04 56.036 9.264 56.3 9.924 56.528L9.696 57.26C9.048 57.032 7.812 56.732 6.888 56.6ZM13.596 52.304H15.96V53.336H13.596V52.304ZM13.104 52.304H14.04V56.6C14.04 58.46 13.92 61.22 13.104 63.056C12.948 62.864 12.54 62.516 12.324 62.396C13.044 60.728 13.104 58.34 13.104 56.6V52.304ZM15.312 52.304H16.272V61.772C16.272 62.3 16.176 62.612 15.852 62.78C15.528 62.96 15.036 62.972 14.256 62.972C14.22 62.696 14.088 62.24 13.956 61.964C14.46 61.988 14.952 61.976 15.108 61.976C15.252 61.976 15.312 61.916 15.312 61.76V52.304ZM13.92 58.508C14.364 58.232 14.976 57.788 15.624 57.308L15.924 57.956C15.396 58.448 14.868 58.94 14.34 59.408L13.92 58.508ZM13.86 55.184L14.484 54.788C14.868 55.196 15.312 55.736 15.528 56.096L14.868 56.552C14.664 56.192 14.22 55.604 13.86 55.184ZM20.064 52.016L21.048 52.256C20.7 52.868 20.256 53.552 19.872 54.128C20.412 54.764 20.964 55.532 21.24 56.036L20.328 56.444C20.028 55.832 19.428 54.944 18.768 54.152C19.26 53.432 19.788 52.592 20.064 52.016ZM22.308 52.016L23.316 52.268C22.956 52.868 22.488 53.552 22.08 54.116C22.644 54.74 23.232 55.496 23.532 55.988L22.608 56.432C22.296 55.82 21.648 54.92 20.94 54.14C21.456 53.432 22.008 52.58 22.308 52.016ZM16.968 57.128H23.208V62.948H22.152V58.064H17.976V63.008H16.968V57.128ZM17.46 61.58H22.656V62.516H17.46V61.58ZM19.368 56.108L20.556 56.36C20.22 56.9 19.86 57.428 19.584 57.788L18.708 57.548C18.948 57.116 19.224 56.528 19.368 56.108ZM20.964 58.148L21.756 58.568C21.048 59.66 19.896 60.68 18.684 61.388C18.54 61.196 18.276 60.92 18.084 60.764C19.26 60.128 20.364 59.12 20.964 58.148ZM18.324 58.928L18.936 58.364C20.004 59.036 21.348 60.02 22.008 60.704L21.348 61.352C20.736 60.668 19.404 59.624 18.324 58.928ZM17.868 51.908L18.864 52.16C18.516 52.796 18.06 53.528 17.676 54.14C18.216 54.824 18.756 55.64 19.032 56.18L18.108 56.576C17.82 55.94 17.232 55.004 16.584 54.152C17.064 53.408 17.604 52.508 17.868 51.908ZM32.004 55.136L32.892 55.508C32.184 56.588 31.08 57.56 30.024 58.196C29.868 57.956 29.592 57.656 29.352 57.452C30.324 56.936 31.428 56.048 32.004 55.136ZM33.096 56.816L33.984 57.2C33.132 58.58 31.728 59.72 30.264 60.44C30.12 60.188 29.856 59.84 29.628 59.624C30.972 59.036 32.364 58.004 33.096 56.816ZM34.08 58.616L34.992 59.024C33.96 61.028 32.052 62.288 29.604 63.02C29.496 62.732 29.244 62.336 29.016 62.084C31.308 61.532 33.156 60.38 34.08 58.616ZM32.364 52.316C33.108 53.516 34.512 54.776 35.76 55.436C35.508 55.64 35.172 56.06 35.004 56.348C33.768 55.568 32.364 54.104 31.536 52.7L32.364 52.316ZM31.848 51.836L32.82 52.148C32.076 53.924 30.792 55.412 29.208 56.408C29.064 56.168 28.728 55.772 28.512 55.592C30.012 54.728 31.236 53.312 31.848 51.836ZM24.96 55.52H28.356V56.396H24.96V55.52ZM24.96 57.116H28.356V57.992H24.96V57.116ZM24.468 53.888H28.74V54.812H24.468V53.888ZM25.404 58.748H28.428V62.312H25.404V61.388H27.492V59.672H25.404V58.748ZM24.936 58.748H25.836V62.852H24.936V58.748ZM25.728 52.256L26.544 51.824C26.88 52.316 27.24 52.964 27.432 53.396L26.556 53.912C26.4 53.468 26.028 52.76 25.728 52.256ZM37.332 56.144H43.008V56.984H37.332V56.144ZM39.456 54.728L39.948 54.536C40.14 54.944 40.296 55.484 40.356 55.844L39.828 56.06C39.792 55.7 39.636 55.136 39.456 54.728ZM38.124 54.44C38.088 54.296 37.98 53.96 37.896 53.78C38.04 53.756 38.148 53.648 38.268 53.492C38.4 53.324 38.82 52.652 39.036 51.992L39.684 52.268C39.384 52.952 38.952 53.624 38.58 54.044V54.068C38.58 54.068 38.124 54.284 38.124 54.44ZM38.124 54.452L38.1 53.9L38.436 53.684L39.768 53.528C39.732 53.696 39.696 53.96 39.696 54.116C38.532 54.296 38.268 54.368 38.124 54.452ZM38.148 55.916C38.124 55.772 38.016 55.424 37.932 55.256C38.1 55.22 38.268 55.076 38.472 54.848C38.676 54.632 39.372 53.756 39.804 52.892L40.392 53.264C39.864 54.116 39.216 54.956 38.568 55.532V55.544C38.568 55.544 38.148 55.76 38.148 55.916ZM38.148 55.916L38.136 55.4L38.472 55.196L40.02 55.028C39.996 55.196 39.984 55.448 39.996 55.58C38.58 55.76 38.304 55.832 38.148 55.916ZM43.776 55.712H47.532V56.636H43.776V55.712ZM45.588 56.3H46.56V63.008H45.588V56.3ZM46.368 51.896L47.232 52.628C46.272 53.12 44.952 53.528 43.812 53.804C43.752 53.588 43.596 53.252 43.476 53.048C44.52 52.748 45.696 52.304 46.368 51.896ZM43.476 53.048H44.412V57.02C44.412 58.772 44.28 61.256 43.404 62.888C43.236 62.72 42.84 62.432 42.612 62.336C43.404 60.812 43.476 58.64 43.476 57.02V53.048ZM36.804 52.292H37.776V61.316H42.528V62.204H36.804V52.292ZM42.06 54.656L42.576 54.464C42.78 54.884 42.972 55.448 43.032 55.808L42.468 56.036C42.42 55.652 42.24 55.076 42.06 54.656ZM40.596 54.392C40.56 54.248 40.452 53.912 40.368 53.732C40.512 53.708 40.62 53.6 40.74 53.444C40.872 53.276 41.292 52.604 41.508 51.944L42.156 52.22C41.856 52.904 41.424 53.576 41.052 53.996V54.02C41.052 54.02 40.596 54.236 40.596 54.392ZM40.596 54.404L40.572 53.864L40.908 53.636L42.204 53.48C42.168 53.648 42.132 53.912 42.132 54.056C40.992 54.248 40.728 54.32 40.596 54.404ZM40.596 55.88C40.572 55.736 40.464 55.388 40.38 55.22C40.56 55.184 40.728 55.052 40.932 54.824C41.136 54.608 41.868 53.756 42.312 52.916L42.9 53.288C42.348 54.116 41.676 54.932 41.016 55.496V55.52C41.016 55.52 40.596 55.724 40.596 55.88ZM40.596 55.88L40.584 55.364L40.92 55.16L42.588 54.98C42.564 55.148 42.552 55.388 42.552 55.52C41.04 55.736 40.74 55.796 40.596 55.88ZM39.444 59.936L39.936 59.744C40.128 60.152 40.296 60.704 40.356 61.052L39.828 61.268C39.792 60.908 39.624 60.344 39.444 59.936ZM38.112 59.6C38.076 59.456 37.968 59.108 37.884 58.94C38.028 58.916 38.136 58.808 38.256 58.64C38.388 58.472 38.808 57.8 39.024 57.14L39.672 57.428C39.372 58.1 38.94 58.772 38.568 59.204V59.216C38.568 59.216 38.112 59.432 38.112 59.6ZM38.112 59.6L38.088 59.048L38.424 58.832L39.756 58.676C39.72 58.856 39.684 59.12 39.672 59.264C38.52 59.444 38.256 59.528 38.112 59.6ZM38.136 61.124C38.112 60.98 38.004 60.644 37.92 60.464C38.088 60.428 38.268 60.272 38.46 60.056C38.676 59.828 39.396 58.928 39.828 58.04L40.416 58.412C39.888 59.288 39.204 60.14 38.556 60.74V60.764C38.556 60.764 38.136 60.968 38.136 61.124ZM38.136 61.124L38.124 60.62L38.46 60.404L40.008 60.236C39.984 60.404 39.972 60.656 39.984 60.788C38.568 60.98 38.292 61.04 38.136 61.124ZM41.892 59.804L42.42 59.624C42.612 60.056 42.792 60.644 42.852 61.028L42.276 61.232C42.24 60.848 42.072 60.26 41.892 59.804ZM40.584 59.552C40.548 59.408 40.44 59.072 40.356 58.892C40.488 58.868 40.608 58.76 40.716 58.592C40.836 58.424 41.232 57.752 41.424 57.092L42.072 57.38C41.796 58.052 41.4 58.724 41.04 59.156V59.168C41.04 59.168 40.584 59.384 40.584 59.552ZM40.584 59.552L40.572 59.024L40.896 58.796L42.204 58.64C42.168 58.808 42.132 59.072 42.12 59.204C40.98 59.396 40.728 59.48 40.584 59.552ZM40.596 61.088C40.56 60.944 40.452 60.608 40.368 60.428C40.548 60.392 40.716 60.248 40.92 60.008C41.136 59.792 41.832 58.88 42.264 57.992L42.864 58.364C42.324 59.24 41.652 60.104 41.004 60.704V60.728C41.004 60.728 40.596 60.932 40.596 61.088ZM40.596 61.088L40.572 60.584L40.908 60.38L42.48 60.2C42.444 60.368 42.432 60.608 42.444 60.74C41.016 60.944 40.728 61.004 40.596 61.088Z" fill="white"/>
<g clip-path="url(#clip0_186_4)">
<g clip-path="url(#clip1_186_4)">
<path fill-rule="evenodd" clip-rule="evenodd" d="M10.6667 15C10.6667 12.7909 12.4575 11 14.6667 11H33.3333C35.5425 11 37.3333 12.7909 37.3333 15V28.3333H38.6667V29.6667V31C38.6667 33.2092 36.8759 35 34.6667 35H13.3333C11.1242 35 9.33333 33.2092 9.33333 31V29.6667V28.3333H10.6667V15ZM34.6667 15V28.3333H13.3333V15C13.3333 14.2636 13.9303 13.6667 14.6667 13.6667H33.3333C34.0697 13.6667 34.6667 14.2636 34.6667 15ZM13.3333 32.3333C12.597 32.3333 12 31.7364 12 31H36C36 31.7364 35.4031 32.3333 34.6667 32.3333H13.3333ZM15.3333 15C14.9651 15 14.6667 15.2985 14.6667 15.6667V26.3333C14.6667 26.7015 14.9651 27 15.3333 27H32.6667C33.0348 27 33.3333 26.7015 33.3333 26.3333V15.6667C33.3333 15.2985 33.0348 15 32.6667 15H15.3333Z" fill="white"/>
</g>
</g>
<rect x="1.5" y="0.5" width="44" height="44" rx="4.5" stroke="white"/>
<defs>
<clipPath id="clip0_186_4">
<rect width="32" height="32" fill="white" transform="translate(8 7)"/>
</clipPath>
<clipPath id="clip1_186_4">
<rect width="32" height="32" fill="white" transform="translate(8 7)"/>
</clipPath>
</defs>
</svg>
