<svg width="48" height="71" viewBox="0 0 48 71" fill="none" xmlns="http://www.w3.org/2000/svg">
<path d="M1.368 54.92H4.596V55.88H1.368V54.92ZM0.696 57.008H4.992V57.98H0.696V57.008ZM0.852 58.724L1.596 58.532C1.812 59.216 2.004 60.104 2.064 60.68L1.284 60.908C1.248 60.308 1.068 59.42 0.852 58.724ZM0.54 61.616C1.644 61.424 3.372 61.1 5.04 60.776L5.1 61.676C3.576 62.024 1.968 62.372 0.768 62.636L0.54 61.616ZM4.128 58.4L4.968 58.64C4.74 59.372 4.512 60.212 4.296 60.752L3.624 60.536C3.804 59.96 4.032 59.036 4.128 58.4ZM2.436 55.328H3.396V61.736L2.436 61.904V55.328ZM2.808 51.8L3.684 52.196C3 53.588 1.86 54.992 0.78 55.868C0.708 55.616 0.48 54.992 0.336 54.716C1.272 54.032 2.244 52.94 2.808 51.8ZM2.496 53.228L2.964 52.4C3.864 52.904 4.836 53.624 5.4 54.152L4.896 55.076C4.344 54.512 3.36 53.744 2.496 53.228ZM6.408 55.244H10.548V56.24H6.408V55.244ZM5.892 52.796H6.924V56.696C6.924 58.568 6.78 61.244 5.772 62.984C5.58 62.828 5.136 62.54 4.884 62.432C5.82 60.788 5.892 58.424 5.892 56.708V52.796ZM10.116 55.244H10.308L10.5 55.208L11.148 55.4C10.632 59.228 9.156 61.676 6.996 62.972C6.852 62.732 6.564 62.348 6.336 62.156C8.256 61.136 9.684 58.7 10.116 55.448V55.244ZM7.704 55.952C8.292 58.724 9.516 61.088 11.616 62.132C11.376 62.324 11.052 62.72 10.884 62.984C8.676 61.736 7.464 59.24 6.804 56.132L7.704 55.952ZM5.892 52.556H11.076V53.588H5.892V52.556ZM14.832 55.412H21.132V56.468H14.832V55.412ZM13.356 57.932H22.632V58.964H13.356V57.932ZM12.804 61.664H23.208V62.708H12.804V61.664ZM17.364 55.904H18.576V62.168H17.364V55.904ZM14.28 59.468L15.204 59.084C15.66 59.72 16.152 60.608 16.344 61.184L15.36 61.604C15.18 61.04 14.724 60.128 14.28 59.468ZM20.676 59.084L21.756 59.492C21.3 60.248 20.772 61.076 20.352 61.616L19.5 61.256C19.896 60.668 20.4 59.756 20.676 59.084ZM18.42 52.436C19.548 53.72 21.768 54.992 23.724 55.568C23.46 55.808 23.112 56.264 22.932 56.552C20.976 55.856 18.792 54.428 17.484 52.904L18.42 52.436ZM17.916 51.752L18.984 52.232C17.652 54.272 15.456 55.748 13.08 56.612C12.912 56.288 12.6 55.844 12.312 55.568C14.58 54.872 16.776 53.54 17.916 51.752ZM29.016 53.216H33.54V54.2H29.016V53.216ZM28.584 55.376H35.568V56.408H28.584V55.376ZM31.092 57.272H35.256V58.196H31.092V57.272ZM30.78 51.872H31.884V56.24H30.78V51.872ZM30.516 57.272H31.572C31.332 58.304 31.02 59.528 30.768 60.32H29.7C29.976 59.504 30.3 58.256 30.516 57.272ZM33.804 59.372H34.884C34.884 59.372 34.86 59.672 34.836 59.816C34.656 61.52 34.464 62.3 34.104 62.636C33.84 62.9 33.54 62.96 33.084 62.984C32.676 63.008 31.92 63.008 31.116 62.972C31.092 62.672 30.948 62.252 30.756 61.976C31.548 62.048 32.4 62.06 32.7 62.06C32.964 62.06 33.108 62.048 33.24 61.952C33.48 61.748 33.66 61.064 33.804 59.504V59.372ZM34.416 52.364L35.4 52.712C33.864 55.784 31.356 58.112 28.416 59.552C28.284 59.336 27.936 58.868 27.72 58.664C30.624 57.392 33.036 55.196 34.416 52.364ZM30.492 59.372H34.152V60.32H30.216L30.492 59.372ZM26.064 52.004H27.084V56.096C27.084 58.544 26.892 61.052 25.128 62.984C24.972 62.744 24.612 62.36 24.372 62.192C25.896 60.476 26.064 58.22 26.064 56.096V52.004ZM27.756 53.864L28.692 54.188C28.356 55.04 28.02 56.096 27.708 56.744L27.048 56.468C27.3 55.772 27.612 54.644 27.756 53.864ZM26.832 58.544C27.12 58.88 28.164 60.38 28.392 60.728L27.648 61.496C27.324 60.848 26.52 59.564 26.148 59.048L26.832 58.544ZM24.36 54.116L25.164 53.96C25.404 55.076 25.644 56.528 25.716 57.332L24.84 57.56C24.78 56.708 24.588 55.232 24.36 54.116ZM39.636 52.94H47.316V53.9H39.636V52.94ZM42.72 51.872H43.8V55.868H42.72V51.872ZM42.744 58.076H43.752V61.928C43.752 62.42 43.668 62.66 43.308 62.804C42.972 62.948 42.456 62.96 41.7 62.96C41.664 62.696 41.532 62.324 41.412 62.072C41.916 62.096 42.408 62.096 42.552 62.084C42.696 62.072 42.744 62.036 42.744 61.916V58.076ZM42.504 53.408L43.308 53.744C42.504 54.92 41.088 56.048 39.768 56.624C39.612 56.372 39.288 55.988 39.06 55.772C40.356 55.328 41.772 54.38 42.504 53.408ZM43.212 54.176L43.908 53.504C45.036 54.116 46.62 55.04 47.412 55.652L46.668 56.432C45.924 55.82 44.376 54.836 43.212 54.176ZM42.96 55.748L43.896 56.132C42.948 57.584 41.34 58.712 39.612 59.396C39.468 59.132 39.192 58.772 38.94 58.544C40.548 57.992 42.132 56.984 42.96 55.748ZM43.572 56.168C44.688 57.272 46.104 57.824 47.676 58.256C47.412 58.508 47.112 58.88 46.98 59.216C45.312 58.64 43.872 57.908 42.636 56.528L43.572 56.168ZM39.288 61.76C40.032 61.412 41.1 60.848 42.168 60.284L42.444 61.112C41.544 61.628 40.56 62.156 39.78 62.576L39.288 61.76ZM40.404 59.204L41.244 58.808C41.64 59.144 42.096 59.648 42.3 59.996L41.424 60.452C41.244 60.104 40.8 59.576 40.404 59.204ZM44.052 60.944L44.736 60.272C45.54 60.716 46.62 61.4 47.16 61.856L46.428 62.612C45.924 62.144 44.856 61.424 44.052 60.944ZM45.288 58.688L46.14 59.168C45.708 59.648 45.18 60.104 44.772 60.416L44.04 59.972C44.436 59.636 44.988 59.072 45.288 58.688ZM36.828 52.796L37.524 52.016C38.196 52.364 39.072 52.928 39.516 53.348L38.772 54.224C38.364 53.804 37.512 53.192 36.828 52.796ZM36.396 56L37.056 55.184C37.776 55.496 38.688 56.024 39.132 56.432L38.424 57.344C38.016 56.924 37.116 56.348 36.396 56ZM36.564 62.264C37.044 61.388 37.704 59.9 38.196 58.604L39.084 59.204C38.64 60.416 38.076 61.796 37.572 62.888L36.564 62.264Z" fill="white"/>
<g clip-path="url(#clip0_186_7)">
<g clip-path="url(#clip1_186_7)">
<path d="M27.8672 25.0157L23.7188 26.1758L20.8594 23.7852C20.25 23.2579 19.2188 23.129 18.5508 23.4571L12.5508 26.4454C11.8828 26.7852 11.3789 27.6993 11.4375 28.4844L11.6367 32.211L10.5703 33.2891C10.0547 33.8165 9.89064 34.6836 10.1719 35.2227L11.1797 37.2149C11.4609 37.754 12.1406 38 12.7734 37.6719L13.5586 37.2852C12.8906 35.9493 13.4414 34.3204 14.7774 33.6524C16.1133 32.9844 17.7422 33.5352 18.4102 34.8711L24.6797 31.7422C24.0117 30.4063 24.5625 28.7774 25.8984 28.1094C27.2344 27.4415 28.8633 27.9922 29.5313 29.3282L30.0234 29.0938C30.5977 28.8008 30.8438 28.1563 30.5625 27.6172L29.5664 25.6485C29.2149 25.1329 28.4883 24.8399 27.8672 25.0157ZM16.4531 29.8086L12.9024 31.5665L12.75 28.4375C12.75 28.1446 12.9961 27.7579 13.1367 27.6641L14.9531 26.7618L16.4531 29.8086ZM17.6484 29.1875L16.125 26.1641L19.1367 24.6875C19.2891 24.629 19.7813 24.6524 19.9922 24.8282L22.3828 26.8555L17.6484 29.1875Z" fill="white"/>
<path d="M23.8008 18.3593L24.0703 18.6992C24.8672 17.7968 26.2734 17.7148 27.1641 18.5351C28.0664 19.332 28.1484 20.7382 27.3281 21.6289L31.5469 25.4609C32.3438 24.5585 33.75 24.4765 34.6406 25.2968C35.543 26.0937 35.625 27.5 34.8047 28.3906L35.3438 28.871C35.7773 29.2343 36.3633 29.2109 36.7031 28.8593L37.9219 27.5117C38.2734 27.125 38.3438 26.4335 38.0391 25.9062L37.4648 24.8046L38.4492 21.9218C38.6602 21.3242 38.4609 20.4921 38.0156 20.0937L33.9375 16.4375C33.4922 16.0156 32.6602 15.9218 32.0625 16.1679L29.2969 17.4101L29.1094 13.6718C29.0977 13.5195 28.9688 13.4023 28.8164 13.414C28.6641 13.4257 28.5469 13.5546 28.5586 13.707L28.7227 17.0703L26.3086 15.5703C25.8516 15.289 25.2422 15.3828 24.9023 15.7343L23.7188 17.0585C23.3789 17.4218 23.3906 17.996 23.8008 18.3593ZM34.1836 21.8632L36.0234 19.8125L37.2656 20.914C37.3828 21.0078 37.4648 21.3828 37.4063 21.5937L36.5977 24.0195L34.1836 21.8632ZM28.957 19.5195L30.1758 18.1953L32.5078 17.164C32.7422 17.0585 33.0938 17.1406 33.1992 17.2343L35.2148 19.0625L31.1602 23.5273L28.7813 21.3828C29.0273 20.8085 29.1094 20.1757 28.957 19.5195Z" fill="white"/>
<path d="M10.3828 18.5351L11.4727 20.4101C11.7656 20.9257 12.4453 21.1132 12.9609 20.8203L13.1484 20.7148L13.6875 21.664C13.8281 21.9101 14.1445 21.9921 14.4258 21.8515L14.8828 21.582C15.1289 21.4414 15.2109 21.125 15.0703 20.8437L14.5312 19.8945L20.3672 16.4961C20.8828 16.2031 21.0703 15.5234 20.7773 15.0078L19.6875 13.1328C19.4648 12.7578 19.0078 12.5351 18.5742 12.6171L16.1719 10.0976C15.7617 9.66402 15 9.55855 14.4844 9.85152L10.0898 12.3945C9.57422 12.6875 9.30469 13.4257 9.46875 14L10.4414 17.3164C10.1719 17.6679 10.1133 18.1601 10.3828 18.5351ZM17.5547 15.3359C17.332 14.9609 17.4727 14.4453 17.8477 14.2226C18.2227 14 18.7383 14.1406 18.9609 14.5156C19.1836 14.8906 19.043 15.4062 18.668 15.6289C18.2813 15.8515 17.7656 15.7109 17.5547 15.3359ZM11.3906 16.6953L10.5234 13.7304C10.5 13.625 10.582 13.4375 10.6641 13.3789L15.0586 10.8242C15.1406 10.7656 15.3516 10.8007 15.4102 10.8828L17.5547 13.1093L11.3906 16.6953ZM11.8711 18.5937C11.6484 18.2187 11.7891 17.7031 12.1641 17.4804C12.5391 17.2578 13.0547 17.3984 13.2773 17.7734C13.5 18.1484 13.3594 18.664 12.9844 18.8867C12.6094 19.1328 12.0938 18.9687 11.8711 18.5937Z" fill="white"/>
<path d="M25.9336 13.5313L22.8867 10.1211C22.6641 9.87504 22.6992 9.46489 22.9453 9.25395L23.9414 8.38676C24.1875 8.16411 24.5977 8.19926 24.8086 8.44536L27.8555 11.8321C28.0781 12.0782 28.043 12.4883 27.7969 12.6993L26.8008 13.5664C26.5547 13.8125 26.1797 13.7774 25.9336 13.5313Z" fill="white"/>
<path d="M25.6172 34.0391V36.3594C25.6172 37.1328 27.293 37.7539 29.3438 37.7539C31.3945 37.7539 33.0703 37.1328 33.0703 36.3594V34.0273C33.0703 33.2539 31.3945 32.6328 29.3438 32.6328C27.2578 32.6328 25.6172 33.2539 25.6172 34.0391ZM27.2344 34.0391C27.2344 33.6055 28.1953 33.2656 29.3438 33.2656C30.5273 33.2656 31.4531 33.6055 31.4531 34.0391C31.4531 34.4727 30.4922 34.8125 29.3438 34.8125C28.1602 34.8125 27.2344 34.4727 27.2344 34.0391Z" fill="white"/>
</g>
</g>
<rect x="1.5" y="0.5" width="44" height="44" rx="4.5" stroke="white"/>
<defs>
<clipPath id="clip0_186_7">
<rect width="30" height="30" fill="white" transform="translate(9 8)"/>
</clipPath>
<clipPath id="clip1_186_7">
<rect width="30" height="30" fill="white" transform="translate(9 8)"/>
</clipPath>
</defs>
</svg>
