<svg width="48" height="71" viewBox="0 0 48 71" fill="none" xmlns="http://www.w3.org/2000/svg">
<path d="M7.596 52.328C8.496 53.648 10.212 55.076 11.688 55.796C11.424 56 11.052 56.408 10.848 56.696C9.384 55.82 7.704 54.212 6.696 52.688L7.596 52.328ZM6.972 51.848L8.028 52.172C7.104 53.984 5.58 55.628 3.744 56.78C3.576 56.564 3.192 56.18 2.952 56C4.704 54.98 6.204 53.396 6.972 51.848ZM5.136 60.248L5.94 59.66C6.864 60.452 8.16 61.628 8.832 62.408L7.968 63.092C7.368 62.348 6.096 61.112 5.136 60.248ZM4.368 57.524H9.888V58.496H4.368V57.524ZM9.648 57.524H9.804L9.972 57.464L10.728 57.944C9.972 59.216 8.568 60.776 7.62 61.676C7.44 61.448 7.08 61.1 6.852 60.932C7.752 60.2 9.096 58.676 9.648 57.74V57.524ZM0.696 52.844L1.596 52.316C2.16 53.084 2.844 54.164 3.132 54.86L2.172 55.472C1.896 54.776 1.248 53.66 0.696 52.844ZM0.672 61.928C1.188 60.956 1.908 59.348 2.46 57.884L3.336 58.472C2.844 59.84 2.22 61.328 1.68 62.492L0.672 61.928ZM5.244 55.508H9.348V56.48H5.244V55.508ZM14.94 52.952H23.112V53.828H14.94V52.952ZM15.012 54.452H22.14V55.304H15.012V54.452ZM13.716 55.952H20.772V56.84H13.716V55.952ZM12.936 59.072H20.136V59.948H12.936V59.072ZM15.084 51.872L16.2 52.196C15.516 53.792 14.388 55.292 13.2 56.24C13.044 56.012 12.636 55.544 12.396 55.34C13.524 54.524 14.52 53.24 15.084 51.872ZM20.436 55.952H21.576C21.552 59.492 21.66 61.88 22.512 61.88C22.728 61.88 22.788 61.184 22.812 60.152C23.028 60.416 23.34 60.692 23.568 60.848C23.484 62.42 23.256 62.996 22.44 62.996C20.568 62.996 20.46 60.176 20.436 55.952ZM13.68 57.512L14.532 57.164C14.916 57.608 15.3 58.208 15.432 58.628L14.52 59C14.4 58.592 14.04 57.968 13.68 57.512ZM16.056 57.092H17.124V62.996H16.056V57.092ZM18.636 57.188L19.644 57.524C19.212 58.088 18.744 58.676 18.384 59.072L17.652 58.772C17.988 58.34 18.408 57.656 18.636 57.188ZM14.988 60.224L15.84 60.548C15.288 61.496 14.292 62.48 13.356 62.972C13.2 62.732 12.876 62.36 12.636 62.156C13.524 61.772 14.496 60.992 14.988 60.224ZM17.472 60.836L18.12 60.212C18.888 60.752 19.884 61.544 20.376 62.072L19.68 62.768C19.212 62.228 18.228 61.4 17.472 60.836ZM29.448 58.868H30.648V62.204H29.448V58.868ZM24.828 53.204H35.136V55.748H33.96V54.236H25.956V56.012H24.828V53.204ZM26.028 58.316H34.068V59.372H26.028V58.316ZM24.828 61.676H35.22V62.756H24.828V61.676ZM28.92 52.112L30.12 51.788C30.408 52.316 30.768 53.036 30.924 53.492L29.664 53.888C29.532 53.42 29.208 52.676 28.92 52.112ZM28.332 53.972H29.496C29.34 56.24 28.764 57.332 25.428 57.824C25.356 57.548 25.104 57.116 24.9 56.9C27.84 56.54 28.212 55.772 28.332 53.972ZM30.768 53.972H31.896V55.964C31.896 56.312 31.956 56.432 32.304 56.432C32.592 56.432 33.924 56.432 34.248 56.432C34.56 56.432 35.064 56.408 35.304 56.348C35.328 56.648 35.364 57.092 35.4 57.356C35.184 57.428 34.716 57.44 34.296 57.44C33.96 57.44 32.556 57.44 32.292 57.44C31.092 57.44 30.768 57.056 30.768 55.952V53.972ZM36.924 55.52H40.248V56.396H36.924V55.52ZM37.368 58.748H40.272V62.324H37.368V61.388H39.348V59.672H37.368V58.748ZM36.9 58.748H37.812V62.828H36.9V58.748ZM36.912 57.116H40.236V57.992H36.912V57.116ZM36.432 53.888H40.62V54.812H36.432V53.888ZM37.68 52.268L38.52 51.908C38.844 52.4 39.216 53.072 39.408 53.492L38.52 53.924C38.352 53.48 37.98 52.784 37.68 52.268ZM41.184 52.376H42.108V56.96C42.108 58.796 41.976 61.388 41.004 63.044C40.848 62.876 40.44 62.588 40.236 62.48C41.112 60.932 41.184 58.676 41.184 56.972V52.376ZM41.688 52.376H46.74V53.372H41.688V52.376ZM46.248 52.376H47.184V61.736C47.184 62.252 47.076 62.552 46.752 62.72C46.416 62.888 45.9 62.9 45.096 62.9C45.06 62.636 44.916 62.192 44.784 61.94C45.348 61.964 45.864 61.964 46.02 61.952C46.188 61.94 46.248 61.892 46.248 61.724V52.376ZM41.904 54.464H46.452V55.376H41.904V54.464ZM41.868 56.42H46.476V57.332H41.868V56.42ZM43.692 52.952H44.64V56.924H43.692V52.952ZM43.044 58.016H45.696V60.92H43.044V60.092H44.844V58.832H43.044V58.016ZM42.552 58.016H43.356V61.472H42.552V58.016Z" fill="white"/>
<g clip-path="url(#clip0_186_6)">
<g clip-path="url(#clip1_186_6)">
<path d="M11.8125 23.984H12.9929C12.9929 23.984 13.1362 23.365 13.3142 22.6014C13.4913 21.8381 14.8948 21.2188 16.4477 21.2188H31.9156C33.469 21.2188 34.8148 21.8381 34.9219 22.6014L35.1153 23.984H36.1875C37.7404 23.984 39 22.7245 39 21.1716V15.922C39 14.6254 38.1179 13.5449 36.9242 13.2191C36.9917 13.4848 37.0313 13.761 37.0313 14.0466V15.1716C37.0313 17.0328 35.5175 18.5464 33.6563 18.5464H14.3435C12.4823 18.5464 10.9687 17.0328 10.9687 15.1716V14.0466C10.9687 13.761 11.0079 13.4848 11.0756 13.2191C9.8819 13.5448 9 14.6254 9 15.922V21.1716C9 22.725 10.2592 23.984 11.8125 23.984Z" fill="white"/>
<path d="M14.3435 17.422H33.6547C34.8962 17.422 35.9046 16.4129 35.9046 15.172V14.0472C35.9046 13.7113 35.8266 13.3957 35.6937 13.1095H12.3046C12.1722 13.3957 12.0937 13.7112 12.0937 14.0472V15.1721C12.0937 16.4129 13.1033 17.422 14.3435 17.422ZM13.2274 14.1056H34.461C34.6165 14.1056 34.7423 14.2316 34.7423 14.3869C34.7423 14.5421 34.6166 14.6682 34.461 14.6682H13.2274C13.0723 14.6682 12.9461 14.5421 12.9461 14.3869C12.9461 14.2316 13.0717 14.1056 13.2274 14.1056ZM13.2274 15.8635H34.461C34.6165 15.8635 34.7423 15.9895 34.7423 16.1447C34.7423 16.2999 34.6166 16.4259 34.461 16.4259H13.2274C13.0723 16.4259 12.9461 16.2999 12.9461 16.1447C12.9461 15.9894 13.0717 15.8635 13.2274 15.8635Z" fill="white"/>
<path d="M34.0479 22.9529C33.9656 22.3836 32.6396 21.9219 31.0856 21.9219H17.1181C15.5653 21.9219 14.2215 22.3835 14.1184 22.9529C14.0149 23.5225 13.9311 23.9839 13.9311 23.9839H34.1974L34.0479 22.9529Z" fill="white"/>
<path d="M15.8122 32.753C15.9184 32.8452 16.0494 32.8903 16.18 32.8903C16.3375 32.8903 16.4944 32.8243 16.6054 32.6965C16.6925 32.5954 18.7214 30.2114 17.183 28.2757C16.3297 27.2012 16.9602 26.5771 17.0975 26.4607C17.3358 26.2664 17.3746 25.9157 17.1824 25.6741C16.9888 25.4313 16.635 25.3912 16.3919 25.5845C15.8026 26.0542 15.0248 27.3671 16.3021 28.9754C17.2598 30.1805 15.7693 31.9427 15.7547 31.9597C15.5523 32.1939 15.5776 32.5492 15.8122 32.753Z" fill="white"/>
<path d="M20.7338 32.753C20.8401 32.8452 20.9711 32.8903 21.1017 32.8903C21.2594 32.8903 21.4161 32.8243 21.5271 32.6965C21.6142 32.5954 23.6431 30.2114 22.1048 28.2757C21.2515 27.2012 21.882 26.5771 22.0193 26.4607C22.2578 26.2664 22.2965 25.9157 22.1042 25.6741C21.9106 25.4313 21.5569 25.3912 21.3137 25.5845C20.7243 26.0542 19.9466 27.3671 21.2239 28.9754C22.1816 30.1805 20.6911 31.9427 20.6765 31.9597C20.474 32.1939 20.4993 32.5492 20.7338 32.753Z" fill="white"/>
<path d="M25.6559 32.753C25.7618 32.8452 25.8932 32.8903 26.0234 32.8903C26.181 32.8903 26.3381 32.8243 26.4491 32.6965C26.5358 32.5954 28.565 30.2114 27.0264 28.2757C26.1733 27.2012 26.8038 26.5771 26.9412 26.4607C27.1795 26.2664 27.218 25.9157 27.0258 25.6741C26.8323 25.4313 26.4787 25.3912 26.2353 25.5845C25.6459 26.0542 24.8681 27.3671 26.1458 28.9754C27.1031 30.1805 25.613 31.9427 25.5981 31.9597C25.3955 32.1939 25.4208 32.5492 25.6559 32.753Z" fill="white"/>
<path d="M30.5775 32.753C30.6836 32.8452 30.8149 32.8903 30.9451 32.8903C31.1027 32.8903 31.2598 32.8243 31.3707 32.6965C31.4574 32.5954 33.4866 30.2114 31.948 28.2757C31.0949 27.2012 31.7255 26.5771 31.8628 26.4607C32.1012 26.2664 32.1397 25.9157 31.9474 25.6741C31.754 25.4313 31.4003 25.3912 31.157 25.5845C30.5675 26.0542 29.7898 27.3671 31.0674 28.9754C32.0248 30.1805 30.5347 31.9427 30.5197 31.9597C30.3172 32.1939 30.3425 32.5492 30.5775 32.753Z" fill="white"/>
</g>
</g>
<rect x="1.5" y="0.5" width="44" height="44" rx="4.5" stroke="white"/>
<defs>
<clipPath id="clip0_186_6">
<rect width="30" height="30" fill="white" transform="translate(9 8)"/>
</clipPath>
<clipPath id="clip1_186_6">
<rect width="30" height="30" fill="white" transform="translate(9 8)"/>
</clipPath>
</defs>
</svg>
