<svg width="48" height="71" viewBox="0 0 48 71" fill="none" xmlns="http://www.w3.org/2000/svg">
<path d="M4.236 57.608H11.16V58.604H4.236V57.608ZM9.9 54.572L10.728 55.4C8.892 55.796 6.216 56.012 3.96 56.072C3.924 55.82 3.804 55.412 3.684 55.184C5.88 55.1 8.436 54.884 9.9 54.572ZM7.08 55.304H8.196C8.244 58.82 9.288 61.772 10.224 61.772C10.476 61.772 10.572 61.256 10.62 60.128C10.86 60.356 11.232 60.572 11.52 60.656C11.364 62.396 10.992 62.852 10.152 62.852C8.316 62.852 7.2 59.348 7.08 55.304ZM1.944 53.048H11.46V54.068H1.944V53.048ZM1.392 53.048H2.496V56.48C2.496 58.388 2.328 61.22 1.272 63.056C1.068 62.864 0.576 62.54 0.312 62.42C1.308 60.704 1.392 58.232 1.392 56.48V53.048ZM5.58 52.112L6.708 51.836C7.032 52.304 7.332 52.952 7.428 53.384L6.24 53.708C6.144 53.276 5.88 52.604 5.58 52.112ZM5.268 61.736H8.376V62.648H5.268V61.736ZM3.708 61.82L3.624 60.896L4.104 60.536L6.936 59.888C6.924 60.188 6.936 60.62 6.948 60.86C4.368 61.508 3.96 61.652 3.708 61.82ZM3.708 61.82C3.636 61.556 3.444 61.1 3.288 60.884C3.48 60.788 3.684 60.584 3.684 60.128V55.184L4.764 55.46V60.932C4.764 60.932 3.708 61.46 3.708 61.82ZM13.884 52.748H16.992V53.54H13.884V52.748ZM15.12 51.86L16.116 52.004C15.888 52.472 15.684 52.904 15.504 53.228L14.652 53.084C14.82 52.724 15.024 52.22 15.12 51.86ZM13.464 52.748H14.376V54.98C14.376 56.264 14.16 58.016 13.044 59.168C12.9 58.988 12.528 58.664 12.324 58.556C13.332 57.512 13.464 56.084 13.464 54.956V52.748ZM19.188 52.304H21.564V53.12H19.188V52.304ZM18.252 55.34H21.972V56.132H18.252V55.34ZM18.78 52.304H19.68V53.144C19.68 53.9 19.416 54.788 18.312 55.376C18.192 55.172 17.856 54.8 17.688 54.668C18.624 54.212 18.78 53.648 18.78 53.12V52.304ZM16.596 52.748H17.532V57.896C17.532 58.34 17.448 58.556 17.148 58.688C16.86 58.82 16.392 58.832 15.744 58.832C15.708 58.592 15.588 58.28 15.48 58.052C15.912 58.076 16.308 58.076 16.428 58.064C16.56 58.064 16.596 58.016 16.596 57.896V52.748ZM21.804 55.34H22.02L22.188 55.316L22.752 55.556C21.984 57.476 20.244 58.436 18.204 58.916C18.12 58.688 17.856 58.28 17.688 58.112C19.608 57.752 21.192 56.972 21.804 55.472V55.34ZM12.516 61.76H23.472V62.66H12.516V61.76ZM13.908 59.108H22.08V62.204H20.964V59.996H19.644V62.204H18.6V59.996H17.292V62.204H16.248V59.996H14.964V62.204H13.908V59.108ZM21 52.304H21.936V53.744C21.936 54.02 21.96 54.104 22.128 54.104C22.26 54.104 22.716 54.104 22.848 54.104C23.016 54.104 23.292 54.08 23.448 54.044C23.472 54.284 23.496 54.62 23.52 54.848C23.364 54.896 23.1 54.908 22.872 54.908C22.704 54.908 22.188 54.908 22.032 54.908C21.18 54.908 21 54.584 21 53.732V52.304ZM14.64 54.092L15.288 53.732C15.636 54.008 15.984 54.428 16.14 54.728L15.444 55.16C15.3 54.836 14.964 54.404 14.64 54.092ZM14.556 56.732L15.18 56.3C15.54 56.576 15.924 56.972 16.08 57.284L15.408 57.764C15.264 57.452 14.904 57.032 14.556 56.732ZM12.42 55.4C13.764 55.352 15.828 55.268 17.832 55.172L17.808 55.94C15.888 56.036 13.884 56.144 12.492 56.204L12.42 55.4ZM18.156 56.744L18.732 56.096C20.28 56.708 22.32 57.728 23.364 58.472L22.74 59.228C21.756 58.484 19.752 57.416 18.156 56.744ZM24.564 57.44H30.996V58.412H24.564V57.44ZM27.276 56.24H28.344V63.008H27.276V56.24ZM31.596 53.228H32.64V59.9H31.596V53.228ZM34.032 52.1H35.112V61.616C35.112 62.264 34.968 62.588 34.584 62.756C34.188 62.936 33.564 62.972 32.592 62.972C32.532 62.672 32.388 62.18 32.232 61.868C32.916 61.892 33.552 61.892 33.756 61.892C33.96 61.88 34.032 61.82 34.032 61.616V52.1ZM29.424 52.196L30.42 52.58C29.22 54.356 27.18 55.772 25.212 56.648C25.068 56.42 24.708 55.988 24.48 55.784C26.448 55.04 28.38 53.768 29.424 52.196ZM24.888 53.3L25.596 52.604C27.276 53.276 29.532 54.392 30.684 55.208L29.916 56.024C28.848 55.208 26.616 54.032 24.888 53.3ZM29.028 58.892H29.964V61.088C29.964 61.388 29.976 61.496 30.156 61.496C30.24 61.496 30.468 61.496 30.564 61.496C30.696 61.496 30.96 61.484 31.104 61.436C31.116 61.676 31.116 61.868 31.164 62.096C31.044 62.144 30.78 62.156 30.588 62.156C30.408 62.156 30.036 62.156 29.856 62.156C29.148 62.156 29.028 61.784 29.028 61.076V58.892ZM25.62 58.892H26.544V59.924C26.544 60.788 26.28 61.796 25.056 62.468C24.912 62.288 24.516 61.964 24.324 61.844C25.44 61.28 25.62 60.548 25.62 59.9V58.892ZM28.824 56.552L29.46 55.976C29.88 56.264 30.444 56.684 30.732 56.948L30.084 57.596C29.796 57.32 29.244 56.876 28.824 56.552ZM36.924 52.928H47.064V53.96H36.924V52.928ZM36.588 60.296H47.448V61.328H36.588V60.296ZM41.376 51.884H42.54V63.044H41.376V51.884ZM38.916 57.512V58.532H45.048V57.512H38.916ZM38.916 55.64V56.648H45.048V55.64H38.916ZM37.824 54.704H46.188V59.456H37.824V54.704Z" fill="white"/>
<g clip-path="url(#clip0_186_5)">
<g clip-path="url(#clip1_186_5)">
<path d="M26.9925 10.6035V9.97222C26.9925 9.43597 26.77 8.91723 26.3813 8.54722C25.99 8.17473 25.4538 7.98723 24.9113 8.00095C16.2638 8.42475 9.42499 15.2635 9.00253 23.9085C8.97505 24.4523 9.17503 24.9885 9.54751 25.3797C9.91624 25.7685 10.4363 25.9922 10.9725 25.9922H11.6037C12.4625 32.8147 18.2337 37.9997 25.2413 37.9997C32.8275 37.9997 39 31.8272 39 24.2423C39 17.2322 33.815 11.4623 26.9925 10.6035ZM14.0487 23.4923H11.5362C12.13 16.5722 17.5725 11.1297 24.4925 10.5347V13.051C24.1487 13.0859 23.8088 13.1372 23.475 13.2022C22.8087 13.3322 22.1625 13.5184 21.5412 13.756C21.3775 13.8185 21.22 13.8935 21.0587 13.9634C20.9137 14.026 20.765 14.0834 20.6225 14.1522C17.0475 15.881 14.4813 19.3685 14.0487 23.4923ZM25.25 31.7498C21.1137 31.7498 17.75 28.386 17.75 24.2498C17.75 20.1135 21.1137 16.7498 25.25 16.7498C29.3862 16.7498 32.75 20.1135 32.75 24.2498C32.75 28.386 29.3862 31.7498 25.25 31.7498Z" fill="white"/>
<path d="M25.25 19.2498C22.4925 19.2498 20.25 21.4923 20.25 24.2497C20.25 27.0072 22.4925 29.2497 25.25 29.2497C28.0075 29.2497 30.25 27.0072 30.25 24.2497C30.25 21.4923 28.0075 19.2498 25.25 19.2498ZM25.25 20.4998C25.94 20.4998 26.5 21.0598 26.5 21.7498C26.5 22.4398 25.94 22.9998 25.25 22.9998C24.56 22.9998 24 22.4398 24 21.7498C24 21.0598 24.56 20.4998 25.25 20.4998ZM22.75 25.4998C22.06 25.4998 21.5 24.9398 21.5 24.2498C21.5 23.5598 22.06 22.9998 22.75 22.9998C23.44 22.9998 24 23.5598 24 24.2498C24 24.9398 23.44 25.4998 22.75 25.4998ZM25.25 27.9998C24.56 27.9998 24 27.4398 24 26.7498C24 26.0598 24.56 25.4998 25.25 25.4998C25.94 25.4998 26.5 26.0598 26.5 26.7498C26.5 27.4398 25.94 27.9998 25.25 27.9998ZM27.75 25.4998C27.06 25.4998 26.5 24.9398 26.5 24.2498C26.5 23.5598 27.06 22.9998 27.75 22.9998C28.44 22.9998 29 23.5598 29 24.2498C29 24.9398 28.44 25.4998 27.75 25.4998Z" fill="white"/>
</g>
</g>
<rect x="1.5" y="0.5" width="44" height="44" rx="4.5" stroke="white"/>
<defs>
<clipPath id="clip0_186_5">
<rect width="30" height="30" fill="white" transform="translate(9 8)"/>
</clipPath>
<clipPath id="clip1_186_5">
<rect width="30" height="30" fill="white" transform="translate(9 8)"/>
</clipPath>
</defs>
</svg>
