<svg width="48" height="71" viewBox="0 0 48 71" fill="none" xmlns="http://www.w3.org/2000/svg">
<path d="M6.216 55.124H10.14V56.06H6.216V55.124ZM5.34 56.972H10.608V57.908H6.24V62.984H5.34V56.972ZM5.748 59.36H10.62V60.284H5.748V59.36ZM10.164 56.972H11.076V61.916C11.076 62.336 11.016 62.612 10.776 62.78C10.536 62.948 10.236 62.972 9.804 62.972C9.768 62.696 9.636 62.276 9.516 62.024C9.756 62.024 9.972 62.024 10.056 62.024C10.128 62.024 10.164 62 10.164 61.892V56.972ZM7.008 57.32H7.824V62.792H7.008V57.32ZM8.592 57.32H9.396V62.792H8.592V57.32ZM8.076 51.764L8.892 52.124C8.028 53.756 6.66 55.328 5.388 56.312C5.22 56.036 4.932 55.688 4.668 55.46C5.928 54.62 7.308 53.192 8.076 51.764ZM8.544 52.4C9.576 53.648 10.68 54.596 11.748 55.352C11.484 55.568 11.172 55.94 11.004 56.24C9.888 55.328 8.82 54.284 7.692 52.808L8.544 52.4ZM0.576 53.096H5.016V54.068H0.576V53.096ZM0.456 60.092H5.004V61.064H0.456V60.092ZM2.292 51.884H3.312V55.304H2.292V51.884ZM2.412 55.268H3.204V58.688H3.312V62.996H2.304V58.688H2.412V55.268ZM1.632 57.44V58.424H3.948V57.44H1.632ZM1.632 55.688V56.66H3.948V55.688H1.632ZM0.792 54.872H4.812V59.252H0.792V54.872ZM13.884 58.472C14.424 58.172 15.216 57.644 15.996 57.092L16.308 57.764C15.66 58.328 15 58.892 14.4 59.396L13.884 58.472ZM13.836 55.196L14.508 54.704C15.012 55.16 15.6 55.748 15.888 56.144L15.168 56.732C14.892 56.324 14.316 55.664 13.836 55.196ZM18.372 61.496H22.404V62.492H18.372V61.496ZM17.664 58.064H22.908V62.996H21.816V59.072H18.708V63.008H17.664V58.064ZM20.592 54.044L21.492 53.588C22.356 54.632 23.244 56.036 23.64 56.972L22.668 57.5C22.308 56.54 21.432 55.088 20.592 54.044ZM17.304 57.236C17.256 56.996 17.064 56.468 16.944 56.18C17.196 56.12 17.424 55.844 17.724 55.412C18.024 55.004 18.972 53.396 19.548 51.872L20.7 52.196C19.968 53.84 18.996 55.484 18.084 56.624V56.636C18.084 56.636 17.304 57.008 17.304 57.236ZM17.304 57.236L17.28 56.312L17.928 55.928L22.776 55.604C22.824 55.928 22.932 56.372 23.004 56.612C18.324 57.008 17.724 57.056 17.304 57.236ZM13.524 52.304H16.128V53.336H13.524V52.304ZM13.008 52.304H14.016V56.636C14.016 58.52 13.908 61.232 13.164 63.008C12.96 62.852 12.504 62.6 12.252 62.504C12.96 60.824 13.008 58.412 13.008 56.648V52.304ZM15.648 52.304H16.68V61.664C16.68 62.204 16.584 62.528 16.272 62.72C15.948 62.9 15.492 62.924 14.736 62.924C14.712 62.636 14.58 62.144 14.436 61.856C14.892 61.868 15.324 61.868 15.456 61.868C15.6 61.856 15.648 61.808 15.648 61.652V52.304ZM26.592 55.568H33.432V56.66H26.592V55.568ZM29.988 58.4H34.032V59.456H29.988V58.4ZM29.388 56.12H30.576V62.072L29.388 61.928V56.12ZM26.568 57.452L27.72 57.572C27.396 60.008 26.664 61.856 25.296 63.044C25.116 62.84 24.636 62.456 24.372 62.288C25.704 61.28 26.328 59.588 26.568 57.452ZM27.396 58.964C28.212 61.304 30 61.688 32.304 61.7C32.832 61.7 34.872 61.7 35.556 61.676C35.388 61.952 35.196 62.492 35.136 62.828H32.244C29.412 62.828 27.504 62.276 26.472 59.3L27.396 58.964ZM24.924 53.192H35.076V55.988H33.912V54.272H26.04V55.988H24.924V53.192ZM29.016 52.088L30.144 51.776C30.432 52.256 30.732 52.892 30.852 53.324L29.664 53.684C29.568 53.276 29.292 52.604 29.016 52.088ZM40.392 53.984H47.004V55.088H40.392V53.984ZM41.136 55.904L42.168 55.664C42.552 57.308 42.912 59.432 43.032 60.656L41.916 60.968C41.82 59.72 41.484 57.548 41.136 55.904ZM45.192 55.592L46.392 55.784C46.044 57.788 45.516 60.272 45.048 61.844L44.064 61.628C44.508 60.032 44.988 57.452 45.192 55.592ZM39.912 61.436H47.46V62.528H39.912V61.436ZM42.744 52.028L43.824 51.752C44.052 52.34 44.304 53.096 44.436 53.612L43.308 53.936C43.212 53.42 42.96 52.628 42.744 52.028ZM39.288 51.92L40.356 52.256C39.576 54.296 38.34 56.384 37.032 57.74C36.924 57.464 36.6 56.852 36.408 56.588C37.548 55.46 38.64 53.696 39.288 51.92ZM38.04 55.112L39.168 53.972L39.18 53.984V62.996H38.04V55.112Z" fill="white"/>
<g clip-path="url(#clip0_186_8)">
<g clip-path="url(#clip1_186_8)">
<path d="M33.8132 29.5577C31.4852 29.5577 29.5905 31.4521 29.5905 33.7787C29.5905 36.1063 31.4852 37.9993 33.8132 37.9993C36.139 37.9993 38.0342 36.1037 38.0342 33.7787C38.0346 31.4512 36.1412 29.5577 33.8132 29.5577ZM33.8132 36.5669C32.2738 36.5669 31.022 35.3152 31.022 33.7758C31.022 32.2376 32.2738 30.9867 33.8132 30.9867C35.3522 30.9867 36.6022 32.2376 36.6022 33.7758C36.604 35.3156 35.3522 36.5669 33.8132 36.5669Z" fill="white"/>
<path d="M25.4328 27.4036H30.4381V26.672H33.1C36.9713 26.672 38.9953 23.9181 38.9953 20.5216C38.9953 18.1037 37.964 16.0189 35.9768 15.0141C35.4305 10.9571 33.192 8.00024 30.4385 8.00024H17.5644C14.8079 8.00024 12.5716 10.9562 12.0228 15.0133C10.0351 16.0172 9.00385 18.1037 9.00385 20.5216C9.00385 22.3795 9.61345 24.0427 10.7967 25.169V29.003H15.5674V26.6712H17.5623V27.4015H22.568V36.8054H20.1463V37.7575H27.8524V36.8054H25.4307V27.4036H25.4328ZM28.3302 14.372C28.3302 13.2089 29.2745 12.2641 30.4364 12.2641C31.5987 12.2641 32.5439 13.2089 32.5439 14.372H28.3302ZM30.2801 19.9377C30.2801 20.2018 30.0669 20.415 29.8037 20.415H18.1946C17.9309 20.415 17.7164 20.2018 17.7164 19.9377C17.7164 19.6735 17.9305 19.4599 18.1946 19.4599H29.8041C30.0669 19.4599 30.2801 19.6735 30.2801 19.9377ZM35.8111 20.5216C35.8111 21.6265 34.9155 22.5204 33.8132 22.5204C32.7096 22.5204 31.8131 21.6265 31.8131 20.5216C31.8131 19.4175 32.7096 18.5228 33.8132 18.5228C34.916 18.5228 35.8111 19.4175 35.8111 20.5216ZM14.1859 22.5204C13.0827 22.5204 12.188 21.6265 12.188 20.5216C12.188 19.4175 13.084 18.5228 14.1859 18.5228C15.29 18.5228 16.1856 19.418 16.1856 20.5216C16.1856 21.6265 15.2908 22.5204 14.1859 22.5204ZM14.8996 14.372C14.4287 14.372 13.9864 14.414 13.5695 14.4919C14.1607 11.5821 15.7485 9.43222 17.5636 9.43222H30.4364C32.2489 9.43222 33.8367 11.5821 34.4284 14.4919C34.1317 14.4358 33.8192 14.4058 33.4947 14.3887C33.4947 14.3823 33.4968 14.3767 33.4968 14.3707C33.4968 12.6819 32.1239 11.309 30.4347 11.309C28.7471 11.309 27.3742 12.6827 27.3742 14.3707L14.8996 14.372ZM18.1946 22.1646C17.9309 22.1646 17.7164 21.9518 17.7164 21.6877C17.7164 21.4236 17.9305 21.2108 18.1946 21.2108H29.8041C30.0674 21.2108 30.2806 21.4236 30.2806 21.6877C30.2806 21.9518 30.0674 22.1646 29.8041 22.1646H18.1946Z" fill="white"/>
</g>
</g>
<rect x="1.5" y="0.5" width="44" height="44" rx="4.5" stroke="white"/>
<defs>
<clipPath id="clip0_186_8">
<rect width="30" height="30" fill="white" transform="translate(9 8)"/>
</clipPath>
<clipPath id="clip1_186_8">
<rect width="30" height="30" fill="white" transform="translate(9 8)"/>
</clipPath>
</defs>
</svg>
