<svg width="48" height="71" viewBox="0 0 48 71" fill="none" xmlns="http://www.w3.org/2000/svg">
<path d="M2.592 55.568H9.432V56.66H2.592V55.568ZM5.988 58.4H10.032V59.456H5.988V58.4ZM5.388 56.12H6.576V62.072L5.388 61.928V56.12ZM2.568 57.452L3.72 57.572C3.396 60.008 2.664 61.856 1.296 63.044C1.116 62.84 0.636 62.456 0.372 62.288C1.704 61.28 2.328 59.588 2.568 57.452ZM3.396 58.964C4.212 61.304 6 61.688 8.304 61.7C8.832 61.7 10.872 61.7 11.556 61.676C11.388 61.952 11.196 62.492 11.136 62.828H8.244C5.412 62.828 3.504 62.276 2.472 59.3L3.396 58.964ZM0.924 53.192H11.076V55.988H9.912V54.272H2.04V55.988H0.924V53.192ZM5.016 52.088L6.144 51.776C6.432 52.256 6.732 52.892 6.852 53.324L5.664 53.684C5.568 53.276 5.292 52.604 5.016 52.088ZM19.344 52.448H22.572V53.48H19.344V52.448ZM19.344 55.184H22.572V56.192H19.344V55.184ZM19.332 57.956H22.596V58.976H19.332V57.956ZM22.08 52.448H23.172V61.676C23.172 62.276 23.052 62.6 22.668 62.78C22.296 62.96 21.708 62.984 20.82 62.984C20.784 62.684 20.628 62.18 20.484 61.892C21.06 61.916 21.66 61.916 21.84 61.904C22.008 61.904 22.08 61.844 22.08 61.664V52.448ZM18.876 52.448H19.944V56.828C19.944 58.7 19.788 61.352 18.732 63.056C18.552 62.852 18.084 62.516 17.832 62.408C18.792 60.836 18.876 58.556 18.876 56.828V52.448ZM12.564 53.396H18.372V54.392H12.564V53.396ZM14.04 55.304H17.004V56.192H14.04V55.304ZM14.04 57.188H17.016V58.076H14.04V57.188ZM12.408 59.108H18.336V60.116H12.408V59.108ZM13.548 52.016H14.58V59.492H13.548V52.016ZM16.464 52.016H17.508V59.492H16.464V52.016ZM14.004 60.296L15.084 60.608C14.64 61.508 13.944 62.432 13.296 63.032C13.08 62.84 12.636 62.516 12.372 62.36C13.032 61.844 13.656 61.064 14.004 60.296ZM15.756 60.74L16.62 60.272C17.1 60.812 17.676 61.544 17.94 62.036L17.016 62.576C16.788 62.096 16.224 61.304 15.756 60.74ZM31.092 56.048H32.232V63.02H31.092V56.048ZM27.744 57.656H35.508V58.688H27.744V57.656ZM29.664 53.432V55.376H33.72V53.432H29.664ZM28.584 52.424H34.86V56.384H28.584V52.424ZM27.204 51.908L28.26 52.244C27.456 54.272 26.184 56.348 24.864 57.692C24.756 57.428 24.444 56.816 24.24 56.552C25.404 55.436 26.532 53.684 27.204 51.908ZM25.932 55.1L27.012 54.02L27.024 54.032V62.984H25.932V55.1ZM29.376 59.18L30.396 59.492C29.868 60.524 29.088 61.7 28.44 62.444C28.236 62.276 27.816 61.964 27.552 61.82C28.212 61.124 28.92 60.104 29.376 59.18ZM32.784 59.648L33.636 59.18C34.368 59.996 35.196 61.088 35.592 61.808L34.68 62.372C34.308 61.64 33.492 60.476 32.784 59.648ZM37.356 53.036H46.632V53.816H37.356V53.036ZM37.956 54.32H46.02V55.04H37.956V54.32ZM36.684 55.568H47.316V56.36H36.684V55.568ZM39.444 59.036H44.34V59.6H39.444V59.036ZM41.388 53.492H42.564V56.168H41.388V53.492ZM38.916 52.208L39.924 51.884C40.236 52.244 40.56 52.76 40.728 53.072L39.684 53.48C39.528 53.144 39.192 52.604 38.916 52.208ZM43.98 51.86L45.204 52.124C44.88 52.604 44.544 53.072 44.268 53.384L43.296 53.108C43.536 52.748 43.824 52.22 43.98 51.86ZM44.172 55.712C44.856 56.78 46.224 57.728 47.652 58.16C47.412 58.376 47.088 58.772 46.92 59.048C45.444 58.496 44.052 57.344 43.272 56.036L44.172 55.712ZM39.576 57.896H45.192V60.752H39.576V60.104H44.052V58.544H39.576V57.896ZM39.72 55.724L40.776 56.036C39.96 57.404 38.52 58.532 37.092 59.216C36.936 59.012 36.552 58.592 36.312 58.4C37.704 57.824 39.036 56.876 39.72 55.724ZM40.26 56.816H43.74V57.416H40.26V56.816ZM38.544 63.056L38.508 62.252L38.928 61.892L41.724 61.316C41.724 61.58 41.76 61.964 41.796 62.168C39.18 62.78 38.784 62.9 38.544 63.056ZM38.544 63.056C38.472 62.792 38.244 62.324 38.064 62.12C38.292 62 38.556 61.76 38.556 61.244V57.896H39.78V61.988C39.78 61.988 38.544 62.66 38.544 63.056ZM46.2 60.248L46.932 60.836C46.104 61.304 45.048 61.772 44.244 62.06L43.728 61.58C44.508 61.244 45.576 60.668 46.2 60.248ZM41.64 61.424L42.108 60.74C43.632 61.16 45.78 61.844 46.908 62.288L46.428 63.08C45.348 62.624 43.2 61.892 41.64 61.424Z" fill="white"/>
<g clip-path="url(#clip0_186_3)">
<path d="M34.2 25.4L32 21C31.8111 20.6928 31.5462 20.4394 31.231 20.2642C30.9157 20.0891 30.5606 19.9981 30.2 20H17.8C17.4394 19.9981 17.0843 20.0891 16.769 20.2642C16.4538 20.4394 16.1889 20.6928 16 21L13.8 25.4L11.32 27.704C11.219 27.7977 11.1384 27.9112 11.0833 28.0375C11.0283 28.1639 10.9999 28.3002 11 28.438V37C11 37.2652 11.1054 37.5195 11.2929 37.7071C11.4804 37.8946 11.7348 38 12 38H16C16.4 38 17 37.6 17 37.2V36H31V37C31 37.4 31.4 38 31.8 38H36C36.2652 38 36.5196 37.8946 36.7071 37.7071C36.8946 37.5195 37 37.2652 37 37V28.438C37.0001 28.3002 36.9717 28.1639 36.9167 28.0375C36.8616 27.9112 36.781 27.7977 36.68 27.704L34.2 25.4ZM18 22H30L32 26H16L18 22ZM19 31.2C19 31.6 18.4 32 18 32H13.8C13.4 32 13 31.4 13 31V28.8C13.2 28.2 13.6 27.8 14.2 28L18.2 28.8C18.6 28.8 19 29.4 19 29.8V31.2ZM35 31C35 31.4 34.6 32 34.2 32H30C29.6 32 29 31.6 29 31.2V29.8C29 29.4 29.4 28.8 29.8 28.8L33.8 28C34.4 27.8 34.8 28.2 35 28.8V31ZM37 12V14C36.9952 14.5348 36.7783 15.0459 36.3969 15.421C36.0155 15.796 35.5009 16.0042 34.966 16H19.696C19.1601 16.7006 18.4516 17.2502 17.6398 17.595C16.828 17.9399 15.9405 18.0682 15.0643 17.9674C14.188 17.8667 13.3528 17.5403 12.6405 17.0201C11.9281 16.5 11.3629 15.8039 11 15H16V11H11C11.3629 10.196 11.9281 9.49995 12.6405 8.97982C13.3528 8.45969 14.188 8.13329 15.0643 8.03252C15.9405 7.93176 16.828 8.06007 17.6398 8.40492C18.4516 8.74977 19.1601 9.29936 19.696 9.99998H34.966C35.5009 9.99571 36.0155 10.204 36.3969 10.579C36.7783 10.954 36.9952 11.4651 37 12Z" fill="white"/>
</g>
<rect x="1.5" y="0.5" width="44" height="44" rx="4.5" stroke="white"/>
<defs>
<clipPath id="clip0_186_3">
<rect width="30" height="30" fill="white" transform="translate(9 8)"/>
</clipPath>
</defs>
</svg>
