<svg width="21" height="20" viewBox="0 0 21 20" fill="none" xmlns="http://www.w3.org/2000/svg">
<path d="M17.0553 8.13948C17.3523 8.13948 17.5915 8.3823 17.5915 8.67708C17.5915 8.97101 17.3523 9.21383 17.0553 9.21383H15.5617V10.1723H17.0553C17.3523 10.1723 17.5915 10.4134 17.5915 10.709C17.5915 11.0021 17.3523 11.2449 17.0553 11.2449H15.0247C14.7311 11.2449 14.4911 11.0021 14.4911 10.709V6.64426C14.4911 6.35033 14.7311 6.10752 15.0272 6.10752H17.0579C17.3523 6.10752 17.5915 6.35033 17.5915 6.64426C17.5915 6.9416 17.3523 7.18101 17.0553 7.18101H15.5617V8.13948H17.0553ZM13.7745 10.709C13.7745 10.9391 13.6264 11.1436 13.4068 11.2168C13.3523 11.2347 13.2936 11.2432 13.2375 11.2432C13.0579 11.2432 12.9047 11.1666 12.8034 11.0302L10.7243 8.20423V10.709C10.7243 11.0021 10.4868 11.2449 10.1872 11.2449C9.89277 11.2449 9.65447 11.0021 9.65447 10.709V6.64426C9.65447 6.41423 9.80171 6.20975 10.0204 6.13733C10.0715 6.11774 10.1362 6.10922 10.1855 6.10922C10.3515 6.10922 10.5047 6.19783 10.6068 6.32562L12.7021 9.16271V6.64426C12.7021 6.35033 12.9421 6.10752 13.2383 6.10752C13.5319 6.10752 13.7745 6.35033 13.7745 6.64426V10.709ZM8.88851 10.709C8.88851 11.0021 8.64851 11.2449 8.35149 11.2449C8.05788 11.2449 7.81788 11.0021 7.81788 10.709V6.64426C7.81788 6.35033 8.05788 6.10752 8.35405 6.10752C8.64851 6.10752 8.88851 6.35033 8.88851 6.64426V10.709ZM6.78979 11.2449H4.75915C4.46553 11.2449 4.22298 11.0021 4.22298 10.709V6.64426C4.22298 6.35033 4.46553 6.10752 4.75915 6.10752C5.05532 6.10752 5.29532 6.35033 5.29532 6.64426V10.1723H6.78979C7.08596 10.1723 7.32511 10.4134 7.32511 10.709C7.32511 11.0021 7.08511 11.2449 6.78979 11.2449ZM21 8.52373C21 3.94775 16.417 0.223755 10.7872 0.223755C5.15745 0.223755 0.574471 3.94775 0.574471 8.52373C0.574471 12.6226 4.20851 16.0569 9.1149 16.7095C9.44766 16.7794 9.90043 16.9293 10.0153 17.2122C10.1175 17.4686 10.0826 17.8648 10.0477 18.1323L9.90809 19.0014C9.86979 19.2578 9.70383 20.0118 10.8009 19.5509C11.8996 19.0917 16.6868 16.0765 18.8315 13.6083C20.2987 11.9989 21 10.3504 21 8.52373Z" fill="white"/>
</svg>
