<svg width="128" height="32" viewBox="0 0 128 32" fill="none" xmlns="http://www.w3.org/2000/svg">
<path d="M55.0815 26.0203H52.7259V27.5521H54.9937V28.2104H52.7259V30.5538H52V25.3621H55.0794L55.0815 26.0203Z" fill="white"/>
<path d="M58.6973 30.5569H57.996L57.9725 30.298C57.7074 30.5289 57.3665 30.6551 57.0142 30.6527C56.1312 30.6527 55.6893 30.1557 55.6886 29.1615V26.8639H56.375V29.284C56.375 29.7775 56.6191 30.0261 57.1073 30.0296C57.226 30.0338 57.344 30.0106 57.4521 29.9618C57.5602 29.913 57.6555 29.84 57.7305 29.7484C57.8822 29.5515 57.9582 29.307 57.9446 29.0592V26.8639H58.6235V29.6461C58.63 29.9509 58.6547 30.255 58.6973 30.5569Z" fill="white"/>
<path d="M62.1183 29.4171C62.1183 29.8432 61.9626 30.1627 61.6514 30.3758C61.3809 30.5633 61.0197 30.657 60.5679 30.657C60.116 30.657 59.7755 30.5533 59.5464 30.346C59.2866 30.1287 59.1513 29.813 59.1406 29.399H59.8269C59.8376 29.6355 59.9051 29.7981 60.0293 29.8869C60.1535 29.9756 60.3616 30.025 60.6535 30.0349C60.845 30.0406 61.033 29.9838 61.1889 29.873C61.2554 29.8294 61.3098 29.7699 61.3472 29.6999C61.3846 29.6299 61.4038 29.5518 61.403 29.4725C61.403 29.3198 61.2809 29.1892 61.0368 29.0805C60.8409 28.9952 60.6372 28.9285 60.4287 28.8813C60.1467 28.8079 59.8764 28.6957 59.6256 28.5479C59.5082 28.4704 59.4124 28.3646 59.3471 28.2404C59.2817 28.1162 59.249 27.9776 59.252 27.8375C59.2418 27.6679 59.2777 27.4987 59.3558 27.3476C59.434 27.1966 59.5516 27.0692 59.6963 26.9789C59.9738 26.8148 60.2935 26.7351 60.616 26.7499C61.5247 26.7499 61.9887 27.1373 62.008 27.912H61.3227C61.3013 27.699 61.2338 27.5488 61.1203 27.4753C60.9594 27.3925 60.7786 27.3556 60.5978 27.3688C60.1695 27.3688 59.9554 27.5158 59.9554 27.8119C59.9554 27.9259 60.0486 28.0249 60.2359 28.108C60.3797 28.1715 60.5283 28.2235 60.6803 28.2635C61.0073 28.3504 61.3256 28.467 61.6311 28.6118C61.7798 28.6874 61.9042 28.8029 61.9903 28.9452C62.0764 29.0876 62.1207 29.251 62.1183 29.4171Z" fill="white"/>
<path d="M65.5007 30.5495H64.8068V28.1443C64.8068 27.6309 64.557 27.3745 64.0573 27.3753C63.9448 27.3715 63.8331 27.3958 63.7325 27.4461C63.6319 27.4963 63.5455 27.5708 63.4813 27.6629C63.3335 27.8727 63.2584 28.1247 63.2672 28.3808V30.5495H62.5733V25.3621H63.2586V27.0664C63.5121 26.854 63.832 26.7361 64.1633 26.733C64.6987 26.733 65.0781 26.9353 65.3015 27.3401C65.4462 27.6291 65.5157 27.9495 65.5039 28.2721L65.5007 30.5495Z" fill="white"/>
<path d="M69.3745 28.8771H66.732C66.7547 29.1681 66.863 29.4459 67.0436 29.676C67.1316 29.7896 67.2454 29.8809 67.3756 29.9426C67.5059 30.0042 67.6489 30.0344 67.7931 30.0307C68.2613 30.0307 68.5468 29.8088 68.6496 29.3649H69.3595C69.3107 29.7307 69.1239 30.0643 68.837 30.298C68.5312 30.5443 68.1466 30.6728 67.7534 30.6602C67.2081 30.6602 66.7798 30.4678 66.4686 30.0829C66.1773 29.7228 66.0317 29.2591 66.0317 28.6917C66.0219 28.221 66.1642 27.7595 66.4375 27.3752C66.578 27.1751 66.7662 27.0129 66.9852 26.903C67.2042 26.7931 67.4472 26.7391 67.6924 26.7457C68.2635 26.7457 68.7024 26.9651 69.0094 27.4039C69.2735 27.7938 69.3952 28.2848 69.3745 28.8771ZM68.6571 28.238C68.6015 27.9968 68.48 27.7756 68.3059 27.5989C68.142 27.444 67.9238 27.3592 67.6978 27.3624C67.2095 27.3624 66.8979 27.6532 66.763 28.2348L68.6571 28.238Z" fill="white"/>
<path d="M72.9271 30.5421H72.2344V28.0996C72.2344 27.6117 71.9899 27.3678 71.5009 27.3678C71.3839 27.3624 71.2673 27.3844 71.1604 27.4319C71.0535 27.4795 70.9592 27.5513 70.8853 27.6416C70.7354 27.8419 70.6598 28.0877 70.6711 28.3371V30.5421H69.9773V27.7523C69.9698 27.4479 69.9445 27.1442 69.9013 26.8427H70.6176L70.6411 27.0802C70.9068 26.8577 71.2448 26.7392 71.5919 26.7468C72.1437 26.7468 72.5284 26.9492 72.7462 27.354C72.8791 27.6305 72.9431 27.9349 72.9325 28.2413L72.9271 30.5421Z" fill="white"/>
<path d="M76.8085 26.8491C76.7721 27.2489 76.7539 27.5499 76.7539 27.7523V29.365C76.7663 29.7183 76.7325 30.0717 76.6532 30.4164C76.6136 30.5795 76.5405 30.7328 76.4384 30.8664C76.3363 31.0001 76.2075 31.1112 76.06 31.1929C75.7634 31.3496 75.4323 31.4309 75.0964 31.4293C74.6681 31.4293 74.3266 31.3505 74.0674 31.1929C73.9196 31.1099 73.7977 30.9879 73.7152 30.8403C73.6326 30.6928 73.5926 30.5254 73.5995 30.3567H74.2773C74.3244 30.6628 74.5999 30.8158 75.1039 30.8158C75.227 30.8159 75.349 30.7917 75.4627 30.7447C75.5765 30.6977 75.6798 30.6289 75.7667 30.542C75.8609 30.4569 75.936 30.3529 75.9871 30.2369C76.0382 30.1209 76.0641 29.9955 76.0633 29.8688V29.8316C75.7825 30.0561 75.4331 30.1786 75.0728 30.1788C74.5482 30.1788 74.1427 30.0137 73.8565 29.6835C73.5867 29.3782 73.4518 28.9762 73.4518 28.4777C73.4518 27.9643 73.5792 27.5546 73.834 27.2485C74.1145 26.9091 74.5221 26.739 75.0568 26.7383C75.4327 26.7468 75.7939 26.8854 76.0782 27.1303L76.0857 26.8491H76.8085ZM76.0686 28.4468C76.077 28.1608 75.9799 27.8815 75.7956 27.6618C75.7093 27.5614 75.6015 27.4815 75.4802 27.4278C75.3588 27.3742 75.227 27.3482 75.0943 27.3518C74.9606 27.3448 74.8273 27.3708 74.7063 27.4275C74.5852 27.4842 74.4801 27.5698 74.4004 27.6767C74.2362 27.8936 74.1533 28.1607 74.1659 28.4319C74.1549 28.713 74.2402 28.9894 74.4079 29.2159C74.489 29.3238 74.5951 29.4105 74.7173 29.4686C74.8394 29.5267 74.974 29.5544 75.1092 29.5493C75.2437 29.5557 75.3778 29.5309 75.501 29.4769C75.6242 29.4229 75.7331 29.3412 75.8191 29.2383C75.9929 29.0121 76.0812 28.7323 76.0686 28.4479V28.4468Z" fill="white"/>
<path d="M84.8121 30.557H84.0626L83.4865 29.2095H81.1706L80.6084 30.557H79.8375L82.0121 25.3621H82.6428L84.8121 30.557ZM83.1985 28.5331L82.3216 26.3537L81.4479 28.5363L83.1985 28.5331Z" fill="white"/>
<path d="M88.233 30.5569H87.5317L87.5081 30.298C87.2417 30.5301 86.8986 30.6564 86.5445 30.6527C85.6615 30.6527 85.2196 30.1557 85.2189 29.1615V26.8639H85.9053V29.284C85.9053 29.7775 86.1494 30.0261 86.6376 30.0296C86.7564 30.0336 86.8745 30.0103 86.9828 29.9616C87.091 29.9128 87.1865 29.8399 87.2619 29.7484C87.4132 29.5513 87.4891 29.307 87.476 29.0592V26.8639H88.1548V29.6461C88.1628 29.951 88.1889 30.2551 88.233 30.5569Z" fill="white"/>
<path d="M91.0543 27.4817H90.1656L90.1581 29.5982C90.1581 29.8112 90.2698 29.9178 90.4933 29.9178H90.9612V30.5398H90.399C89.7759 30.5398 89.4643 30.2242 89.4643 29.5929L89.4718 27.4838H88.6388V26.8639H89.4889V26.2248L90.1667 25.8839V26.8681H91.0554L91.0543 27.4817Z" fill="white"/>
<path d="M94.9035 28.6993C94.9158 29.174 94.771 29.6395 94.4913 30.0244C94.3416 30.2307 94.1429 30.3971 93.913 30.5086C93.683 30.6201 93.4289 30.6733 93.1733 30.6635C92.9155 30.6733 92.6592 30.6203 92.4268 30.5088C92.1945 30.3974 91.9931 30.2311 91.8402 30.0244C91.5569 29.6409 91.409 29.175 91.4194 28.6993C91.4066 28.2255 91.5549 27.7612 91.8402 27.3816C91.9931 27.1749 92.1945 27.0086 92.4268 26.8971C92.6592 26.7857 92.9155 26.7327 93.1733 26.7425C93.428 26.7321 93.6814 26.784 93.9112 26.8938C94.141 27.0035 94.3402 27.1678 94.4913 27.372C94.7731 27.7566 94.9181 28.2236 94.9035 28.6993ZM94.1947 28.6993C94.2021 28.3807 94.1154 28.067 93.9453 27.7971C93.8651 27.6652 93.7517 27.5565 93.6163 27.4818C93.4809 27.407 93.3281 27.3688 93.1733 27.371C93.0163 27.3686 92.8614 27.4065 92.7235 27.4811C92.5856 27.5558 92.4695 27.6646 92.3863 27.7971C92.2114 28.0653 92.1219 28.3797 92.1293 28.6993C92.1214 29.0169 92.211 29.3294 92.3863 29.5951C92.467 29.731 92.5822 29.8434 92.7203 29.9212C92.8584 29.9989 93.0146 30.0393 93.1733 30.0382C93.3299 30.0391 93.4839 29.9985 93.6195 29.9206C93.7552 29.8427 93.8676 29.7304 93.9453 29.5951C94.1158 29.3277 94.2027 29.0159 94.1947 28.6993Z" fill="white"/>
<path d="M104.848 25.3621L103.422 30.5495H102.697L101.357 26.4272L100.008 30.5495H99.2989L97.8566 25.3621H98.6061L99.6972 29.4098L101.007 25.3621H101.708L103.026 29.4098L104.117 25.3621H104.848Z" fill="white"/>
<path d="M108.138 30.5569H107.42L107.412 30.3268C107.139 30.5473 106.799 30.6676 106.448 30.6677C106.128 30.6759 105.816 30.565 105.574 30.3567C105.447 30.2497 105.346 30.1156 105.279 29.9643C105.211 29.8131 105.179 29.6486 105.185 29.4832C105.174 29.2994 105.209 29.116 105.287 28.9488C105.364 28.7817 105.482 28.636 105.629 28.5245C105.882 28.3541 106.175 28.2497 106.479 28.221C106.64 28.2018 106.942 28.1922 107.383 28.1922V27.9792C107.383 27.5531 107.159 27.3401 106.712 27.3401C106.474 27.3401 106.308 27.3763 106.214 27.4466C106.1 27.5307 106.031 27.683 106.011 27.9057H105.302C105.308 27.7338 105.351 27.5651 105.429 27.4117C105.507 27.2582 105.618 27.1236 105.754 27.0173C106.036 26.822 106.374 26.7233 106.718 26.7361C107.611 26.7361 108.058 27.148 108.058 27.9717V29.6366C108.057 29.9451 108.084 30.2531 108.138 30.5569ZM107.376 28.8175C107.148 28.8175 107.005 28.8175 106.948 28.8249C106.234 28.8498 105.877 29.0692 105.877 29.4832C105.875 29.5582 105.889 29.6328 105.919 29.7018C105.948 29.7708 105.993 29.8325 106.049 29.8826C106.179 29.9933 106.346 30.0515 106.517 30.0456C107.09 30.0456 107.376 29.6362 107.376 28.8175Z" fill="white"/>
<path d="M110.685 27.4412C110.557 27.4085 110.427 27.3864 110.295 27.3752C109.828 27.3752 109.594 27.6685 109.594 28.255V30.5494H108.9V27.7597C108.892 27.4623 108.866 27.1656 108.822 26.8713H109.518L109.534 27.0844C109.762 26.8618 109.962 26.751 110.142 26.751C110.249 26.751 110.433 26.7584 110.687 26.7733L110.685 27.4412Z" fill="white"/>
<path d="M113.069 27.4412C112.941 27.4085 112.811 27.3864 112.68 27.3752C112.212 27.3752 111.978 27.6685 111.978 28.255V30.5494H111.284V27.7597C111.276 27.4623 111.25 27.1656 111.206 26.8713H111.9L111.916 27.0844C112.144 26.8618 112.344 26.751 112.524 26.751C112.631 26.751 112.814 26.7584 113.069 26.7733V27.4412Z" fill="white"/>
<path d="M116.39 30.5569H115.672L115.665 30.3268C115.392 30.5469 115.052 30.6672 114.701 30.6677C114.381 30.6756 114.07 30.5647 113.828 30.3567C113.701 30.2499 113.6 30.1158 113.533 29.9645C113.465 29.8132 113.433 29.6486 113.439 29.4832C113.428 29.2994 113.463 29.1158 113.541 28.9487C113.618 28.7815 113.736 28.6358 113.883 28.5245C114.136 28.3541 114.428 28.2497 114.732 28.221C114.893 28.2018 115.194 28.1922 115.637 28.1922V27.9792C115.637 27.5531 115.413 27.3401 114.967 27.3401C114.727 27.3401 114.561 27.3763 114.468 27.4466C114.353 27.5307 114.286 27.683 114.264 27.9057H113.555C113.561 27.7338 113.605 27.5653 113.683 27.4119C113.761 27.2584 113.872 27.1238 114.007 27.0173C114.289 26.822 114.628 26.7233 114.971 26.7361C115.865 26.7361 116.311 27.148 116.311 27.9717V29.6366C116.31 29.9451 116.336 30.2531 116.39 30.5569ZM115.634 28.8175C115.405 28.8175 115.262 28.8175 115.205 28.8249C114.492 28.8498 114.135 29.0692 114.135 29.4832C114.132 29.5582 114.146 29.6328 114.176 29.7018C114.205 29.7708 114.25 29.8325 114.306 29.8826C114.436 29.9932 114.603 30.0513 114.774 30.0456C115.347 30.0456 115.634 29.6362 115.634 28.8175Z" fill="white"/>
<path d="M120.029 30.542H119.335V28.0996C119.335 27.6117 119.091 27.3678 118.603 27.3678C118.486 27.3622 118.369 27.3841 118.262 27.4316C118.155 27.4792 118.06 27.5511 117.986 27.6415C117.837 27.8421 117.761 28.0877 117.772 28.3371V30.542H117.078V27.7523C117.07 27.4475 117.044 27.1434 117 26.8416H117.717L117.74 27.0791C118.006 26.8565 118.344 26.7379 118.692 26.7457C119.242 26.7457 119.626 26.9481 119.845 27.3529C119.978 27.6293 120.042 27.9337 120.032 28.2402L120.029 30.542Z" fill="white"/>
<path d="M122.849 27.4817H121.96L121.953 29.5982C121.953 29.8112 122.06 29.9178 122.288 29.9178H122.756V30.5398H122.195C121.572 30.5398 121.26 30.2242 121.259 29.5929L121.268 27.4838H120.439V26.8639H121.288V26.2248L121.966 25.8839V26.8681H122.855L122.849 27.4817Z" fill="white"/>
<path d="M126.707 26.849L124.78 31.4293H124.03L124.513 30.4163L123.056 26.849H123.797L124.879 29.6185L125.979 26.849H126.707Z" fill="white"/>
<path d="M16.8166 0.774387H20.3093V3.66636H16.8166V2.92073H3.49481V3.66636H0V0.774387H8.44794V0H11.9406V0.770128L16.8166 0.774387ZM0.588893 18.3744V12.3029H19.7236V18.3957C19.7101 19.7549 19.027 20.4345 17.6743 20.4345H0.588893V18.3744ZM0.672412 9.59517V6.51679H19.6401V9.53339C19.6251 10.8926 18.942 11.5721 17.5908 11.5721H0.673477V9.59517H0.672412ZM19.3885 4.26925V5.75199H0.902612V4.26925H19.3885ZM8.45115 15.3386V14.3608H4.08049V15.3386H8.45115ZM4.08049 17.3145V18.3797H8.45115V17.3145H4.08049ZM15.6249 9.59623C15.9729 9.59623 16.1474 9.42367 16.1474 9.07642V8.49377H4.16401V9.59623H15.6249ZM16.231 15.3386V14.3608H11.9481V15.3386H16.231ZM11.9481 17.3145V18.3797H15.7127C16.0607 18.3797 16.2352 18.2072 16.2352 17.8599V17.3188L11.9481 17.3145Z" fill="white"/>
<path d="M24.9091 18.3542C24.8948 19.7133 24.2117 20.3929 22.8597 20.3929H21.7098L21.2494 17.584H21.3961C21.7444 17.584 21.9186 17.4108 21.9186 17.0642V0.3579H29.1759V18.3542C29.1623 19.7133 28.4792 20.3929 27.1265 20.3929H25.892L25.4327 17.584H25.6629C26.0112 17.584 26.1854 17.4108 26.1854 17.0642V14.4865H24.9091V18.3542ZM26.1854 5.93413V3.16466H24.9091V5.93413H26.1854ZM26.1854 11.6755V8.74302H24.9091V11.6755H26.1854ZM41.1754 18.3542C41.1611 19.7133 40.478 20.3929 39.126 20.3929H36.5992L36.1398 17.7513H37.248C37.5963 17.7513 37.7705 17.5776 37.7705 17.2304V14.9839H36.2233L35.052 18.9155C34.7308 19.9012 34.0198 20.3936 32.9191 20.3929H30.5346L30.0335 17.7513H31.4972C31.9012 17.7513 32.151 17.5571 32.2467 17.1686L32.8891 14.9839H30.3472V12.4871H29.9489L29.4446 10.1778H30.0721C30.434 10.1778 30.6638 9.9836 30.7616 9.59517L30.9918 8.90919H29.9211V6.26647H31.8655L32.493 4.49827H31.949C31.7677 4.83131 31.51 4.99784 31.176 4.99784H30.0753L29.6149 2.68852H29.9489C30.1588 2.68852 30.2705 2.55679 30.2841 2.29334L30.7027 0.837232H32.8559L32.5422 2.02385H33.3378L34.0487 0H37.3679L36.6623 2.02385H38.8369L38.565 0.838298H40.7193L41.0544 2.04409C41.0815 2.36364 41.1861 2.52342 41.3681 2.52342H41.7236V4.83273H40.322C39.9594 4.83273 39.6874 4.7216 39.5061 4.49933H39.3809L39.883 6.26754H41.7236V8.91026H40.6143L40.8445 9.72086C40.928 10.0269 41.1443 10.1796 41.4934 10.1789H41.8071V12.4882H41.1797L41.1754 18.3542ZM37.4525 8.90919H34.2778L33.5465 11.0939C33.3795 11.5924 33.1183 11.9535 32.7724 12.175H33.7768L34.2157 10.7402H37.5403L37.081 12.175H38.8584C38.4536 11.8846 38.1681 11.4202 38.0018 10.7818L37.4525 8.90919ZM36.2191 4.49827H35.8047L35.1772 6.26647H36.7041L36.2191 4.49827Z" fill="white"/>
<path d="M48.164 12.321L47.014 18.5416C46.8049 19.7758 46.0661 20.3929 44.7976 20.3929H43.0845L42.5823 17.584H43.2729C43.5792 17.5698 43.7605 17.3689 43.8169 16.9811L44.6734 12.321H48.164ZM46.6585 1.9397C46.756 2.27203 47.0001 2.43927 47.3909 2.43927H47.9969V5.24709H45.6125C44.5532 5.2336 43.8561 4.59449 43.5213 3.32976L42.7901 0.251382H46.1981L46.6585 1.9397ZM46.8256 7.68103C46.9227 8.01479 47.1668 8.18131 47.5579 8.1806H47.9969V10.9895H45.7806C44.7206 10.9753 44.0235 10.3362 43.6895 9.07216L42.9571 6.15995H46.362L46.8256 7.68103ZM48.9381 5.24709L48.4359 2.60544H48.7079C49.3353 2.59194 49.7397 2.39063 49.921 2.00148L50.859 0H54.3506L53.828 1.14507H63.1347V3.86981H52.5946C52.3012 4.41092 51.9443 4.79226 51.5239 5.01382H62.5447V7.49037H49.5784V5.24283L48.9381 5.24709ZM56.6751 11.406H49.1683V8.59709H62.6978V11.031L62.6561 11.0513L54.6257 16.6477C54.0397 17.2719 54.3395 17.584 55.5251 17.584H63.2214V20.3929H51.1802C50.0224 20.3929 49.2904 19.9281 48.9841 18.9986C48.6779 18.069 48.8242 17.2854 49.4231 16.6477L56.6751 11.406Z" fill="white"/>
<path d="M64.1412 19.2692V16.5444H72.694V15.4004H64.6637V4.8551H72.694V3.74944H64.3082V1.10779H72.694V0H76.1867V1.10779H84.4676V3.74944H76.1867V4.85191H84.1336V13.3606C84.12 14.7212 83.4369 15.4011 82.0842 15.4004H76.1867V16.5444H84.6357V19.2692H76.1867V20.3929H72.694V19.2692H64.1412ZM72.694 7.49462H68.1564V8.92943H72.694V7.49462ZM72.694 11.406H68.1564V12.7577H72.694V11.406ZM76.1867 8.92943H80.6409V7.49462H76.1867V8.92943ZM76.1867 12.7577H80.1184C80.4667 12.7577 80.6409 12.5844 80.6409 12.2379V11.406H76.1867V12.7577Z" fill="white"/>
<path d="M85.8274 8.99224L85.3253 6.18335H85.7021C86.1197 6.18335 86.3774 5.97529 86.4752 5.55916L87.835 0.0883789H91.332L89.5332 7.07811H90.2441V20.3929H86.7514V8.99544L85.8274 8.99224ZM95.9285 13.3148L95.2797 18.0591C95.057 19.223 94.2903 19.8053 92.9798 19.806H91.5996L91.0975 16.9971H91.787C92.094 16.9829 92.2753 16.8029 92.3309 16.457L92.7699 13.3148H95.9285ZM91.4947 12.3561V9.63668H96.8686V8.20188H92.3524V0.399414H105.129V6.16312C105.116 7.52229 104.433 8.20188 103.08 8.20188H100.361V9.63668H105.882V12.3625H100.361V20.3929H96.8686V12.3625L91.4947 12.3561ZM101.114 5.46968C101.463 5.46968 101.638 5.29641 101.638 4.94987V3.12522H95.844V5.47607L101.114 5.46968ZM104.92 16.4965C105.017 16.8288 105.262 16.995 105.653 16.995H105.798V19.8124H103.959C102.888 19.8124 102.184 19.1882 101.846 17.9398L101.302 13.3148H104.628L104.92 16.4965Z" fill="white"/>
<path d="M107.409 8.65888L106.907 5.85106H106.949C107.367 5.85106 107.625 5.64299 107.722 5.22686L108.831 0.0884196H112.323L110.797 6.66166H111.404V20.3929H107.911V8.65888H107.409ZM114.583 2.91755V18.1497H112.261V2.91755H114.583ZM123.362 6.30802L124.282 7.05365C124.616 7.35971 125.062 7.51239 125.621 7.51168H127.461V9.98717H124.868C123.891 9.97438 123.083 9.71093 122.442 9.1968L121.397 8.23814L120.622 9.0072C120.079 9.66051 119.34 9.98645 118.406 9.98503H115.603L115.102 7.51487H117.068C117.457 7.50103 117.743 7.38386 117.924 7.16123L119.137 6.16316L117.946 5.05963C117.571 5.24969 117.153 5.34273 116.733 5.33018H115.603L115.102 2.68853H115.316C115.721 2.68853 115.971 2.49431 116.065 2.10588L116.693 0.00427246H120.019L119.705 1.02365H127.463V3.66637H126.103L123.362 6.30802ZM122.86 10.0745L121.103 12.4871C120.574 13.0702 119.842 13.3613 118.907 13.3606H116.016L115.514 11.3016H118.066C118.401 11.3016 118.638 11.1976 118.777 10.9895L119.526 10.0745H122.86ZM126.039 11.9045L123.027 15.8787C122.498 16.4752 121.766 16.7734 120.831 16.7734H116.108L115.606 14.5472H119.831C120.18 14.5472 120.423 14.4361 120.562 14.2138L122.55 11.9045H126.039ZM127.461 15.8158L124.805 19.4982C124.261 20.0947 123.522 20.3929 122.588 20.3929H116.108L115.606 18.0836H121.587C121.95 18.0836 122.201 17.9771 122.337 17.7715L123.967 15.8158H127.461ZM118.907 3.66637L118.865 3.85384C118.778 4.1102 118.659 4.35462 118.51 4.58136H121.041L122.128 3.66637H118.907Z" fill="white"/>
</svg>
