<svg width="21" height="30" viewBox="0 0 21 30" fill="none" xmlns="http://www.w3.org/2000/svg">
<path d="M19.4754 5.91172C20.9668 9.12441 20.6284 12.9062 18.9771 15.9797C17.6222 18.5013 15.6005 20.5869 13.9343 22.8954C13.1726 23.9523 12.4035 25.0511 11.8805 26.2547C11.707 26.655 11.5569 27.0652 11.4093 27.4767C11.2604 27.8869 11.1336 28.3057 10.9909 28.7184C10.8567 29.1052 10.7005 29.561 10.2193 29.5647H10.2107C9.63728 29.5634 9.49823 28.9118 9.35548 28.472C9.00601 27.3954 8.64054 26.3618 8.10156 25.3616C7.47399 24.1987 6.6926 23.1233 5.8989 22.0713L19.4754 5.91172ZM5.96166 9.4915L1.08996 15.2899C1.98087 17.1869 3.33077 18.8167 4.62283 20.439C4.92677 20.8209 5.23072 21.2053 5.52974 21.5921L11.6627 14.2933L11.6271 14.3056C9.48469 15.046 7.08514 13.9471 6.22253 11.8579C6.10453 11.5743 6.01828 11.2785 5.96535 10.9759C5.88783 10.4376 5.8706 10.0384 5.96043 9.50013L5.96166 9.4915ZM2.20482 3.87915L2.20113 3.88408C-0.194727 6.92184 -0.605727 11.1274 0.82662 14.6875L6.71475 7.67944L6.64338 7.61784L2.20482 3.87915ZM13.4876 0.537111L8.76482 6.15809C8.77569 6.15344 8.78678 6.14933 8.79805 6.14577C10.7669 5.46702 12.9856 6.33055 13.9909 8.14878C14.2075 8.54174 14.3884 8.99014 14.4548 9.43607C14.5385 9.98548 14.5594 10.3883 14.4696 10.9389L14.4659 10.9586L19.1863 5.34013C17.9527 3.08786 15.9249 1.37671 13.4987 0.540807L13.4876 0.537111ZM7.09498 7.22858L12.8736 0.3511L12.8158 0.336318C11.9607 0.111313 11.0801 -0.00172892 10.1959 1.99855e-05C8.76434 0.0134433 7.35097 0.32306 6.0446 0.909425C4.73824 1.49579 3.5671 2.34623 2.60475 3.40735L2.58506 3.42952L7.09498 7.22858Z" fill="white"/>
</svg>
