<svg width="35" height="33" viewBox="0 0 35 33" fill="none" xmlns="http://www.w3.org/2000/svg">
<path d="M27.5977 13.898C28.0878 13.898 28.4824 14.2982 28.4824 14.7841C28.4824 15.2685 28.0878 15.6688 27.5977 15.6688H25.1332V17.2485H27.5977C28.0878 17.2485 28.4824 17.646 28.4824 18.1332C28.4824 18.6163 28.0878 19.0165 27.5977 19.0165H24.2471C23.7627 19.0165 23.3666 18.6163 23.3666 18.1332V11.4335C23.3666 10.9491 23.7627 10.5488 24.2513 10.5488H27.6019C28.0878 10.5488 28.4824 10.9491 28.4824 11.4335C28.4824 11.9236 28.0878 12.3182 27.5977 12.3182H25.1332V13.898H27.5977ZM22.1843 18.1332C22.1843 18.5124 21.9399 18.8494 21.5776 18.9702C21.4878 18.9997 21.3909 19.0137 21.2982 19.0137C21.0019 19.0137 20.7491 18.8873 20.582 18.6626L17.1514 14.0047V18.1332C17.1514 18.6163 16.7596 19.0165 16.2653 19.0165C15.7795 19.0165 15.3863 18.6163 15.3863 18.1332V11.4335C15.3863 11.0544 15.6292 10.7174 15.9901 10.598C16.0744 10.5657 16.1811 10.5517 16.2625 10.5517C16.5364 10.5517 16.7891 10.6977 16.9576 10.9083L20.4149 15.5845V11.4335C20.4149 10.9491 20.8109 10.5488 21.2996 10.5488C21.7841 10.5488 22.1843 10.9491 22.1843 11.4335V18.1332ZM14.1224 18.1332C14.1224 18.6163 13.7264 19.0165 13.2364 19.0165C12.7519 19.0165 12.3559 18.6163 12.3559 18.1332V11.4335C12.3559 10.9491 12.7519 10.5488 13.2406 10.5488C13.7264 10.5488 14.1224 10.9491 14.1224 11.4335V18.1332ZM10.6595 19.0165H7.30899C6.82452 19.0165 6.42431 18.6163 6.42431 18.1332V11.4335C6.42431 10.9491 6.82452 10.5488 7.30899 10.5488C7.79767 10.5488 8.19367 10.9491 8.19367 11.4335V17.2485H10.6595C11.1482 17.2485 11.5428 17.646 11.5428 18.1332C11.5428 18.6163 11.1468 19.0165 10.6595 19.0165ZM34.1064 14.5313C34.1064 6.98906 26.5445 0.851059 17.2553 0.851059C7.96618 0.851059 0.404266 6.98906 0.404266 14.5313C0.404266 21.2872 6.40044 26.9477 14.496 28.0234C15.045 28.1385 15.7921 28.3857 15.9817 28.8519C16.1502 29.2746 16.0926 29.9276 16.035 30.3685L15.8047 31.8008C15.7415 32.2235 15.4677 33.4663 17.2778 32.7066C19.0907 31.9497 26.9896 26.98 30.5284 22.9119C32.9493 20.2593 34.1064 17.542 34.1064 14.5313Z" fill="#E11B22"/>
</svg>
