<svg width="180" height="46" viewBox="0 0 180 46" fill="none" xmlns="http://www.w3.org/2000/svg">
<g clip-path="url(#clip0_9_9)">
<path d="M47.074 27.0482C47.1157 26.8351 47.1553 26.6146 47.1907 26.3963C47.3895 25.1831 47.4897 23.9559 47.4905 22.7267V22.5638C47.4905 21.8863 47.4562 21.2184 47.3984 20.557C46.9411 17.5097 45.635 14.6508 43.6282 12.3042C41.6213 9.95751 38.9939 8.21696 36.0437 7.27973C33.0934 6.34249 29.9383 6.24604 26.9358 7.0013C23.9333 7.75656 21.2034 9.33334 19.0555 11.553C20.5159 10.957 22.0812 10.6571 23.6596 10.671C30.5378 10.671 35.2051 16.292 35.2051 22.7267V22.8897C35.2051 29.3245 30.9479 34.7835 23.8234 34.7835C21.7641 34.7999 19.7398 34.2539 17.9709 33.2049C16.3021 32.1984 14.9205 30.7832 13.9578 29.0944C12.8812 26.7776 12.3244 24.2555 12.3261 21.7031C12.3261 21.5572 12.3335 21.4144 12.3378 21.2696C12.3584 20.4963 12.43 19.7252 12.552 18.9613C12.552 18.9613 7.22196 44.6162 37.1206 41.6209C42.2879 38.3082 45.9004 33.1069 47.074 27.0482Z" fill="url(#paint0_linear_9_9)"/>
<path d="M32.4876 40.4418C25.4466 40.4418 20.2922 38.5064 17.1668 34.6898C17.0033 34.4896 16.847 34.2868 16.6978 34.0816C16.8741 34.2009 17.0526 34.3152 17.2332 34.4246C19.2187 35.6091 21.4944 36.2254 23.8095 36.2056C31.2328 36.2056 36.6088 30.6059 36.6088 22.8908V22.7278C36.6088 15.5229 31.4405 9.80502 24.6532 9.2884C26.787 8.31357 29.1193 7.84508 31.4661 7.91984C33.8129 7.9946 36.1103 8.61057 38.177 9.7192C40.2437 10.8278 42.0234 12.3988 43.3758 14.3084C44.7282 16.218 45.6163 18.4139 45.9701 20.7231C46.0258 21.3804 46.0482 21.9822 46.0482 22.5638V22.7267C46.0496 23.8794 45.9576 25.0304 45.7731 26.1684C45.7431 26.358 45.7099 26.5582 45.666 26.7798C45.131 29.5687 44.0236 32.2179 42.4132 34.562C40.8722 36.8079 38.9088 38.7358 36.6313 40.2394C35.1901 40.3779 33.7982 40.4418 32.4876 40.4418Z" fill="url(#paint1_linear_9_9)"/>
<path d="M12.5541 18.9613C13.8786 10.5123 21.2162 4.04876 30.0807 4.04876C30.2723 4.04876 30.4608 4.06048 30.6513 4.06687C33.4192 4.15279 36.1283 4.88282 38.5614 6.19841C40.9944 7.514 43.0837 9.37853 44.6617 11.6424C40.7514 4.67828 33.1119 0 23.8245 0C16.125 0 9.54114 3.22964 5.25828 8.29032C1.84209 12.331 -0.0213181 17.4469 -2.23634e-06 22.7267V22.8897C-2.23634e-06 35.4344 10.0701 45.4545 23.6628 45.4545C28.7519 45.4545 33.3496 44.0389 37.1206 41.6199C7.22197 44.6162 12.5498 18.9677 12.5498 18.9677L12.5541 18.9613Z" fill="url(#paint2_linear_9_9)"/>
<path d="M23.6628 44.0315C17.5116 44.0315 11.8239 41.8383 7.70061 37.8534C3.63725 33.9293 1.37054 28.614 1.37054 22.8876V22.7246C1.37528 20.2295 1.82405 17.7548 2.69609 15.4153C3.53742 13.1502 4.76934 11.0483 6.33652 9.20425C8.3877 6.78461 10.954 4.84898 13.8497 3.53748C16.9163 2.1325 20.274 1.41989 23.8202 1.41989C26.4885 1.41387 29.1395 1.84574 31.6664 2.69811C31.3431 2.67184 31.0186 2.65302 30.6931 2.64166C30.6353 2.64166 30.5786 2.64166 30.5208 2.63527C30.3869 2.62994 30.2359 2.62355 30.0764 2.62355C20.607 2.62355 12.6687 9.34591 11.1569 18.6258L11.1462 18.6748C11.1248 18.7813 10.6001 21.3569 10.7896 24.8102C11.0455 29.4417 12.4814 33.4787 14.9429 36.4857C18.2429 40.5174 23.3041 42.7703 30.0089 43.2102C27.9389 43.7594 25.8052 44.0355 23.6628 44.0315Z" fill="url(#paint3_linear_9_9)"/>
<path d="M180 29.2872H52.2487V39.0198H180V29.2872Z" fill="url(#paint4_linear_9_9)"/>
<path d="M105.327 32.0993H102.972V33.631H105.239V34.2893H102.972V36.6327H102.246V31.441H105.325L105.327 32.0993Z" fill="white"/>
<path d="M108.943 36.6359H108.242L108.218 36.377C107.953 36.6079 107.612 36.7341 107.26 36.7318C106.377 36.7318 105.935 36.2347 105.934 35.2405V32.9429H106.621V35.363C106.621 35.8565 106.865 36.1051 107.353 36.1086C107.472 36.1128 107.59 36.0896 107.698 36.0408C107.806 35.992 107.901 35.919 107.976 35.8274C108.128 35.6305 108.204 35.386 108.19 35.1382V32.9429H108.869V35.7252C108.876 36.0299 108.9 36.334 108.943 36.6359Z" fill="white"/>
<path d="M112.364 35.4962C112.364 35.9222 112.208 36.2418 111.897 36.4548C111.627 36.6423 111.265 36.736 110.814 36.736C110.362 36.736 110.021 36.6324 109.792 36.425C109.532 36.2077 109.397 35.8921 109.386 35.4781H110.073C110.083 35.7145 110.151 35.8771 110.275 35.9659C110.399 36.0547 110.607 36.104 110.899 36.114C111.091 36.1197 111.279 36.0628 111.435 35.9521C111.501 35.9084 111.556 35.8489 111.593 35.7789C111.63 35.709 111.65 35.6308 111.649 35.5516C111.649 35.3989 111.527 35.2682 111.283 35.1596C111.087 35.0743 110.883 35.0076 110.674 34.9604C110.392 34.887 110.122 34.7748 109.871 34.627C109.754 34.5495 109.658 34.4437 109.593 34.3195C109.527 34.1953 109.495 34.0567 109.498 33.9165C109.488 33.7469 109.523 33.5777 109.602 33.4266C109.68 33.2756 109.797 33.1482 109.942 33.058C110.22 32.8938 110.539 32.8142 110.862 32.8289C111.77 32.8289 112.234 33.2163 112.254 33.9911H111.568C111.547 33.778 111.48 33.6278 111.366 33.5543C111.205 33.4715 111.024 33.4346 110.844 33.4478C110.415 33.4478 110.201 33.5948 110.201 33.8909C110.201 34.0049 110.294 34.104 110.482 34.1871C110.625 34.2505 110.774 34.3025 110.926 34.3426C111.253 34.4294 111.571 34.546 111.877 34.6909C112.026 34.7665 112.15 34.882 112.236 35.0243C112.322 35.1666 112.367 35.3301 112.364 35.4962Z" fill="white"/>
<path d="M115.746 36.6285H115.053V34.2233C115.053 33.7098 114.803 33.4535 114.303 33.4542C114.191 33.4504 114.079 33.4748 113.978 33.525C113.878 33.5752 113.791 33.6498 113.727 33.7418C113.579 33.9517 113.504 34.2037 113.513 34.4597V36.6285H112.819V31.441H113.504V33.1453C113.758 32.933 114.078 32.8151 114.409 32.8119C114.944 32.8119 115.324 33.0143 115.547 33.4191C115.692 33.708 115.762 34.0285 115.75 34.3511L115.746 36.6285Z" fill="white"/>
<path d="M119.62 34.9561H116.978C117 35.2471 117.109 35.5249 117.289 35.755C117.377 35.8686 117.491 35.9599 117.621 36.0216C117.752 36.0832 117.895 36.1134 118.039 36.1097C118.507 36.1097 118.793 35.8878 118.895 35.4439H119.605C119.556 35.8097 119.37 36.1433 119.083 36.377C118.777 36.6233 118.392 36.7518 117.999 36.7392C117.454 36.7392 117.026 36.5468 116.714 36.1619C116.423 35.8018 116.277 35.3381 116.277 34.7707C116.268 34.3 116.41 33.8386 116.683 33.4542C116.824 33.2541 117.012 33.0919 117.231 32.982C117.45 32.8721 117.693 32.8181 117.938 32.8247C118.509 32.8247 118.948 33.0441 119.255 33.4829C119.519 33.8728 119.641 34.3638 119.62 34.9561ZM118.903 34.317C118.847 34.0758 118.726 33.8546 118.552 33.6779C118.388 33.523 118.17 33.4382 117.944 33.4414C117.455 33.4414 117.144 33.7322 117.009 34.3138L118.903 34.317Z" fill="white"/>
<path d="M123.173 36.621H122.48V34.1785C122.48 33.6907 122.236 33.4467 121.747 33.4467C121.63 33.4413 121.513 33.4633 121.406 33.5108C121.299 33.5584 121.205 33.6302 121.131 33.7205C120.981 33.9208 120.906 34.1666 120.917 34.416V36.621H120.223V33.8313C120.216 33.5268 120.19 33.2231 120.147 32.9216H120.863L120.887 33.1591C121.153 32.9366 121.491 32.8181 121.838 32.8257C122.389 32.8257 122.774 33.0281 122.992 33.4329C123.125 33.7094 123.189 34.0138 123.178 34.3202L123.173 36.621Z" fill="white"/>
<path d="M127.054 32.928C127.018 33.3278 127 33.6289 127 33.8312V35.4439C127.012 35.7972 126.978 36.1507 126.899 36.4953C126.859 36.6584 126.786 36.8117 126.684 36.9453C126.582 37.079 126.453 37.1901 126.306 37.2718C126.009 37.4286 125.678 37.5098 125.342 37.5083C124.914 37.5083 124.572 37.4294 124.313 37.2718C124.165 37.1888 124.043 37.0668 123.961 36.9192C123.878 36.7717 123.838 36.6043 123.845 36.4356H124.523C124.57 36.7417 124.846 36.8947 125.35 36.8947C125.473 36.8948 125.595 36.8706 125.708 36.8236C125.822 36.7767 125.926 36.7078 126.012 36.621C126.107 36.5358 126.182 36.4318 126.233 36.3158C126.284 36.1998 126.31 36.0744 126.309 35.9478V35.9105C126.028 36.135 125.679 36.2575 125.319 36.2577C124.794 36.2577 124.388 36.0926 124.102 35.7624C123.832 35.4571 123.698 35.0551 123.698 34.5566C123.698 34.0432 123.825 33.6335 124.08 33.3274C124.36 32.988 124.768 32.8179 125.303 32.8172C125.678 32.8257 126.04 32.9643 126.324 33.2092L126.331 32.928H127.054ZM126.314 34.5258C126.323 34.2397 126.226 33.9604 126.041 33.7407C125.955 33.6403 125.847 33.5604 125.726 33.5067C125.605 33.4531 125.473 33.4272 125.34 33.4307C125.206 33.4237 125.073 33.4497 124.952 33.5064C124.831 33.5631 124.726 33.6487 124.646 33.7556C124.482 33.9725 124.399 34.2396 124.412 34.5108C124.401 34.7919 124.486 35.0684 124.654 35.2948C124.735 35.4027 124.841 35.4894 124.963 35.5475C125.085 35.6056 125.22 35.6333 125.355 35.6282C125.489 35.6346 125.624 35.6098 125.747 35.5558C125.87 35.5018 125.979 35.4202 126.065 35.3172C126.239 35.091 126.327 34.8112 126.314 34.5268V34.5258Z" fill="white"/>
<path d="M135.058 36.6359H134.308L133.732 35.2884H131.416L130.854 36.6359H130.083L132.258 31.441H132.889L135.058 36.6359ZM133.444 34.6121L132.567 32.4327L131.694 34.6153L133.444 34.6121Z" fill="white"/>
<path d="M138.479 36.6359H137.777L137.754 36.377C137.487 36.6091 137.144 36.7354 136.79 36.7318C135.907 36.7318 135.465 36.2347 135.465 35.2405V32.9429H136.151V35.363C136.151 35.8565 136.395 36.1051 136.883 36.1086C137.002 36.1126 137.12 36.0894 137.229 36.0406C137.337 35.9918 137.432 35.9189 137.508 35.8274C137.659 35.6303 137.735 35.386 137.722 35.1382V32.9429H138.401V35.7252C138.409 36.03 138.435 36.3341 138.479 36.6359Z" fill="white"/>
<path d="M141.3 33.5607H140.411L140.404 35.6772C140.404 35.8903 140.516 35.9968 140.739 35.9968H141.207V36.6189H140.645C140.022 36.6189 139.71 36.3032 139.71 35.6719L139.718 33.5629H138.885V32.9429H139.735V32.3038L140.412 31.963V32.9472H141.301L141.3 33.5607Z" fill="white"/>
<path d="M145.149 34.7782C145.162 35.2529 145.017 35.7185 144.737 36.1033C144.587 36.3097 144.389 36.476 144.159 36.5875C143.929 36.699 143.675 36.7522 143.419 36.7424C143.161 36.7523 142.905 36.6992 142.673 36.5878C142.44 36.4764 142.239 36.31 142.086 36.1033C141.803 35.7198 141.655 35.254 141.665 34.7782C141.652 34.3044 141.801 33.8402 142.086 33.4606C142.239 33.2539 142.44 33.0875 142.673 32.9761C142.905 32.8647 143.161 32.8116 143.419 32.8215C143.674 32.811 143.927 32.863 144.157 32.9727C144.387 33.0825 144.586 33.2467 144.737 33.451C145.019 33.8356 145.164 34.3025 145.149 34.7782ZM144.44 34.7782C144.448 34.4597 144.361 34.146 144.191 33.876C144.111 33.7442 143.997 33.6355 143.862 33.5607C143.727 33.486 143.574 33.4478 143.419 33.4499C143.262 33.4475 143.107 33.4854 142.969 33.5601C142.831 33.6347 142.715 33.7436 142.632 33.876C142.457 34.1442 142.368 34.4586 142.375 34.7782C142.367 35.0959 142.457 35.4084 142.632 35.674C142.713 35.8099 142.828 35.9224 142.966 36.0001C143.104 36.0779 143.26 36.1182 143.419 36.1172C143.576 36.118 143.73 36.0774 143.865 35.9996C144.001 35.9217 144.113 35.8093 144.191 35.674C144.362 35.4066 144.448 35.0948 144.44 34.7782Z" fill="white"/>
<path d="M155.094 31.441L153.668 36.6285H152.943L151.603 32.5062L150.253 36.6285H149.545L148.102 31.441H148.852L149.943 35.4887L151.252 31.441H151.954L153.272 35.4887L154.363 31.441H155.094Z" fill="white"/>
<path d="M158.383 36.6359H157.666L157.657 36.4058C157.385 36.6263 157.045 36.7466 156.694 36.7467C156.374 36.7549 156.062 36.644 155.82 36.4356C155.693 36.3287 155.592 36.1945 155.525 36.0433C155.457 35.892 155.425 35.7276 155.43 35.5622C155.42 35.3784 155.455 35.195 155.533 35.0278C155.61 34.8607 155.727 34.715 155.875 34.6035C156.128 34.4331 156.42 34.3287 156.725 34.2999C156.885 34.2808 157.187 34.2712 157.629 34.2712V34.0581C157.629 33.6321 157.405 33.419 156.958 33.419C156.719 33.419 156.554 33.4552 156.459 33.5255C156.346 33.6097 156.277 33.762 156.257 33.9846H155.548C155.554 33.8127 155.597 33.6441 155.675 33.4906C155.753 33.3372 155.864 33.2026 156 33.0963C156.282 32.901 156.62 32.8022 156.964 32.8151C157.857 32.8151 158.303 33.2269 158.304 34.0507V35.7156C158.303 36.0241 158.329 36.3321 158.383 36.6359ZM157.622 34.8964C157.394 34.8964 157.251 34.8964 157.194 34.9039C156.48 34.9288 156.123 35.1482 156.123 35.5622C156.121 35.6372 156.135 35.7118 156.164 35.7808C156.194 35.8498 156.238 35.9115 156.294 35.9616C156.424 36.0723 156.591 36.1305 156.762 36.1246C157.335 36.1246 157.622 35.7152 157.622 34.8964Z" fill="white"/>
<path d="M160.931 33.5202C160.803 33.4875 160.672 33.4655 160.541 33.4542C160.074 33.4542 159.84 33.7475 159.839 34.334V36.6284H159.146V33.8387C159.138 33.5413 159.111 33.2446 159.068 32.9504H159.763L159.78 33.1634C160.008 32.9408 160.208 32.83 160.388 32.83C160.495 32.83 160.679 32.8374 160.933 32.8524L160.931 33.5202Z" fill="white"/>
<path d="M163.315 33.5202C163.187 33.4875 163.057 33.4655 162.925 33.4542C162.458 33.4542 162.224 33.7475 162.224 34.334V36.6284H161.53V33.8387C161.522 33.5413 161.496 33.2446 161.452 32.9504H162.146L162.162 33.1634C162.39 32.9408 162.59 32.83 162.77 32.83C162.877 32.83 163.06 32.8374 163.315 32.8524V33.5202Z" fill="white"/>
<path d="M166.635 36.6359H165.918L165.91 36.4058C165.638 36.6259 165.298 36.7462 164.947 36.7467C164.627 36.7546 164.316 36.6437 164.074 36.4356C163.947 36.3289 163.846 36.1948 163.778 36.0435C163.711 35.8922 163.679 35.7276 163.684 35.5622C163.674 35.3784 163.709 35.1948 163.786 35.0276C163.864 34.8605 163.981 34.7148 164.129 34.6035C164.382 34.433 164.674 34.3286 164.978 34.2999C165.138 34.2808 165.44 34.2712 165.883 34.2712V34.0581C165.883 33.6321 165.659 33.419 165.212 33.419C164.973 33.419 164.807 33.4552 164.713 33.5255C164.599 33.6097 164.531 33.762 164.51 33.9846H163.801C163.807 33.8128 163.85 33.6443 163.929 33.4908C164.007 33.3374 164.117 33.2028 164.253 33.0963C164.535 32.901 164.873 32.8022 165.217 32.8151C166.11 32.8151 166.557 33.2269 166.557 34.0507V35.7156C166.556 36.024 166.582 36.3321 166.635 36.6359ZM165.879 34.8964C165.65 34.8964 165.508 34.8964 165.451 34.9039C164.737 34.9288 164.38 35.1482 164.38 35.5622C164.378 35.6372 164.392 35.7118 164.422 35.7808C164.451 35.8498 164.496 35.9115 164.552 35.9616C164.682 36.0721 164.849 36.1303 165.02 36.1246C165.593 36.1246 165.879 35.7152 165.879 34.8964Z" fill="white"/>
<path d="M170.275 36.621H169.581V34.1785C169.581 33.6907 169.337 33.4467 168.849 33.4467C168.731 33.4412 168.615 33.463 168.507 33.5106C168.4 33.5581 168.306 33.63 168.232 33.7205C168.082 33.9211 168.007 34.1666 168.018 34.4161V36.621H167.324V33.8313C167.316 33.5264 167.289 33.2223 167.246 32.9205H167.963L167.986 33.1581C168.251 32.9354 168.59 32.8169 168.937 32.8247C169.488 32.8247 169.872 33.0271 170.091 33.4318C170.224 33.7083 170.288 34.0127 170.278 34.3191L170.275 36.621Z" fill="white"/>
<path d="M173.095 33.5607H172.206L172.199 35.6772C172.199 35.8903 172.306 35.9968 172.534 35.9968H173.002V36.6189H172.441C171.818 36.6189 171.506 36.3032 171.505 35.6719L171.513 33.5629H170.685V32.9429H171.534V32.3038L172.212 31.963V32.9472H173.1L173.095 33.5607Z" fill="white"/>
<path d="M176.953 32.928L175.025 37.5083H174.276L174.759 36.4953L173.302 32.928H174.043L175.125 35.6975L176.225 32.928H176.953Z" fill="white"/>
<path d="M69.1874 6.8534H72.6801V9.74537H69.1874V8.99974H55.8656V9.74537H52.3708V6.8534H60.8187V6.07901H64.3114V6.84914L69.1874 6.8534ZM52.9597 24.4534V18.3819H72.0944V24.4747C72.0809 25.8339 71.3977 26.5135 70.0451 26.5135H52.9597V24.4534ZM53.0432 15.6742V12.5958H72.0109V15.6124C71.9959 16.9716 71.3128 17.6512 69.9616 17.6512H53.0443V15.6742H53.0432ZM71.7593 10.3483V11.831H53.2734V10.3483H71.7593ZM60.8219 21.4176V20.4398H56.4513V21.4176H60.8219ZM56.4513 23.3936V24.4587H60.8219V23.3936H56.4513ZM67.9957 15.6752C68.3437 15.6752 68.5182 15.5027 68.5182 15.1554V14.5728H56.5348V15.6752H67.9957ZM68.6018 21.4176V20.4398H64.3189V21.4176H68.6018ZM64.3189 23.3936V24.4587H68.0835C68.4315 24.4587 68.606 24.2862 68.606 23.9389V23.3978L64.3189 23.3936Z" fill="#474747"/>
<path d="M77.2799 24.4332C77.2656 25.7923 76.5825 26.4719 75.2305 26.4719H74.0806L73.6202 23.663H73.7669C74.1152 23.663 74.2894 23.4898 74.2894 23.1432V6.43691H81.5467V24.4332C81.5331 25.7923 80.85 26.4719 79.4973 26.4719H78.2628L77.8035 23.663H78.0337C78.382 23.663 78.5562 23.4898 78.5562 23.1432V20.5655H77.2799V24.4332ZM78.5562 12.0131V9.24367H77.2799V12.0131H78.5562ZM78.5562 17.7545V14.822H77.2799V17.7545H78.5562ZM93.5462 24.4332C93.5319 25.7923 92.8488 26.4719 91.4968 26.4719H88.9699L88.5106 23.8303H89.6188C89.9671 23.8303 90.1413 23.6567 90.1413 23.3094V21.0629H88.5941L87.4228 24.9945C87.1015 25.9802 86.3906 26.4726 85.2899 26.4719H82.9054L82.4043 23.8303H83.868C84.272 23.8303 84.5218 23.6361 84.6175 23.2476L85.2599 21.0629H82.718V18.5661H82.3197L81.8154 16.2568H82.4429C82.8048 16.2568 83.0346 16.0626 83.1324 15.6742L83.3626 14.9882H82.2919V12.3455H84.2363L84.8637 10.5773H84.3198C84.1385 10.9103 83.8808 11.0768 83.5468 11.0768H82.4461L81.9857 8.76753H82.3197C82.5296 8.76753 82.6413 8.6358 82.6549 8.37235L83.0735 6.91624H85.2267L84.913 8.10286H85.7085L86.4195 6.07901H89.7387L89.0331 8.10286H91.2077L90.9358 6.91731H93.09L93.4252 8.1231C93.4523 8.44265 93.5569 8.60243 93.7389 8.60243H94.0944V10.9117H92.6928C92.3302 10.9117 92.0582 10.8006 91.8769 10.5783H91.7517L92.2538 12.3465H94.0944V14.9893H92.9851L93.2153 15.7999C93.2988 16.1059 93.5151 16.2586 93.8642 16.2579H94.1779V18.5672H93.5505L93.5462 24.4332ZM89.8233 14.9882H86.6486L85.9173 17.1729C85.7503 17.6714 85.489 18.0325 85.1432 18.254H86.1475L86.5865 16.8192H89.9111L89.4518 18.254H91.2291C90.8244 17.9636 90.5389 17.4992 90.3726 16.8608L89.8233 14.9882ZM88.5898 10.5773H88.1755L87.548 12.3455H89.0749L88.5898 10.5773Z" fill="#474747"/>
<path d="M100.535 18.4L99.3848 24.6206C99.1757 25.8548 98.4369 26.4719 97.1684 26.4719H95.4553L94.9531 23.663H95.6437C95.95 23.6488 96.1313 23.4479 96.1877 23.0602L97.0442 18.4H100.535ZM99.0293 8.01871C99.1268 8.35104 99.3709 8.51828 99.7617 8.51828H100.368V11.3261H97.9832C96.924 11.3126 96.2269 10.6735 95.8921 9.40877L95.1608 6.33039H98.5689L99.0293 8.01871ZM99.1964 13.76C99.2934 14.0938 99.5376 14.2603 99.9287 14.2596H100.368V17.0685H98.1513C97.0913 17.0543 96.3943 16.4152 96.0602 15.1512L95.3279 12.239H98.7327L99.1964 13.76ZM101.309 11.3261L100.807 8.68445H101.079C101.706 8.67095 102.11 8.46964 102.292 8.08049L103.23 6.07901H106.721L106.199 7.22408H115.505V9.94882H104.965C104.672 10.4899 104.315 10.8713 103.895 11.0928H114.916V13.5694H101.949V11.3218L101.309 11.3261ZM109.046 17.485H101.539V14.6761H115.069V17.11L115.027 17.1303L106.997 22.7267C106.41 23.3509 106.71 23.663 107.896 23.663H115.592V26.4719H103.551C102.393 26.4719 101.661 26.0072 101.355 25.0776C101.049 24.1481 101.195 23.3644 101.794 22.7267L109.046 17.485Z" fill="#474747"/>
<path d="M116.512 25.3482V22.6234H125.065V21.4794H117.034V10.9341H125.065V9.82845H116.679V7.1868H125.065V6.07901H128.558V7.1868H136.838V9.82845H128.558V10.9309H136.504V19.4396C136.491 20.8002 135.808 21.4801 134.455 21.4794H128.558V22.6234H137.007V25.3482H128.558V26.4719H125.065V25.3482H116.512ZM125.065 13.5736H120.527V15.0084H125.065V13.5736ZM125.065 17.485H120.527V18.8367H125.065V17.485ZM128.558 15.0084H133.012V13.5736H128.558V15.0084ZM128.558 18.8367H132.489C132.838 18.8367 133.012 18.6634 133.012 18.3169V17.485H128.558V18.8367Z" fill="#474747"/>
<path d="M138.198 15.0713L137.696 12.2624H138.073C138.491 12.2624 138.748 12.0543 138.846 11.6382L140.206 6.16742H143.703L141.904 13.1572H142.615V26.4719H139.122V15.0745L138.198 15.0713ZM148.299 19.3938L147.65 24.1381C147.428 25.302 146.661 25.8843 145.351 25.885H143.97L143.468 23.0761H144.158C144.465 23.0619 144.646 22.8819 144.702 22.5361L145.141 19.3938H148.299ZM143.866 18.4351V15.7157H149.239V14.2809H144.723V6.47845H157.5V12.2422C157.486 13.6013 156.803 14.2809 155.451 14.2809H152.732V15.7157H158.253V18.4415H152.732V26.4719H149.239V18.4415L143.866 18.4351ZM153.485 11.5487C153.834 11.5487 154.008 11.3755 154.008 11.0289V9.20426H148.215V11.5551L153.485 11.5487ZM157.291 22.5755C157.388 22.9078 157.632 23.074 158.024 23.074H158.169V25.8914H156.33C155.259 25.8914 154.555 25.2672 154.217 24.0188L153.673 19.3938H156.999L157.291 22.5755Z" fill="#474747"/>
<path d="M159.78 14.7379L159.277 11.93H159.32C159.738 11.93 159.995 11.722 160.093 11.3058L161.201 6.1674H164.694L163.167 12.7406H163.774V26.4719H160.282V14.7379H159.78ZM166.953 8.99653V24.2286H164.632V8.99653H166.953ZM175.733 12.387L176.653 13.1326C176.987 13.4387 177.433 13.5914 177.991 13.5907H179.832V16.0661H177.239C176.262 16.0534 175.453 15.7899 174.812 15.2758L173.767 14.3171L172.993 15.0862C172.449 15.7395 171.711 16.0654 170.777 16.064H167.974L167.473 13.5939H169.438C169.828 13.58 170.114 13.4628 170.295 13.2402L171.508 12.2421L170.316 11.1386C169.941 11.3287 169.524 11.4217 169.103 11.4092H167.974L167.473 8.76751H167.687C168.092 8.76751 168.341 8.57329 168.436 8.18486L169.064 6.08325H172.389L172.076 7.10263H179.834V9.74535H178.474L175.733 12.387ZM175.231 16.1535L173.474 18.5661C172.944 19.1491 172.212 19.4403 171.278 19.4396H168.387L167.885 17.3806H170.436C170.772 17.3806 171.009 17.2765 171.147 17.0685L171.897 16.1535H175.231ZM178.41 17.9835L175.398 21.9577C174.868 22.5542 174.136 22.8524 173.202 22.8524H168.479L167.977 20.6262H172.202C172.55 20.6262 172.794 20.5151 172.933 20.2928L174.921 17.9835H178.41ZM179.832 21.8948L177.175 25.5772C176.632 26.1737 175.893 26.4719 174.959 26.4719H168.479L167.977 24.1626H173.958C174.321 24.1626 174.571 24.0561 174.707 23.8505L176.338 21.8948H179.832ZM171.278 9.74535L171.236 9.93282C171.149 10.1892 171.029 10.4336 170.881 10.6603H173.412L174.499 9.74535H171.278Z" fill="#474747"/>
</g>
<defs>
<linearGradient id="paint0_linear_9_9" x1="20.9432" y1="39.5108" x2="38.7981" y2="8.42325" gradientUnits="userSpaceOnUse">
<stop stop-color="#A70E13"/>
<stop offset="1" stop-color="#E11B22"/>
</linearGradient>
<linearGradient id="paint1_linear_9_9" x1="23.4744" y1="39.3202" x2="39.9078" y2="10.7081" gradientUnits="userSpaceOnUse">
<stop stop-color="#A70E13"/>
<stop offset="1" stop-color="#B11116"/>
</linearGradient>
<linearGradient id="paint2_linear_9_9" x1="22.3319" y1="45.4545" x2="22.3319" y2="0" gradientUnits="userSpaceOnUse">
<stop stop-color="#E11B22"/>
<stop offset="0.79" stop-color="#F37021"/>
<stop offset="1" stop-color="#FAA61A"/>
</linearGradient>
<linearGradient id="paint3_linear_9_9" x1="16.5201" y1="44.0315" x2="16.5201" y2="1.42202" gradientUnits="userSpaceOnUse">
<stop stop-color="#E11B22"/>
<stop offset="0.79" stop-color="#F37021"/>
<stop offset="1" stop-color="#FFD400"/>
</linearGradient>
<linearGradient id="paint4_linear_9_9" x1="205.227" y1="62.1002" x2="126.156" y2="37.0422" gradientUnits="userSpaceOnUse">
<stop stop-color="#E11B22"/>
<stop offset="0.79" stop-color="#F37021"/>
<stop offset="1" stop-color="#FAA61A"/>
</linearGradient>
<clipPath id="clip0_9_9">
<rect width="180" height="45.4545" fill="white"/>
</clipPath>
</defs>
</svg>
