<svg width="34" height="49" viewBox="0 0 34 49" fill="none" xmlns="http://www.w3.org/2000/svg">
<path d="M32.1345 9.74387C34.5953 15.0391 34.0369 21.2724 31.3122 26.3382C29.0767 30.4944 25.7408 33.9319 22.9916 37.7368C21.7348 39.4789 20.4658 41.29 19.6029 43.2737C19.3166 43.9336 19.0689 44.6097 18.8253 45.2878C18.5796 45.964 18.3705 46.6543 18.1349 47.3345C17.9136 47.972 17.6558 48.7233 16.8619 48.7294H16.8477C15.9015 48.7273 15.6721 47.6533 15.4365 46.9284C14.8599 45.1538 14.2569 43.4503 13.3676 41.8017C12.3321 39.885 11.0428 38.1125 9.73319 36.3785L32.1345 9.74387ZM9.83673 15.6442L1.79843 25.2012C3.26843 28.328 5.49576 31.0142 7.62767 33.6882C8.12918 34.3177 8.63068 34.9511 9.12407 35.5887L19.2435 23.5586L19.1846 23.5789C15.6497 24.7992 11.6905 22.9881 10.2672 19.5446C10.0725 19.0771 9.93016 18.5896 9.84283 18.0908C9.71491 17.2035 9.68649 16.5457 9.8347 15.6584L9.83673 15.6442ZM3.63796 6.39373L3.63187 6.40185C-0.3213 11.4088 -0.999449 18.3405 1.36392 24.2084L11.0793 12.6575L10.9616 12.556L3.63796 6.39373ZM22.2546 0.885282L14.462 10.1499C14.4799 10.1423 14.4982 10.1355 14.5168 10.1296C17.7654 9.0109 21.4262 10.4342 23.085 13.4311C23.4424 14.0787 23.7408 14.8178 23.8505 15.5528C23.9885 16.4584 24.0231 17.1223 23.8748 18.0299L23.8688 18.0624L31.6573 8.80177C29.622 5.0895 26.276 2.26913 22.2729 0.891373L22.2546 0.885282ZM11.7067 11.9144L21.2414 0.578694L21.146 0.554329C19.7351 0.183469 18.2821 -0.00284966 16.8233 3.29407e-05C14.4612 0.0221576 12.1291 0.532477 9.9736 1.49894C7.8181 2.4654 5.88572 3.86713 4.29783 5.61609L4.26535 5.65263L11.7067 11.9144Z" fill="#E11B22"/>
</svg>
